<svg width="20" height="18" viewBox="0 0 20 18" fill="none" xmlns="http://www.w3.org/2000/svg">
<path d="M0.319691 8.22288L7.54239 1.00001C7.74857 0.793834 8.02336 0.680664 8.31637 0.680664C8.6097 0.680664 8.88433 0.793996 9.09051 1.00001L9.74627 1.65594C9.95229 1.86179 10.0658 2.13675 10.0658 2.42992C10.0658 2.72292 9.95229 3.00715 9.74627 3.213L5.53265 7.43589H18.9195C19.5231 7.43589 20 7.90841 20 8.51215V9.43945C20 10.0432 19.5231 10.5633 18.9195 10.5633H5.48485L9.74611 14.8098C9.95212 15.016 10.0656 15.2835 10.0656 15.5766C10.0656 15.8695 9.95212 16.1409 9.74611 16.3469L9.09034 17.0007C8.88417 17.2069 8.60953 17.3192 8.3162 17.3192C8.0232 17.3192 7.7484 17.2054 7.54223 16.9992L0.319529 9.77652C0.112864 9.5697 -0.000793457 9.2936 1.90735e-05 9.00011C-0.000631332 8.70564 0.112864 8.42938 0.319691 8.22288Z" fill="black"/>
</svg>
