<svg width="24" height="24" viewBox="0 0 24 24" fill="none" xmlns="http://www.w3.org/2000/svg">
<g clip-path="url(#clip0)">
<path d="M17.6003 0.000701904V6.40041H24L17.6003 0.000701904Z" fill="#3796F3"/>
<path d="M7.97833 23.0057L6.75278 18.0891C7.51755 17.3611 8.00073 16.3372 8.00073 15.1996C8.00073 12.9949 6.20561 11.1998 4.00091 11.1998C1.79621 11.1998 0.00109214 12.9949 0.00109214 15.1996C0.00109214 16.3372 0.48427 17.3611 1.24904 18.0891L0.0234911 23.0057C-0.0517054 23.3081 0.0570896 23.6281 0.300278 23.8248C0.543467 24.02 0.879452 24.0536 1.15784 23.916L4.00091 22.4937L6.84238 23.916C6.95597 23.9704 7.07917 23.9992 7.20076 23.9992C7.37835 23.9992 7.55595 23.94 7.70154 23.8248C7.94473 23.6281 8.05352 23.3097 7.97833 23.0057ZM4.00091 17.5995C2.67777 17.5995 1.60102 16.5228 1.60102 15.1996C1.60102 13.8765 2.67777 12.7998 4.00091 12.7998C5.32405 12.7998 6.4008 13.8765 6.4008 15.1996C6.4008 16.5228 5.32405 17.5995 4.00091 17.5995Z" fill="#3796F3"/>
<path d="M17.6003 8.00034C16.7188 8.00034 16.0004 7.28197 16.0004 6.40041V0.000701904H6.40083C5.51927 0.000701904 4.8009 0.719069 4.8009 1.60063V9.68186C7.50798 10.0738 9.60068 12.3857 9.60068 15.2C9.60068 16.4095 9.2167 17.5583 8.50633 18.5135L9.47589 22.3997H22.4001C23.2833 22.3997 24 21.6829 24 20.7997V8.00034H17.6003ZM8.80072 6.40041C8.35914 6.40041 8.00076 6.04203 8.00076 5.60045C8.00076 5.15887 8.35914 4.80048 8.80072 4.80048H13.6005C14.0421 4.80048 14.4005 5.15887 14.4005 5.60045C14.4005 6.04203 14.0421 6.40041 13.6005 6.40041H8.80072ZM20.0002 16H12.0006C11.559 16 11.2006 15.6416 11.2006 15.2C11.2006 14.7584 11.559 14.4 12.0006 14.4H20.0002C20.4418 14.4 20.8002 14.7584 20.8002 15.2C20.8002 15.6416 20.4418 16 20.0002 16ZM20.0002 11.2002H10.4006C9.95907 11.2002 9.60068 10.8418 9.60068 10.4002C9.60068 9.95865 9.95907 9.60026 10.4006 9.60026H20.0002C20.4418 9.60026 20.8002 9.95865 20.8002 10.4002C20.8002 10.8418 20.4418 11.2002 20.0002 11.2002Z" fill="#3796F3"/>
</g>
<defs>
<clipPath id="clip0">
<rect width="24" height="24" fill="white"/>
</clipPath>
</defs>
</svg>
