<?xml version="1.0" standalone="no"?>
<!DOCTYPE svg PUBLIC "-//W3C//DTD SVG 1.1//EN" "http://www.w3.org/Graphics/SVG/1.1/DTD/svg11.dtd" >
<svg xmlns="http://www.w3.org/2000/svg" xmlns:xlink="http://www.w3.org/1999/xlink" version="1.1">
<metadata>
Created by FontForge 20170731 at Sun Aug  5 03:51:14 2018
 By Aleksey,,,
Copyright (c) 2017 by Gayane Bagdasaryan, Vyacheslav Kirilenko. All rights reserved. |DCNT
</metadata>
<defs>
<font id="Aeroport" horiz-adv-x="620" >
  <font-face 
    font-family="Aeroport"
    font-weight="400"
    font-stretch="normal"
    units-per-em="1000"
    panose-1="2 0 0 0 0 0 0 0 0 0"
    ascent="800"
    descent="-200"
    x-height="460"
    cap-height="664"
    bbox="-338 -251 1255 1024"
    underline-thickness="50"
    underline-position="-250"
    unicode-range="U+000D-FB02"
  />
<missing-glyph 
d="M85 0v664h450v-664h-450zM171 76h278v512h-278v-512z" />
    <glyph glyph-name=".notdef" 
d="M85 0v664h450v-664h-450zM171 76h278v512h-278v-512z" />
    <glyph glyph-name=".null" horiz-adv-x="0" 
 />
    <glyph glyph-name=".null" horiz-adv-x="0" 
 />
    <glyph glyph-name="nonmarkingreturn" horiz-adv-x="333" 
 />
    <glyph glyph-name="CR" unicode="&#xd;" horiz-adv-x="230" 
 />
    <glyph glyph-name="space" unicode=" " horiz-adv-x="230" 
 />
    <glyph glyph-name="exclam" unicode="!" horiz-adv-x="324" 
d="M207 664v-465h-90v465h90zM110 0v104h104v-104h-104z" />
    <glyph glyph-name="quotedbl" unicode="&#x22;" horiz-adv-x="356" 
d="M220 401v263h86v-263h-86zM50 401v263h86v-263h-86z" />
    <glyph glyph-name="numbersign" unicode="#" horiz-adv-x="672" 
d="M267 664h86l-48 -179h142l48 179h86l-48 -179h129v-82h-151l-38 -142h129v-82h-151l-47 -179h-86l47 179h-142l-47 -179h-86l47 179h-127v82h149l38 142h-127v82h149zM283 403l-38 -142h142l38 142h-142z" />
    <glyph glyph-name="dollar" unicode="$" horiz-adv-x="579" 
d="M24 165h95q24 -43 69.5 -68.5t104.5 -25.5q69 0 114 32t45 78q0 47 -31 71.5t-98 32.5l-107 14q-88 12 -131.5 59t-43.5 120q0 79 51.5 132t144.5 64v121h86v-121q88 -11 144 -61.5t77 -113.5h-95q-21 42 -66.5 68t-103.5 26q-71 0 -109.5 -32.5t-38.5 -78.5
q0 -86 112 -100l114 -15q86 -11 135.5 -59t49.5 -122t-58.5 -132t-160.5 -66v-120h-86v123q-87 13 -140 61.5t-73 112.5z" />
    <glyph glyph-name="percent" unicode="%" horiz-adv-x="876" 
d="M288 0h-87l389 664h87zM220 671q72 0 121 -48.5t49 -117.5t-49 -117.5t-121 -48.5t-121 48.5t-49 117.5t49 117.5t121 48.5zM220 414q38 0 63.5 27t25.5 64q0 38 -25.5 65t-63.5 27t-63.5 -27t-25.5 -65q0 -37 25.5 -64t63.5 -27zM656 325q72 0 121 -48.5t49 -117.5
t-49 -117.5t-121 -48.5t-121 48.5t-49 117.5t49 117.5t121 48.5zM656 68q38 0 63.5 27t25.5 64q0 38 -25.5 65t-63.5 27t-63.5 -27t-25.5 -65q0 -37 25.5 -64t63.5 -27z" />
    <glyph glyph-name="ampersand" unicode="&#x26;" horiz-adv-x="670" 
d="M500 152l170 -152h-119l-102 90q-103 -103 -209 -103q-94 0 -146.5 50t-52.5 119q0 31 8 55t29 47t36 35.5t51 39.5l11 8l-28 28q-76 76 -76 140q0 78 55.5 123t129.5 45q82 0 136 -45.5t54 -119.5q0 -80 -101 -155l-39 -28l138 -123l175 186v-111zM258 597
q-39 0 -69.5 -22t-30.5 -64q0 -40 58 -93l36 -33l46 32q63 43 63 95q0 36 -30 60.5t-73 24.5zM392 147l-158 140l-25 -19q-3 -2 -14 -10.5t-14.5 -11.5t-13 -11.5t-13.5 -13t-10.5 -13t-9 -15.5t-5 -16.5t-2.5 -18.5q0 -37 31 -64t81 -27q77 0 153 80z" />
    <glyph glyph-name="quotesingle" unicode="'" horiz-adv-x="186" 
d="M50 401v263h86v-263h-86z" />
    <glyph glyph-name="parenleft" unicode="(" horiz-adv-x="329" 
d="M217 664h93q-65 -87 -104.5 -184.5t-39.5 -225.5t39.5 -225.5t104.5 -184.5h-93q-62 75 -99.5 181.5t-37.5 228.5t37.5 228.5t99.5 181.5z" />
    <glyph glyph-name="parenright" unicode=")" horiz-adv-x="329" 
d="M19 664h93q62 -75 99.5 -181.5t37.5 -228.5t-37.5 -228.5t-99.5 -181.5h-93q65 87 104.5 184.5t39.5 225.5t-39.5 225.5t-104.5 184.5z" />
    <glyph glyph-name="asterisk" unicode="*" horiz-adv-x="435" 
d="M149 479l-109 63l34 60l109 -64v126h69v-126l108 64l35 -60l-110 -63l110 -62l-35 -60l-108 63v-125h-69v125l-109 -63l-34 60z" />
    <glyph glyph-name="plus" unicode="+" horiz-adv-x="545" 
d="M55 296h177v177h81v-177h177v-81h-177v-177h-81v177h-177v81z" />
    <glyph glyph-name="comma" unicode="," horiz-adv-x="231" 
d="M106 -117h-63l70 117h-53v111h111v-121z" />
    <glyph glyph-name="hyphen" unicode="-" horiz-adv-x="400" 
d="M70 296h260v-81h-260v81z" />
    <glyph glyph-name="period" unicode="." horiz-adv-x="231" 
d="M60 0v111h111v-111h-111z" />
    <glyph glyph-name="slash" unicode="/" horiz-adv-x="360" 
d="M5 -80l261 744h89l-262 -744h-88z" />
    <glyph glyph-name="zero" unicode="0" horiz-adv-x="628" 
d="M314 677q57 0 102.5 -23t73.5 -59t46 -83t25 -91.5t7 -88.5t-7 -88.5t-25 -91.5t-46 -83t-73.5 -59t-102.5 -23t-102.5 23t-73.5 59t-46 83t-25 91.5t-7 88.5t7 88.5t25 91.5t46 83t73.5 59t102.5 23zM314 71q45 0 78 24.5t51 64.5t26.5 83.5t8.5 88.5t-8.5 88.5
t-26.5 83.5t-51 64.5t-78 24.5t-78 -24.5t-51 -64.5t-26.5 -83.5t-8.5 -88.5t8.5 -88.5t26.5 -83.5t51 -64.5t78 -24.5z" />
    <glyph glyph-name="one" unicode="1" horiz-adv-x="387" 
d="M192 0v560l-142 -128v110l138 122h94v-664h-90z" />
    <glyph glyph-name="two" unicode="2" horiz-adv-x="569" 
d="M182 84h332v-84h-453v84l271 249q39 37 60 69t21 70q0 54 -38 87.5t-95 33.5q-53 0 -91 -27.5t-50 -80.5h-94q17 87 77.5 139.5t152.5 52.5q101 0 164 -55t63 -147q0 -96 -100 -188z" />
    <glyph glyph-name="three" unicode="3" horiz-adv-x="579" 
d="M206 380h78q64 0 100.5 28.5t36.5 79.5q0 47 -38 76t-99 29q-111 0 -146 -94h-93q23 89 87.5 133.5t151.5 44.5q104 0 165.5 -55.5t61.5 -133.5q0 -90 -84 -148q87 -60 87 -157q0 -82 -63 -139t-170 -57q-88 0 -152.5 44.5t-87.5 133.5h93q38 -94 147 -94q63 0 103 31
t40 80q0 54 -38.5 84.5t-104.5 30.5h-75v83z" />
    <glyph glyph-name="four" unicode="4" horiz-adv-x="597" 
d="M378 422h90v-197h114v-84h-114v-141h-90v141h-358v84l324 439h104l-324 -439h254v197z" />
    <glyph glyph-name="five" unicode="5" horiz-adv-x="580" 
d="M45 156h93q34 -85 145 -85q67 0 109.5 40.5t42.5 100.5q0 61 -42 100.5t-110 39.5q-80 0 -129 -49h-90l38 361h392v-84h-315l-18 -178q59 34 133 34q91 0 161 -61.5t70 -164.5q0 -91 -68 -157t-172 -66q-92 0 -157 46.5t-83 122.5z" />
    <glyph glyph-name="six" unicode="6" horiz-adv-x="603" 
d="M324 426q94 0 161.5 -63t67.5 -157q0 -89 -67.5 -154t-169.5 -65q-118 0 -187 81t-69 250q0 70 15.5 132t46.5 114t84 82.5t123 30.5q161 0 220 -155h-92q-35 71 -127 71q-76 0 -127.5 -64.5t-53.5 -176.5q27 33 73.5 53.5t101.5 20.5zM312 71q63 0 107 38.5t44 96.5
q0 59 -44 97.5t-107 38.5t-105.5 -38.5t-42.5 -97.5t42.5 -97t105.5 -38z" />
    <glyph glyph-name="seven" unicode="7" horiz-adv-x="532" 
d="M399 580h-354v84h452v-84l-319 -580h-100z" />
    <glyph glyph-name="eight" unicode="8" horiz-adv-x="608" 
d="M304 -13q-111 0 -177.5 57t-66.5 139q0 95 93 157q-86 56 -86 149q0 78 64.5 133t172.5 55t172.5 -55t64.5 -133q0 -93 -86 -149q93 -62 93 -157q0 -82 -66.5 -139t-177.5 -57zM451 489q0 46 -41 75t-106 29t-106 -29t-41 -75q0 -50 39.5 -78.5t107.5 -28.5t107.5 28.5
t39.5 78.5zM304 71q66 0 110 32t44 80q0 53 -42 84t-112 31t-112 -31t-42 -84q0 -48 44 -80t110 -32z" />
    <glyph glyph-name="nine" unicode="9" horiz-adv-x="603" 
d="M279 240q-96 0 -162.5 61.5t-66.5 157.5q0 89 67.5 153.5t169.5 64.5q118 0 187 -81t69 -249q0 -71 -14.5 -133t-44.5 -114t-82.5 -82.5t-122.5 -30.5q-160 0 -219 155h92q35 -71 126 -71q77 0 125.5 64t50.5 178q-27 -34 -73 -53.5t-102 -19.5zM291 593q-63 0 -107 -38
t-44 -96q0 -60 43.5 -97.5t107.5 -37.5t106 37.5t42 97.5q0 57 -42.5 95.5t-105.5 38.5z" />
    <glyph glyph-name="colon" unicode=":" horiz-adv-x="231" 
d="M60 310v111h111v-111h-111zM60 0v111h111v-111h-111z" />
    <glyph glyph-name="semicolon" unicode=";" horiz-adv-x="231" 
d="M106 -117h-63l70 117h-53v111h111v-121zM60 310v111h111v-111h-111z" />
    <glyph glyph-name="less" unicode="&#x3c;" horiz-adv-x="535" 
d="M150 256l330 -153v-91l-435 204v81l435 204v-91z" />
    <glyph glyph-name="equal" unicode="=" horiz-adv-x="545" 
d="M55 214h435v-82h-435v82zM55 381h435v-82h-435v82z" />
    <glyph glyph-name="greater" unicode="&#x3e;" horiz-adv-x="535" 
d="M55 103l330 153l-330 154v91l435 -204v-81l-435 -204v91z" />
    <glyph glyph-name="question" unicode="?" horiz-adv-x="524" 
d="M199 0v104h104v-104h-104zM265 677q96 0 147.5 -48t51.5 -116q0 -40 -14 -71t-30.5 -46.5t-53.5 -46.5l-14 -11q-35 -27 -45.5 -46.5t-10.5 -55.5v-37h-90v37q0 60 18.5 93t80.5 78q35 26 52 49t17 53q0 39 -30.5 61.5t-78.5 22.5q-100 0 -127 -90h-98q17 75 76 124.5
t149 49.5z" />
    <glyph glyph-name="at" unicode="@" horiz-adv-x="973" 
d="M586 252q0 61 -34 95t-85 34q-50 0 -82 -38t-32 -91q0 -55 31.5 -93.5t82.5 -38.5t85 34.5t34 97.5zM696 -31h105q-125 -144 -308 -144q-176 0 -299.5 124.5t-123.5 301.5t123.5 301.5t299.5 124.5q174 0 292 -108.5t118 -279.5q0 -104 -47.5 -174t-136.5 -70
q-79 0 -122 58q-46 -58 -134 -58q-76 0 -133.5 55.5t-57.5 150.5q0 96 58 151.5t136 55.5q62 0 117 -47v36h77v-250q0 -33 16.5 -54.5t49.5 -21.5q47 0 72 46t25 125q0 134 -94 221t-236 87t-241.5 -102t-99.5 -247t99.5 -247t241.5 -102q111 0 203 67z" />
    <glyph glyph-name="A" unicode="A" horiz-adv-x="681" 
d="M160 154l-67 -154h-93l292 664h98l291 -664h-96l-67 154h-358zM482 237l-143 329l-143 -329h286z" />
    <glyph glyph-name="B" unicode="B" horiz-adv-x="655" 
d="M85 664h312q83 0 143 -46.5t60 -140.5t-78 -145q78 -51 78 -145t-60 -140.5t-143 -46.5h-312v664zM510 187q0 50 -31 76.5t-83 26.5h-221v-206h221q52 0 83 26.5t31 76.5zM510 477q0 50 -31 76.5t-83 26.5h-221v-206h221q52 0 83 26.5t31 76.5z" />
    <glyph glyph-name="C" unicode="C" horiz-adv-x="715" 
d="M386 593q-107 0 -179 -74.5t-72 -186.5t72 -186.5t179 -74.5q119 0 187 94h102q-41 -83 -115.5 -130.5t-173.5 -47.5q-145 0 -243 99t-98 246t98 246t243 99q99 0 173.5 -47.5t115.5 -130.5h-102q-68 94 -187 94z" />
    <glyph glyph-name="D" unicode="D" horiz-adv-x="717" 
d="M85 664h223q168 0 266 -95.5t98 -236.5t-98 -236.5t-266 -95.5h-223v664zM582 332q0 112 -72 180t-196 68h-139v-496h139q124 0 196 68t72 180z" />
    <glyph glyph-name="E" unicode="E" horiz-adv-x="600" 
d="M535 580h-360v-206h353v-84h-353v-206h360v-84h-450v664h450v-84z" />
    <glyph glyph-name="F" unicode="F" horiz-adv-x="580" 
d="M535 580h-360v-206h353v-84h-353v-290h-90v664h450v-84z" />
    <glyph glyph-name="G" unicode="G" horiz-adv-x="753" 
d="M386 593q-107 0 -179 -74.5t-72 -186.5q0 -113 71.5 -187t180.5 -74q88 0 147.5 52t77.5 138h-239v84h335q0 -159 -92 -258.5t-226 -99.5q-146 0 -245.5 99t-99.5 246t98 246t243 99q97 0 174.5 -48.5t119.5 -129.5h-103q-31 43 -80.5 68.5t-110.5 25.5z" />
    <glyph glyph-name="H" unicode="H" horiz-adv-x="738" 
d="M653 0h-90v290h-388v-290h-90v664h90v-290h388v290h90v-664z" />
    <glyph glyph-name="I" unicode="I" horiz-adv-x="260" 
d="M175 664v-664h-90v664h90z" />
    <glyph glyph-name="J" unicode="J" horiz-adv-x="407" 
d="M237 664h90v-484q0 -86 -52.5 -133t-141.5 -47h-128v84h128q104 0 104 96v484z" />
    <glyph glyph-name="K" unicode="K" horiz-adv-x="612" 
d="M252 332l355 -332h-120l-312 287v-287h-90v664h90v-287l312 287h120z" />
    <glyph glyph-name="L" unicode="L" horiz-adv-x="565" 
d="M175 664v-580h360v-84h-450v664h90z" />
    <glyph glyph-name="M" unicode="M" horiz-adv-x="956" 
d="M759 664h112v-664h-90v516l-252 -516h-102l-252 516v-516h-90v664h114l280 -574z" />
    <glyph glyph-name="N" unicode="N" horiz-adv-x="766" 
d="M591 664h90v-664h-101l-405 536v-536h-90v664h101l405 -536v536z" />
    <glyph glyph-name="O" unicode="O" horiz-adv-x="772" 
d="M386 677q145 0 243 -99t98 -246t-98 -246t-243 -99t-243 99t-98 246t98 246t243 99zM386 593q-107 0 -179 -74.5t-72 -186.5t72 -186.5t179 -74.5t179 74.5t72 186.5t-72 186.5t-179 74.5z" />
    <glyph glyph-name="P" unicode="P" horiz-adv-x="660" 
d="M620 469q0 -92 -58 -143.5t-154 -51.5h-233v-274h-90v664h323q96 0 154 -51.5t58 -143.5zM530 469q0 53 -33.5 82t-88.5 29h-233v-222h233q55 0 88.5 29t33.5 82z" />
    <glyph glyph-name="Q" unicode="Q" horiz-adv-x="772" 
d="M386 677q145 0 243 -99t98 -246q0 -153 -107 -254l70 -91h-110l-31 40q-73 -40 -163 -40q-145 0 -243 99t-98 246t98 246t243 99zM361 274h110l96 -126q70 77 70 184q0 112 -72 186.5t-179 74.5t-179 -74.5t-72 -186.5t72 -186.5t179 -74.5q60 0 111 25z" />
    <glyph glyph-name="R" unicode="R" horiz-adv-x="663" 
d="M620 469q0 -87 -52 -138t-139 -57l209 -274h-112l-209 274h-142v-274h-90v664h323q96 0 154 -51.5t58 -143.5zM530 469q0 53 -33.5 82t-88.5 29h-233v-222h233q55 0 88.5 29t33.5 82z" />
    <glyph glyph-name="S" unicode="S" horiz-adv-x="614" 
d="M25 165h98q24 -43 74.5 -68.5t115.5 -25.5q75 0 124 31.5t49 79.5q0 47 -34 72t-107 33l-116 12q-95 9 -140.5 57t-45.5 122q0 89 69.5 144t186.5 55q112 0 182.5 -53t97.5 -125h-98q-20 42 -70 68t-115 26q-75 0 -119 -32t-44 -79q0 -89 123 -101l125 -13
q92 -10 143.5 -58t51.5 -123q0 -80 -70 -140t-193 -60q-120 0 -191 51.5t-97 126.5z" />
    <glyph glyph-name="T" unicode="T" horiz-adv-x="600" 
d="M25 664h550v-84h-230v-580h-90v580h-230v84z" />
    <glyph glyph-name="U" unicode="U" horiz-adv-x="736" 
d="M80 275v389h90v-389q0 -100 52 -152t146 -52t146 52t52 152v389h90v-389q0 -137 -77.5 -212.5t-210.5 -75.5t-210.5 75.5t-77.5 212.5z" />
    <glyph glyph-name="V" unicode="V" horiz-adv-x="674" 
d="M101 664l237 -566l237 566h94l-283 -664h-99l-282 664h96z" />
    <glyph glyph-name="W" unicode="W" horiz-adv-x="1058" 
d="M10 664h97l186 -548l183 548h105l187 -547l184 547h96l-226 -664h-105l-189 558l-185 -558h-105z" />
    <glyph glyph-name="X" unicode="X" horiz-adv-x="610" 
d="M493 0l-188 261l-188 -261h-102l238 332l-238 332h103l187 -260l187 260h103l-239 -332l239 -332h-102z" />
    <glyph glyph-name="Y" unicode="Y" horiz-adv-x="590" 
d="M296 331l198 333h96l-250 -417v-247h-90v247l-250 417h99z" />
    <glyph glyph-name="Z" unicode="Z" horiz-adv-x="638" 
d="M583 664v-87l-421 -493h421v-84h-527v86l420 494h-421v84h528z" />
    <glyph glyph-name="bracketleft" unicode="[" horiz-adv-x="381" 
d="M191 590v-672h161v-74h-247v820h247v-74h-161z" />
    <glyph glyph-name="backslash" unicode="\" horiz-adv-x="360" 
d="M94 664l261 -744h-88l-262 744h89z" />
    <glyph glyph-name="bracketright" unicode="]" horiz-adv-x="381" 
d="M190 -82v672h-161v74h247v-820h-247v74h161z" />
    <glyph glyph-name="asciicircum" unicode="^" horiz-adv-x="570" 
d="M149 314h-94l182 350h96l182 -350h-94l-136 262z" />
    <glyph glyph-name="underscore" unicode="_" horiz-adv-x="494" 
d="M-4 -117v81h502v-81h-502z" />
    <glyph glyph-name="grave" unicode="`" horiz-adv-x="356" 
d="M60 719h94l142 -185h-94z" />
    <glyph glyph-name="a" unicode="a" horiz-adv-x="554" 
d="M264 473q100 0 160 -47.5t60 -132.5v-293h-86v50q-58 -63 -160 -63q-84 0 -135.5 39t-51.5 114q0 78 56.5 113.5t145.5 35.5h145q0 104 -134 104q-44 0 -79.5 -17.5t-49.5 -49.5h-95q19 69 81 108t143 39zM398 184v30h-146q-115 0 -115 -74q0 -73 110 -73q69 0 110 32.5
t41 84.5z" />
    <glyph glyph-name="b" unicode="b" horiz-adv-x="604" 
d="M80 669h86v-259q57 63 155 63q109 0 171 -71t62 -172t-62 -172t-171 -71q-98 0 -155 63v-50h-86v669zM163 230q0 -78 45.5 -120.5t109.5 -42.5q65 0 107.5 47.5t42.5 115.5t-42.5 115.5t-107.5 47.5q-64 0 -109.5 -42.5t-45.5 -120.5z" />
    <glyph glyph-name="c" unicode="c" horiz-adv-x="552" 
d="M507 326h-94q-39 67 -123 67q-67 0 -110.5 -46.5t-43.5 -116.5t43.5 -116.5t110.5 -46.5q84 0 123 67h94q-25 -68 -83 -107.5t-134 -39.5q-102 0 -171 69.5t-69 173.5t69 173.5t171 69.5q76 0 134 -39.5t83 -107.5z" />
    <glyph glyph-name="d" unicode="d" horiz-adv-x="604" 
d="M438 669h86v-669h-86v50q-57 -63 -155 -63q-109 0 -171 71t-62 172t62 172t171 71q98 0 155 -63v259zM441 230q0 78 -45.5 120.5t-109.5 42.5q-65 0 -107.5 -47.5t-42.5 -115.5t42.5 -115.5t107.5 -47.5q64 0 109.5 42.5t45.5 120.5z" />
    <glyph glyph-name="e" unicode="e" horiz-adv-x="562" 
d="M291 67q86 0 122 62h93q-24 -66 -81.5 -104t-133.5 -38q-104 0 -172.5 69t-68.5 175q0 104 66.5 173t169.5 69q97 0 161.5 -68.5t64.5 -168.5q0 -29 -2 -38h-371q8 -57 50.5 -94t101.5 -37zM286 393q-59 0 -98.5 -32.5t-47.5 -87.5h282q-8 55 -44 87.5t-92 32.5z" />
    <glyph glyph-name="f" unicode="f" horiz-adv-x="353" 
d="M186 0h-86v384h-85v76h85v61q0 73 42.5 110.5t119.5 37.5h71v-76h-63q-44 0 -64 -22t-20 -68v-43h147v-76h-147v-384z" />
    <glyph glyph-name="g" unicode="g" horiz-adv-x="604" 
d="M438 460h86v-438q0 -110 -62.5 -174.5t-173.5 -64.5q-76 0 -138 39t-89 109h94q38 -68 133 -68q71 0 110.5 44t39.5 117v26q-57 -63 -155 -63q-109 0 -171 71t-62 172t62 172t171 71q98 0 155 -63v50zM441 230q0 78 -45.5 120.5t-109.5 42.5q-65 0 -107.5 -47.5
t-42.5 -115.5t42.5 -115.5t107.5 -47.5q64 0 109.5 42.5t45.5 120.5z" />
    <glyph glyph-name="h" unicode="h" horiz-adv-x="591" 
d="M321 473q93 0 146.5 -56t53.5 -146v-271h-86v264q0 59 -31 94t-92 35q-59 0 -102.5 -42t-43.5 -112v-239h-86v669h86v-259q53 63 155 63z" />
    <glyph glyph-name="i" unicode="i" horiz-adv-x="250" 
d="M82 460h86v-460h-86v460zM75 565v104h100v-104h-100z" />
    <glyph glyph-name="j" unicode="j" horiz-adv-x="265" 
d="M90 565v104h100v-104h-100zM97 460h86v-516q0 -73 -42.5 -110.5t-119.5 -37.5h-71v76h63q44 0 64 22t20 68v498z" />
    <glyph glyph-name="k" unicode="k" horiz-adv-x="507" 
d="M80 669h86v-410l221 201h115l-255 -230l255 -230h-115l-221 189v-189h-86v669z" />
    <glyph glyph-name="l" unicode="l" horiz-adv-x="246" 
d="M80 669h86v-669h-86v669z" />
    <glyph glyph-name="m" unicode="m" horiz-adv-x="931" 
d="M775 0v268q0 58 -30.5 91.5t-89.5 33.5q-57 0 -99.5 -41.5t-42.5 -110.5v-241h-86v268q0 58 -30.5 91.5t-89.5 33.5q-57 0 -99 -41t-42 -108v-244h-86v460h86v-50q52 63 148 63q116 0 171 -86q66 86 177 86q92 0 145.5 -55t53.5 -144v-274h-86z" />
    <glyph glyph-name="n" unicode="n" horiz-adv-x="591" 
d="M321 473q93 0 146.5 -56t53.5 -146v-271h-86v264q0 59 -31 94t-92 35q-59 0 -102.5 -42t-43.5 -112v-239h-86v460h86v-50q53 63 155 63z" />
    <glyph glyph-name="o" unicode="o" horiz-adv-x="582" 
d="M291 473q103 0 172 -69.5t69 -173.5t-69 -173.5t-172 -69.5q-104 0 -172.5 69.5t-68.5 173.5t68.5 173.5t172.5 69.5zM291 67q67 0 111 47t44 116q0 70 -43.5 116.5t-111.5 46.5t-111.5 -46.5t-43.5 -116.5q0 -69 44 -116t111 -47z" />
    <glyph glyph-name="p" unicode="p" horiz-adv-x="604" 
d="M166 -204h-86v664h86v-50q57 63 155 63q109 0 171 -71t62 -172t-62 -172t-171 -71q-98 0 -155 63v-254zM163 230q0 -78 45.5 -120.5t109.5 -42.5q65 0 107.5 47.5t42.5 115.5t-42.5 115.5t-107.5 47.5q-64 0 -109.5 -42.5t-45.5 -120.5z" />
    <glyph glyph-name="q" unicode="q" horiz-adv-x="604" 
d="M524 -204h-86v254q-57 -63 -155 -63q-109 0 -171 71t-62 172t62 172t171 71q98 0 155 -63v50h86v-664zM441 230q0 78 -45.5 120.5t-109.5 42.5q-65 0 -107.5 -47.5t-42.5 -115.5t42.5 -115.5t107.5 -47.5q64 0 109.5 42.5t45.5 120.5z" />
    <glyph glyph-name="r" unicode="r" horiz-adv-x="395" 
d="M80 460h86v-65q48 69 162 69h27v-82h-27q-75 0 -118.5 -44t-43.5 -117v-221h-86v460z" />
    <glyph glyph-name="s" unicode="s" horiz-adv-x="520" 
d="M485 330h-94q-30 63 -139 63q-51 0 -81 -17t-30 -46q0 -28 23.5 -41t71.5 -17l93 -7q151 -13 151 -134q0 -61 -55.5 -102.5t-148.5 -41.5q-96 0 -158.5 42t-77.5 105h94q29 -67 153 -67q46 0 76.5 16.5t30.5 45.5q0 28 -23.5 41.5t-72.5 17.5l-96 8q-147 14 -147 131
q0 62 54.5 104t143.5 42q97 0 156 -40.5t76 -102.5z" />
    <glyph glyph-name="t" unicode="t" horiz-adv-x="393" 
d="M115 586h86v-126h147v-76h-147v-218q0 -46 20 -68t64 -22h63v-76h-71q-77 0 -119.5 37.5t-42.5 110.5v236h-85v76h85v126z" />
    <glyph glyph-name="u" unicode="u" horiz-adv-x="585" 
d="M267 -13q-91 0 -144 56t-53 146v271h86v-264q0 -59 30.5 -94t89.5 -35q58 0 100.5 42t42.5 112v239h86v-460h-86v50q-53 -63 -152 -63z" />
    <glyph glyph-name="v" unicode="v" horiz-adv-x="517" 
d="M507 460l-206 -460h-85l-206 460h97l154 -347l155 347h91z" />
    <glyph glyph-name="w" unicode="w" horiz-adv-x="835" 
d="M20 460h92l131 -350l131 350h92l130 -350l132 350h87l-172 -460h-94l-132 350l-132 -350h-93z" />
    <glyph glyph-name="x" unicode="x" horiz-adv-x="521" 
d="M499 460l-187 -227l189 -233h-105l-138 169l-139 -169h-99l188 230l-186 230h107l133 -165l134 165h103z" />
    <glyph glyph-name="y" unicode="y" horiz-adv-x="523" 
d="M216 6l-203 454h97l154 -347l155 347h91l-217 -485q-47 -108 -68 -134q-32 -41 -95 -44q-9 -1 -21 -1h-44v76h28q40 0 60 18t44 72z" />
    <glyph glyph-name="z" unicode="z" horiz-adv-x="496" 
d="M451 0h-406v76l292 308h-292v76h401v-76l-293 -308h298v-76z" />
    <glyph glyph-name="braceleft" unicode="{" horiz-adv-x="367" 
d="M227 514v-141q0 -79 -77 -118q77 -39 77 -118v-143q0 -76 81 -76h40v-74h-50q-71 0 -114 36.5t-43 107.5v132q0 42 -28 68t-75 31v72q47 5 75 31t28 68v130q0 71 43 107.5t114 36.5h50v-74h-40q-81 0 -81 -76z" />
    <glyph glyph-name="bar" unicode="|" horiz-adv-x="226" 
d="M156 664v-820h-86v820h86z" />
    <glyph glyph-name="braceright" unicode="}" horiz-adv-x="367" 
d="M140 373v141q0 76 -81 76h-40v74h50q71 0 114 -36.5t43 -107.5v-130q0 -42 28 -68t75 -31v-72q-47 -5 -75 -31t-28 -68v-132q0 -71 -43 -107.5t-114 -36.5h-50v74h40q81 0 81 76v143q0 79 77 118q-77 39 -77 118z" />
    <glyph glyph-name="asciitilde" unicode="~" horiz-adv-x="545" 
d="M363 253q25 0 36 19.5t11 64.5h80q0 -77 -33 -120.5t-93 -43.5q-34 0 -69 21t-64.5 42t-48.5 21q-25 0 -36 -19.5t-11 -64.5h-80q0 77 33 120.5t93 43.5q34 0 70 -21t65 -42t47 -21z" />
    <glyph glyph-name="nbspace" unicode="&#xa0;" horiz-adv-x="230" 
 />
    <glyph glyph-name="exclamdown" unicode="&#xa1;" horiz-adv-x="324" 
d="M207 261v-465h-90v465h90zM110 356v104h104v-104h-104z" />
    <glyph glyph-name="cent" unicode="&#xa2;" horiz-adv-x="552" 
d="M242 468v113h86v-111q62 -9 109.5 -47.5t69.5 -96.5h-95q-39 67 -122 67q-67 0 -110.5 -46.5t-43.5 -116.5t43.5 -116.5t110.5 -46.5q83 0 122 67h95q-22 -59 -69 -97t-110 -47v-110h-86v112q-86 17 -139 82t-53 156t53 156t139 82z" />
    <glyph glyph-name="sterling" unicode="&#xa3;" horiz-adv-x="588" 
d="M46 0v84q87 2 87 81v127h-88v76h88v109q0 80 55.5 140t152.5 60q78 0 130 -46.5t72 -115.5h-92q-33 78 -113 78q-55 0 -85 -32t-30 -84v-109h185v-76h-185v-131q0 -64 -39 -77h359v-84h-497z" />
    <glyph glyph-name="currency" unicode="&#xa4;" horiz-adv-x="591" 
d="M540 166l-61 -61l-69 69q-50 -34 -114 -34q-65 0 -115 34l-70 -70l-60 61l69 70q-34 53 -34 114q0 62 34 115l-70 71l60 60l71 -71q50 35 115 35q64 0 114 -35l70 70l61 -60l-70 -70q34 -53 34 -115q0 -61 -34 -114zM418 349q0 51 -35.5 86.5t-86.5 35.5t-87 -35.5
t-36 -86.5t36 -86.5t87 -35.5t86.5 35.5t35.5 86.5z" />
    <glyph glyph-name="yen" unicode="&#xa5;" horiz-adv-x="590" 
d="M296 331l198 333h96l-151 -252h102v-76h-148l-41 -69h189v-76h-201v-191h-90v191h-201v76h189l-42 69h-147v76h102l-151 252h99z" />
    <glyph glyph-name="brokenbar" unicode="&#xa6;" horiz-adv-x="226" 
d="M156 185v-341h-86v341h86zM156 664v-341h-86v341h86z" />
    <glyph glyph-name="section" unicode="&#xa7;" horiz-adv-x="590" 
d="M540 225q0 -97 -123 -138q70 -47 70 -132q0 -81 -57 -126t-133 -45q-81 0 -133.5 40t-73.5 114h92q29 -71 112 -71q47 0 75 25t28 59q0 41 -29 63.5t-109 42.5q-107 26 -158.5 66t-51.5 114q0 99 123 138q-70 47 -70 131q0 81 57 126t134 45q80 0 132.5 -40.5
t73.5 -113.5h-92q-26 70 -111 70q-48 0 -76 -24.5t-28 -58.5q0 -41 29 -63t109 -42q107 -26 158.5 -66t51.5 -114zM313 144q53 0 95 21t42 62q0 43 -50 67t-123 24q-55 0 -96.5 -20.5t-41.5 -62.5t50.5 -66.5t123.5 -24.5z" />
    <glyph glyph-name="dieresis" unicode="&#xa8;" horiz-adv-x="399" 
d="M243 565v99h96v-99h-96zM60 565v99h96v-99h-96z" />
    <glyph glyph-name="copyright" unicode="&#xa9;" horiz-adv-x="830" 
d="M415 677q143 0 244 -101.5t101 -243.5t-101 -243.5t-244 -101.5t-244 101.5t-101 243.5t101 243.5t244 101.5zM415 47q118 0 201.5 83.5t83.5 201.5t-83.5 201.5t-201.5 83.5t-201.5 -83.5t-83.5 -201.5t83.5 -201.5t201.5 -83.5zM426 459q-52 0 -86.5 -36t-34.5 -92
q0 -54 34.5 -89.5t86.5 -35.5q57 0 93 48h75q-25 -52 -68.5 -82.5t-99.5 -30.5q-80 0 -134.5 54.5t-54.5 135.5q0 82 54.5 137.5t134.5 55.5q56 0 99.5 -31t68.5 -83h-75q-36 49 -93 49z" />
    <glyph glyph-name="ordfeminine" unicode="&#xaa;" horiz-adv-x="412" 
d="M286 470v18h-96q-76 0 -76 -48q0 -47 71 -47q46 0 73.5 21t27.5 56zM197 671q70 0 112.5 -33t42.5 -93v-203h-66v34q-40 -43 -109 -43q-59 0 -94 27.5t-35 79.5q0 55 40 79t103 24h95q0 68 -89 68q-69 0 -85 -45h-72q14 52 56 78.5t101 26.5z" />
    <glyph glyph-name="guillemotleft" unicode="&#xab;" horiz-adv-x="547" 
d="M405 424h112l-170 -189l170 -189h-112l-132 146v86zM182 424h112l-170 -189l170 -189h-112l-132 146v86z" />
    <glyph glyph-name="logicalnot" unicode="&#xac;" horiz-adv-x="545" 
d="M490 377v-249h-81v168h-354v81h435z" />
    <glyph glyph-name="uni00AD" unicode="&#xad;" horiz-adv-x="400" 
d="M70 296h260v-81h-260v81z" />
    <glyph glyph-name="registered" unicode="&#xae;" horiz-adv-x="830" 
d="M415 677q143 0 244 -101.5t101 -243.5t-101 -243.5t-244 -101.5t-244 101.5t-101 243.5t101 243.5t244 101.5zM415 47q118 0 201.5 83.5t83.5 201.5t-83.5 201.5t-201.5 83.5t-201.5 -83.5t-83.5 -201.5t83.5 -201.5t201.5 -83.5zM576 404q0 -43 -25 -73t-74 -38
l111 -145h-84l-110 143h-44v-143h-68v369h166q63 0 95.5 -32t32.5 -81zM508 404q0 23 -14 35.5t-38 12.5h-106v-96h106q24 0 38 12.5t14 35.5z" />
    <glyph glyph-name="macron" unicode="&#xaf;" horiz-adv-x="471" 
d="M60 639h351v-74h-351v74z" />
    <glyph glyph-name="degree" unicode="&#xb0;" horiz-adv-x="440" 
d="M220 671q72 0 121 -48.5t49 -117.5t-49 -117.5t-121 -48.5t-121 48.5t-49 117.5t49 117.5t121 48.5zM220 414q38 0 63.5 27t25.5 64q0 38 -25.5 65t-63.5 27t-63.5 -27t-25.5 -65q0 -37 25.5 -64t63.5 -27z" />
    <glyph glyph-name="plusminus" unicode="&#xb1;" horiz-adv-x="545" 
d="M55 355h177v144h81v-144h177v-81h-177v-144h-81v144h-177v81zM55 81h435v-81h-435v81z" />
    <glyph glyph-name="twosuperior" unicode="&#xb2;" horiz-adv-x="361" 
d="M157 386h154v-60h-250v60l138 118q37 33 37 59q0 22 -16 35.5t-40 13.5q-53 0 -64 -49h-68q9 50 43.5 79.5t86.5 29.5q57 0 91 -29t34 -79q0 -54 -50 -96z" />
    <glyph glyph-name="threesuperior" unicode="&#xb3;" horiz-adv-x="362" 
d="M50 423h66q13 -44 68 -44q28 0 44.5 12.5t16.5 32.5q0 43 -58 43h-45v61h44q58 0 58 41q0 20 -16 31.5t-44 11.5q-54 0 -67 -42h-67q9 52 45.5 77t87.5 25q57 0 92.5 -30t35.5 -73q0 -45 -40 -71q41 -25 41 -74q0 -44 -35.5 -74.5t-93.5 -30.5q-51 0 -87.5 26t-45.5 78z
" />
    <glyph glyph-name="acute" unicode="&#xb4;" horiz-adv-x="356" 
d="M202 719h94l-142 -185h-94z" />
    <glyph glyph-name="mu" unicode="&#xb5;" horiz-adv-x="595" 
d="M277 -13q-64 0 -111 29v-220h-86v664h86v-264q0 -59 30.5 -94t89.5 -35q58 0 100.5 42t42.5 112v239h86v-460h-86v50q-53 -63 -152 -63z" />
    <glyph glyph-name="paragraph" unicode="&#xb6;" horiz-adv-x="623" 
d="M270 -156v433h-20q-91 0 -150.5 51.5t-59.5 142.5q0 90 60 141.5t150 51.5h106v-820h-86zM452 -156v820h86v-820h-86z" />
    <glyph glyph-name="periodcentered" unicode="&#xb7;" horiz-adv-x="231" 
d="M60 204v111h111v-111h-111z" />
    <glyph glyph-name="cedilla" unicode="&#xb8;" horiz-adv-x="355" 
d="M202 0h93l-141 -184h-94z" />
    <glyph glyph-name="onesuperior" unicode="&#xb9;" horiz-adv-x="261" 
d="M114 326v262l-74 -64v78l71 63h70v-339h-67z" />
    <glyph glyph-name="ordmasculine" unicode="&#xba;" horiz-adv-x="438" 
d="M388 502q0 -72 -48.5 -120.5t-120.5 -48.5t-120.5 48.5t-48.5 120.5t48.5 120.5t120.5 48.5t120.5 -48.5t48.5 -120.5zM322 502q0 48 -29 78.5t-74 30.5t-74 -30.5t-29 -78.5t29 -78.5t74 -30.5t74 30.5t29 78.5z" />
    <glyph glyph-name="guillemotright" unicode="&#xbb;" horiz-adv-x="547" 
d="M253 424h112l132 -146v-86l-132 -146h-112l170 189zM30 424h112l132 -146v-86l-132 -146h-112l170 189z" />
    <glyph glyph-name="onequarter" unicode="&#xbc;" horiz-adv-x="742" 
d="M117 0l385 664h80l-386 -664h-79zM569 212h66v-81h57v-59h-57v-72h-66v72h-181v59l167 208h78l-167 -208h103v81zM114 325v262l-74 -64v78l71 63h70v-339h-67z" />
    <glyph glyph-name="onehalf" unicode="&#xbd;" horiz-adv-x="762" 
d="M558 60h154v-60h-250v60l138 118q37 33 37 59q0 22 -16 35.5t-40 13.5q-53 0 -64 -49h-68q9 50 43.5 79.5t86.5 29.5q57 0 91 -29t34 -79q0 -54 -50 -96zM117 0l385 664h80l-386 -664h-79zM114 325v262l-74 -64v78l71 63h70v-339h-67z" />
    <glyph glyph-name="threequarters" unicode="&#xbe;" horiz-adv-x="816" 
d="M50 422h66q13 -44 68 -44q28 0 44.5 12.5t16.5 32.5q0 43 -58 43h-45v61h44q58 0 58 41q0 20 -16 31.5t-44 11.5q-54 0 -67 -42h-67q9 52 45.5 77t87.5 25q57 0 92.5 -30t35.5 -73q0 -45 -40 -71q41 -25 41 -74q0 -44 -35.5 -74.5t-93.5 -30.5q-51 0 -87.5 26t-45.5 78z
M191 0l385 664h80l-386 -664h-79zM643 212h66v-81h57v-59h-57v-72h-66v72h-181v59l167 208h78l-167 -208h103v81z" />
    <glyph glyph-name="questiondown" unicode="&#xbf;" horiz-adv-x="524" 
d="M325 460v-104h-104v104h104zM259 -217q-96 0 -147.5 48t-51.5 116q0 40 14 71t30.5 46.5t53.5 46.5l14 11q35 27 45.5 46.5t10.5 55.5v37h90v-37q0 -60 -18.5 -93t-80.5 -78q-35 -26 -52 -49t-17 -53q0 -39 30.5 -61.5t78.5 -22.5q100 0 127 90h98q-17 -75 -76 -124.5
t-149 -49.5z" />
    <glyph glyph-name="Agrave" unicode="&#xc0;" horiz-adv-x="681" 
d="M160 154l-67 -154h-93l292 664h98l291 -664h-96l-67 154h-358zM482 237l-143 329l-143 -329h286zM148 891h94l142 -166h-94z" />
    <glyph glyph-name="Aacute" unicode="&#xc1;" horiz-adv-x="681" 
d="M160 154l-67 -154h-93l292 664h98l291 -664h-96l-67 154h-358zM482 237l-143 329l-143 -329h286zM440 891h94l-142 -166h-94z" />
    <glyph glyph-name="Acircumflex" unicode="&#xc2;" horiz-adv-x="681" 
d="M160 154l-67 -154h-93l292 664h98l291 -664h-96l-67 154h-358zM482 237l-143 329l-143 -329h286zM144 725l150 166h93l150 -166h-94l-102 111l-102 -111h-95z" />
    <glyph glyph-name="Atilde" unicode="&#xc3;" horiz-adv-x="681" 
d="M160 154l-67 -154h-93l292 664h98l291 -664h-96l-67 154h-358zM482 237l-143 329l-143 -329h286zM418 800q43 0 43 90h72q0 -77 -30.5 -120.5t-85.5 -43.5q-29 0 -58.5 22.5t-54 45t-41.5 22.5q-43 0 -43 -90h-72q0 76 31 120t85 44q30 0 60 -22.5t54.5 -45t39.5 -22.5z
" />
    <glyph glyph-name="Adieresis" unicode="&#xc4;" horiz-adv-x="681" 
d="M160 154l-67 -154h-93l292 664h98l291 -664h-96l-67 154h-358zM482 237l-143 329l-143 -329h286zM384 744v100h96v-100h-96zM201 744v100h96v-100h-96z" />
    <glyph glyph-name="Aring" unicode="&#xc5;" horiz-adv-x="681" 
d="M160 154l-67 -154h-93l292 664h98l291 -664h-96l-67 154h-358zM482 237l-143 329l-143 -329h286zM205 845q0 56 39.5 95.5t95.5 39.5t95.5 -39.5t39.5 -95.5t-39.5 -95.5t-95.5 -39.5t-95.5 39.5t-39.5 95.5zM275 845q0 -28 18.5 -46.5t46.5 -18.5t46.5 18.5t18.5 46.5
t-18.5 46.5t-46.5 18.5t-46.5 -18.5t-18.5 -46.5z" />
    <glyph glyph-name="AE" unicode="&#xc6;" horiz-adv-x="997" 
d="M932 580h-360v-206h353v-84h-353v-206h360v-84h-450v154h-277l-109 -154h-106l473 664h469v-84zM263 237h219v309z" />
    <glyph glyph-name="Ccedilla" unicode="&#xc7;" horiz-adv-x="715" 
d="M386 593q-107 0 -179 -74.5t-72 -186.5t72 -186.5t179 -74.5q119 0 187 94h102q-76 -153 -243 -175l-133 -174h-94l134 174q-128 16 -211 112t-83 230q0 147 98 246t243 99q99 0 173.5 -47.5t115.5 -130.5h-102q-68 94 -187 94z" />
    <glyph glyph-name="Egrave" unicode="&#xc8;" horiz-adv-x="600" 
d="M535 580h-360v-206h353v-84h-353v-206h360v-84h-450v664h450v-84zM154 891h94l142 -166h-94z" />
    <glyph glyph-name="Eacute" unicode="&#xc9;" horiz-adv-x="600" 
d="M535 580h-360v-206h353v-84h-353v-206h360v-84h-450v664h450v-84zM391 891h94l-142 -166h-94z" />
    <glyph glyph-name="Ecircumflex" unicode="&#xca;" horiz-adv-x="600" 
d="M535 580h-360v-206h353v-84h-353v-206h360v-84h-450v664h450v-84zM114 725l150 166h93l150 -166h-94l-102 111l-102 -111h-95z" />
    <glyph glyph-name="Edieresis" unicode="&#xcb;" horiz-adv-x="600" 
d="M535 580h-360v-206h353v-84h-353v-206h360v-84h-450v664h450v-84zM354 744v100h96v-100h-96zM171 744v100h96v-100h-96z" />
    <glyph glyph-name="Igrave" unicode="&#xcc;" horiz-adv-x="260" 
d="M175 664v-664h-90v664h90zM-57 891h94l142 -166h-94z" />
    <glyph glyph-name="Iacute" unicode="&#xcd;" horiz-adv-x="260" 
d="M175 664v-664h-90v664h90zM224 891h94l-142 -166h-94z" />
    <glyph glyph-name="Icircumflex" unicode="&#xce;" horiz-adv-x="260" 
d="M175 664v-664h-90v664h90zM-65 725l150 166h93l150 -166h-94l-102 111l-102 -111h-95z" />
    <glyph glyph-name="Idieresis" unicode="&#xcf;" horiz-adv-x="260" 
d="M175 664v-664h-90v664h90zM175 744v100h96v-100h-96zM-8 744v100h96v-100h-96z" />
    <glyph glyph-name="Eth" unicode="&#xd0;" horiz-adv-x="743" 
d="M111 664h223q168 0 266 -95.5t98 -236.5t-98 -236.5t-266 -95.5h-223v290h-91v84h91v290zM608 332q0 112 -72 180t-196 68h-139v-206h220v-84h-220v-206h139q124 0 196 68t72 180z" />
    <glyph glyph-name="Ntilde" unicode="&#xd1;" horiz-adv-x="766" 
d="M591 664h90v-664h-101l-405 536v-536h-90v664h101l405 -536v536zM461 800q43 0 43 90h72q0 -77 -30.5 -120.5t-85.5 -43.5q-29 0 -58.5 22.5t-54 45t-41.5 22.5q-43 0 -43 -90h-72q0 76 31 120t85 44q30 0 60 -22.5t54.5 -45t39.5 -22.5z" />
    <glyph glyph-name="Ograve" unicode="&#xd2;" horiz-adv-x="772" 
d="M386 677q145 0 243 -99t98 -246t-98 -246t-243 -99t-243 99t-98 246t98 246t243 99zM386 593q-107 0 -179 -74.5t-72 -186.5t72 -186.5t179 -74.5t179 74.5t72 186.5t-72 186.5t-179 74.5zM216 891h94l142 -166h-94z" />
    <glyph glyph-name="Oacute" unicode="&#xd3;" horiz-adv-x="772" 
d="M386 677q145 0 243 -99t98 -246t-98 -246t-243 -99t-243 99t-98 246t98 246t243 99zM386 593q-107 0 -179 -74.5t-72 -186.5t72 -186.5t179 -74.5t179 74.5t72 186.5t-72 186.5t-179 74.5zM463 891h94l-142 -166h-94z" />
    <glyph glyph-name="Ocircumflex" unicode="&#xd4;" horiz-adv-x="772" 
d="M386 677q145 0 243 -99t98 -246t-98 -246t-243 -99t-243 99t-98 246t98 246t243 99zM386 593q-107 0 -179 -74.5t-72 -186.5t72 -186.5t179 -74.5t179 74.5t72 186.5t-72 186.5t-179 74.5zM190 725l150 166h93l150 -166h-94l-102 111l-102 -111h-95z" />
    <glyph glyph-name="Otilde" unicode="&#xd5;" horiz-adv-x="772" 
d="M386 677q145 0 243 -99t98 -246t-98 -246t-243 -99t-243 99t-98 246t98 246t243 99zM386 593q-107 0 -179 -74.5t-72 -186.5t72 -186.5t179 -74.5t179 74.5t72 186.5t-72 186.5t-179 74.5zM464 800q43 0 43 90h72q0 -77 -30.5 -120.5t-85.5 -43.5q-29 0 -58.5 22.5
t-54 45t-41.5 22.5q-43 0 -43 -90h-72q0 76 31 120t85 44q30 0 60 -22.5t54.5 -45t39.5 -22.5z" />
    <glyph glyph-name="Odieresis" unicode="&#xd6;" horiz-adv-x="772" 
d="M386 677q145 0 243 -99t98 -246t-98 -246t-243 -99t-243 99t-98 246t98 246t243 99zM386 593q-107 0 -179 -74.5t-72 -186.5t72 -186.5t179 -74.5t179 74.5t72 186.5t-72 186.5t-179 74.5zM430 744v100h96v-100h-96zM247 744v100h96v-100h-96z" />
    <glyph glyph-name="multiply" unicode="&#xd7;" horiz-adv-x="517" 
d="M112 459l146 -146l147 146l57 -57l-146 -147l146 -146l-57 -57l-147 146l-146 -146l-57 57l146 146l-146 147z" />
    <glyph glyph-name="Oslash" unicode="&#xd8;" horiz-adv-x="794" 
d="M397 677q109 0 198 -62l54 62h105l-101 -114q85 -98 85 -231q0 -147 -98 -246t-243 -99q-110 0 -198 61l-54 -61h-105l100 113q-84 97 -84 232q0 147 98 246t243 99zM397 593q-107 0 -179 -74.5t-72 -186.5q0 -94 53 -165l339 384q-62 42 -141 42zM648 332q0 93 -53 164
l-339 -383q61 -42 141 -42q107 0 179 74.5t72 186.5z" />
    <glyph glyph-name="Ugrave" unicode="&#xd9;" horiz-adv-x="736" 
d="M80 275v389h90v-389q0 -100 52 -152t146 -52t146 52t52 152v389h90v-389q0 -137 -77.5 -212.5t-210.5 -75.5t-210.5 75.5t-77.5 212.5zM190 891h94l142 -166h-94z" />
    <glyph glyph-name="Uacute" unicode="&#xda;" horiz-adv-x="736" 
d="M80 275v389h90v-389q0 -100 52 -152t146 -52t146 52t52 152v389h90v-389q0 -137 -77.5 -212.5t-210.5 -75.5t-210.5 75.5t-77.5 212.5zM449 891h94l-142 -166h-94z" />
    <glyph glyph-name="Ucircumflex" unicode="&#xdb;" horiz-adv-x="736" 
d="M80 275v389h90v-389q0 -100 52 -152t146 -52t146 52t52 152v389h90v-389q0 -137 -77.5 -212.5t-210.5 -75.5t-210.5 75.5t-77.5 212.5zM172 725l150 166h93l150 -166h-94l-102 111l-102 -111h-95z" />
    <glyph glyph-name="Udieresis" unicode="&#xdc;" horiz-adv-x="736" 
d="M80 275v389h90v-389q0 -100 52 -152t146 -52t146 52t52 152v389h90v-389q0 -137 -77.5 -212.5t-210.5 -75.5t-210.5 75.5t-77.5 212.5zM412 744v100h96v-100h-96zM229 744v100h96v-100h-96z" />
    <glyph glyph-name="Yacute" unicode="&#xdd;" horiz-adv-x="590" 
d="M296 331l198 333h96l-250 -417v-247h-90v247l-250 417h99zM385 891h94l-142 -166h-94z" />
    <glyph glyph-name="Thorn" unicode="&#xde;" horiz-adv-x="660" 
d="M175 664v-131h223q109 0 165.5 -55t56.5 -140t-56.5 -140t-165.5 -55h-223v-143h-90v664h90zM530 338q0 54 -35 82.5t-97 28.5h-223v-222h223q62 0 97 28.5t35 82.5z" />
    <glyph glyph-name="germandbls" unicode="&#xdf;" horiz-adv-x="585" 
d="M301 602q-61 0 -98 -39.5t-37 -115.5v-447h-86v447q0 113 59 174t162 61q96 0 153.5 -54.5t57.5 -133.5q0 -105 -78 -152q38 -22 62 -64.5t24 -87.5q0 -82 -51.5 -136t-140.5 -54h-47v76h26q61 0 94 31.5t33 81.5t-34 82t-93 32h-26v76h28q58 0 88 29.5t30 81.5
q0 48 -34 80t-92 32z" />
    <glyph glyph-name="agrave" unicode="&#xe0;" horiz-adv-x="554" 
d="M264 473q100 0 160 -47.5t60 -132.5v-293h-86v50q-58 -63 -160 -63q-84 0 -135.5 39t-51.5 114q0 78 56.5 113.5t145.5 35.5h145q0 104 -134 104q-44 0 -79.5 -17.5t-49.5 -49.5h-95q19 69 81 108t143 39zM398 184v30h-146q-115 0 -115 -74q0 -73 110 -73q69 0 110 32.5
t41 84.5zM120 719h94l142 -185h-94z" />
    <glyph glyph-name="aacute" unicode="&#xe1;" horiz-adv-x="554" 
d="M264 473q100 0 160 -47.5t60 -132.5v-293h-86v50q-58 -63 -160 -63q-84 0 -135.5 39t-51.5 114q0 78 56.5 113.5t145.5 35.5h145q0 104 -134 104q-44 0 -79.5 -17.5t-49.5 -49.5h-95q19 69 81 108t143 39zM398 184v30h-146q-115 0 -115 -74q0 -73 110 -73q69 0 110 32.5
t41 84.5zM337 719h94l-142 -185h-94z" />
    <glyph glyph-name="acircumflex" unicode="&#xe2;" horiz-adv-x="554" 
d="M264 473q100 0 160 -47.5t60 -132.5v-293h-86v50q-58 -63 -160 -63q-84 0 -135.5 39t-51.5 114q0 78 56.5 113.5t145.5 35.5h145q0 104 -134 104q-44 0 -79.5 -17.5t-49.5 -49.5h-95q19 69 81 108t143 39zM398 184v30h-146q-115 0 -115 -74q0 -73 110 -73q69 0 110 32.5
t41 84.5zM76 534l149 185h95l149 -185h-92l-104 124l-104 -124h-93z" />
    <glyph glyph-name="atilde" unicode="&#xe3;" horiz-adv-x="554" 
d="M264 473q100 0 160 -47.5t60 -132.5v-293h-86v50q-58 -63 -160 -63q-84 0 -135.5 39t-51.5 114q0 78 56.5 113.5t145.5 35.5h145q0 104 -134 104q-44 0 -79.5 -17.5t-49.5 -49.5h-95q19 69 81 108t143 39zM398 184v30h-146q-115 0 -115 -74q0 -73 110 -73q69 0 110 32.5
t41 84.5zM349 610q43 0 43 90h72q0 -77 -30.5 -120.5t-85.5 -43.5q-29 0 -58.5 22.5t-54 45t-41.5 22.5q-43 0 -43 -90h-72q0 76 31 120t85 44q30 0 60 -22.5t54.5 -45t39.5 -22.5z" />
    <glyph glyph-name="adieresis" unicode="&#xe4;" horiz-adv-x="554" 
d="M264 473q100 0 160 -47.5t60 -132.5v-293h-86v50q-58 -63 -160 -63q-84 0 -135.5 39t-51.5 114q0 78 56.5 113.5t145.5 35.5h145q0 104 -134 104q-44 0 -79.5 -17.5t-49.5 -49.5h-95q19 69 81 108t143 39zM398 184v30h-146q-115 0 -115 -74q0 -73 110 -73q69 0 110 32.5
t41 84.5zM316 565v99h96v-99h-96zM133 565v99h96v-99h-96z" />
    <glyph glyph-name="aring" unicode="&#xe5;" horiz-adv-x="554" 
d="M264 473q100 0 160 -47.5t60 -132.5v-293h-86v50q-58 -63 -160 -63q-84 0 -135.5 39t-51.5 114q0 78 56.5 113.5t145.5 35.5h145q0 104 -134 104q-44 0 -79.5 -17.5t-49.5 -49.5h-95q19 69 81 108t143 39zM398 184v30h-146q-115 0 -115 -74q0 -73 110 -73q69 0 110 32.5
t41 84.5zM136 655q0 56 39.5 95.5t95.5 39.5t95.5 -39.5t39.5 -95.5t-39.5 -95.5t-95.5 -39.5t-95.5 39.5t-39.5 95.5zM206 655q0 -28 18.5 -46.5t46.5 -18.5t46.5 18.5t18.5 46.5t-18.5 46.5t-46.5 18.5t-46.5 -18.5t-18.5 -46.5z" />
    <glyph glyph-name="ae" unicode="&#xe6;" horiz-adv-x="907" 
d="M857 236q0 -29 -2 -38h-371q8 -57 50.5 -94t101.5 -37q86 0 122 62h93q-24 -66 -81.5 -104t-133.5 -38q-127 0 -194 94q-28 -41 -81.5 -67.5t-122.5 -26.5q-84 0 -135.5 39t-51.5 114q0 78 56.5 113.5t145.5 35.5h146q0 104 -135 104q-44 0 -79.5 -17.5t-49.5 -49.5h-95
q19 69 81 108t143 39q132 0 189 -78q70 78 178 78q97 0 161.5 -68.5t64.5 -168.5zM399 184v30h-147q-115 0 -115 -74q0 -73 110 -73q69 0 110.5 32.5t41.5 84.5zM485 273h282q-8 55 -44 87.5t-92 32.5q-59 0 -98.5 -32.5t-47.5 -87.5z" />
    <glyph glyph-name="ccedilla" unicode="&#xe7;" horiz-adv-x="552" 
d="M507 326h-94q-39 67 -123 67q-67 0 -110.5 -46.5t-43.5 -116.5t43.5 -116.5t110.5 -46.5q84 0 123 67h94q-20 -55 -63 -92t-101 -49l-135 -177h-94l134 174q-87 14 -142.5 80t-55.5 160q0 104 69 173.5t171 69.5q76 0 134 -39.5t83 -107.5z" />
    <glyph glyph-name="egrave" unicode="&#xe8;" horiz-adv-x="562" 
d="M291 67q86 0 122 62h93q-24 -66 -81.5 -104t-133.5 -38q-104 0 -172.5 69t-68.5 175q0 104 66.5 173t169.5 69q97 0 161.5 -68.5t64.5 -168.5q0 -29 -2 -38h-371q8 -57 50.5 -94t101.5 -37zM286 393q-59 0 -98.5 -32.5t-47.5 -87.5h282q-8 55 -44 87.5t-92 32.5zM113 719
h94l142 -185h-94z" />
    <glyph glyph-name="eacute" unicode="&#xe9;" horiz-adv-x="562" 
d="M291 67q86 0 122 62h93q-24 -66 -81.5 -104t-133.5 -38q-104 0 -172.5 69t-68.5 175q0 104 66.5 173t169.5 69q97 0 161.5 -68.5t64.5 -168.5q0 -29 -2 -38h-371q8 -57 50.5 -94t101.5 -37zM286 393q-59 0 -98.5 -32.5t-47.5 -87.5h282q-8 55 -44 87.5t-92 32.5zM358 719
h94l-142 -185h-94z" />
    <glyph glyph-name="ecircumflex" unicode="&#xea;" horiz-adv-x="562" 
d="M291 67q86 0 122 62h93q-24 -66 -81.5 -104t-133.5 -38q-104 0 -172.5 69t-68.5 175q0 104 66.5 173t169.5 69q97 0 161.5 -68.5t64.5 -168.5q0 -29 -2 -38h-371q8 -57 50.5 -94t101.5 -37zM286 393q-59 0 -98.5 -32.5t-47.5 -87.5h282q-8 55 -44 87.5t-92 32.5zM90 534
l149 185h95l149 -185h-92l-104 124l-104 -124h-93z" />
    <glyph glyph-name="edieresis" unicode="&#xeb;" horiz-adv-x="562" 
d="M291 67q86 0 122 62h93q-24 -66 -81.5 -104t-133.5 -38q-104 0 -172.5 69t-68.5 175q0 104 66.5 173t169.5 69q97 0 161.5 -68.5t64.5 -168.5q0 -29 -2 -38h-371q8 -57 50.5 -94t101.5 -37zM286 393q-59 0 -98.5 -32.5t-47.5 -87.5h282q-8 55 -44 87.5t-92 32.5zM325 565
v99h96v-99h-96zM142 565v99h96v-99h-96z" />
    <glyph glyph-name="igrave" unicode="&#xec;" horiz-adv-x="250" 
d="M82 460h86v-460h-86v460zM-63 719h94l142 -185h-94z" />
    <glyph glyph-name="iacute" unicode="&#xed;" horiz-adv-x="250" 
d="M82 460h86v-460h-86v460zM216 719h94l-142 -185h-94z" />
    <glyph glyph-name="icircumflex" unicode="&#xee;" horiz-adv-x="250" 
d="M82 460h86v-460h-86v460zM-70 534l149 185h95l149 -185h-92l-104 124l-104 -124h-93z" />
    <glyph glyph-name="idieresis" unicode="&#xef;" horiz-adv-x="250" 
d="M84 460h86v-460h-86v460zM170 565v99h96v-99h-96zM-13 565v99h96v-99h-96z" />
    <glyph glyph-name="eth" unicode="&#xf0;" horiz-adv-x="573" 
d="M136 669h97l43 -53l137 65v-72l-94 -45l121 -149q83 -101 83 -198q0 -96 -68 -163t-168 -67q-101 0 -169 66.5t-68 163.5t66.5 164t164.5 67q21 0 37 -4l-70 86l-142 -68v74l99 47zM287 67q65 0 107.5 43.5t42.5 106.5q0 64 -42.5 108t-107.5 44t-108 -44t-43 -108
q0 -63 43 -106.5t108 -43.5z" />
    <glyph glyph-name="ntilde" unicode="&#xf1;" horiz-adv-x="591" 
d="M321 473q93 0 146.5 -56t53.5 -146v-271h-86v264q0 59 -31 94t-92 35q-59 0 -102.5 -42t-43.5 -112v-239h-86v460h86v-50q53 63 155 63zM373 610q43 0 43 90h72q0 -77 -30.5 -120.5t-85.5 -43.5q-29 0 -58.5 22.5t-54 45t-41.5 22.5q-43 0 -43 -90h-72q0 76 31 120t85 44
q30 0 60 -22.5t54.5 -45t39.5 -22.5z" />
    <glyph glyph-name="ograve" unicode="&#xf2;" horiz-adv-x="582" 
d="M291 473q103 0 172 -69.5t69 -173.5t-69 -173.5t-172 -69.5q-104 0 -172.5 69.5t-68.5 173.5t68.5 173.5t172.5 69.5zM291 67q67 0 111 47t44 116q0 70 -43.5 116.5t-111.5 46.5t-111.5 -46.5t-43.5 -116.5q0 -69 44 -116t111 -47zM113 719h94l142 -185h-94z" />
    <glyph glyph-name="oacute" unicode="&#xf3;" horiz-adv-x="582" 
d="M291 473q103 0 172 -69.5t69 -173.5t-69 -173.5t-172 -69.5q-104 0 -172.5 69.5t-68.5 173.5t68.5 173.5t172.5 69.5zM291 67q67 0 111 47t44 116q0 70 -43.5 116.5t-111.5 46.5t-111.5 -46.5t-43.5 -116.5q0 -69 44 -116t111 -47zM375 719h94l-142 -185h-94z" />
    <glyph glyph-name="ocircumflex" unicode="&#xf4;" horiz-adv-x="582" 
d="M291 473q103 0 172 -69.5t69 -173.5t-69 -173.5t-172 -69.5q-104 0 -172.5 69.5t-68.5 173.5t68.5 173.5t172.5 69.5zM291 67q67 0 111 47t44 116q0 70 -43.5 116.5t-111.5 46.5t-111.5 -46.5t-43.5 -116.5q0 -69 44 -116t111 -47zM95 534l149 185h95l149 -185h-92
l-104 124l-104 -124h-93z" />
    <glyph glyph-name="otilde" unicode="&#xf5;" horiz-adv-x="582" 
d="M291 473q103 0 172 -69.5t69 -173.5t-69 -173.5t-172 -69.5q-104 0 -172.5 69.5t-68.5 173.5t68.5 173.5t172.5 69.5zM291 67q67 0 111 47t44 116q0 70 -43.5 116.5t-111.5 46.5t-111.5 -46.5t-43.5 -116.5q0 -69 44 -116t111 -47zM369 610q43 0 43 90h72
q0 -77 -30.5 -120.5t-85.5 -43.5q-29 0 -58.5 22.5t-54 45t-41.5 22.5q-43 0 -43 -90h-72q0 76 31 120t85 44q30 0 60 -22.5t54.5 -45t39.5 -22.5z" />
    <glyph glyph-name="odieresis" unicode="&#xf6;" horiz-adv-x="582" 
d="M291 473q103 0 172 -69.5t69 -173.5t-69 -173.5t-172 -69.5q-104 0 -172.5 69.5t-68.5 173.5t68.5 173.5t172.5 69.5zM291 67q67 0 111 47t44 116q0 70 -43.5 116.5t-111.5 46.5t-111.5 -46.5t-43.5 -116.5q0 -69 44 -116t111 -47zM335 565v99h96v-99h-96zM152 565v99h96
v-99h-96z" />
    <glyph glyph-name="divide" unicode="&#xf7;" horiz-adv-x="545" 
d="M55 296h435v-81h-435v81zM217 352v111h111v-111h-111zM217 48v111h111v-111h-111z" />
    <glyph glyph-name="oslash" unicode="&#xf8;" horiz-adv-x="567" 
d="M534 473l-67 -82q58 -69 58 -161q0 -104 -69 -173.5t-172 -69.5q-65 0 -123 32l-26 -32h-102l67 82q-57 68 -57 161q0 104 68.5 173.5t172.5 69.5q66 0 122 -32l26 32h102zM284 67q67 0 111 47t44 116q0 54 -27 94l-198 -241q31 -16 70 -16zM129 230q0 -53 26 -94
l198 241q-31 16 -69 16q-68 0 -111.5 -46.5t-43.5 -116.5z" />
    <glyph glyph-name="ugrave" unicode="&#xf9;" horiz-adv-x="585" 
d="M267 -13q-91 0 -144 56t-53 146v271h86v-264q0 -59 30.5 -94t89.5 -35q58 0 100.5 42t42.5 112v239h86v-460h-86v50q-53 -63 -152 -63zM108 719h94l142 -185h-94z" />
    <glyph glyph-name="uacute" unicode="&#xfa;" horiz-adv-x="585" 
d="M267 -13q-91 0 -144 56t-53 146v271h86v-264q0 -59 30.5 -94t89.5 -35q58 0 100.5 42t42.5 112v239h86v-460h-86v50q-53 -63 -152 -63zM379 719h94l-142 -185h-94z" />
    <glyph glyph-name="ucircumflex" unicode="&#xfb;" horiz-adv-x="585" 
d="M267 -13q-91 0 -144 56t-53 146v271h86v-264q0 -59 30.5 -94t89.5 -35q58 0 100.5 42t42.5 112v239h86v-460h-86v50q-53 -63 -152 -63zM96 534l149 185h95l149 -185h-92l-104 124l-104 -124h-93z" />
    <glyph glyph-name="udieresis" unicode="&#xfc;" horiz-adv-x="585" 
d="M267 -13q-91 0 -144 56t-53 146v271h86v-264q0 -59 30.5 -94t89.5 -35q58 0 100.5 42t42.5 112v239h86v-460h-86v50q-53 -63 -152 -63zM336 565v99h96v-99h-96zM153 565v99h96v-99h-96z" />
    <glyph glyph-name="yacute" unicode="&#xfd;" horiz-adv-x="523" 
d="M216 6l-203 454h97l154 -347l155 347h91l-217 -485q-47 -108 -68 -134q-32 -41 -95 -44q-9 -1 -21 -1h-44v76h28q40 0 60 18t44 72zM348 719h94l-142 -185h-94z" />
    <glyph glyph-name="thorn" unicode="&#xfe;" horiz-adv-x="604" 
d="M554 230q0 -101 -62 -172t-171 -71q-98 0 -155 63v-254h-86v868h86v-254q57 63 155 63q109 0 171 -71t62 -172zM468 230q0 68 -42.5 115.5t-107.5 47.5q-64 0 -109.5 -42.5t-45.5 -120.5t45.5 -120.5t109.5 -42.5q65 0 107.5 47.5t42.5 115.5z" />
    <glyph glyph-name="ydieresis" unicode="&#xff;" horiz-adv-x="523" 
d="M216 6l-203 454h97l154 -347l155 347h91l-217 -485q-47 -108 -68 -134q-32 -41 -95 -44q-9 -1 -21 -1h-44v76h28q40 0 60 18t44 72zM300 565v99h96v-99h-96zM117 565v99h96v-99h-96z" />
    <glyph glyph-name="Amacron" unicode="&#x100;" horiz-adv-x="681" 
d="M160 154l-67 -154h-93l292 664h98l291 -664h-96l-67 154h-358zM482 237l-143 329l-143 -329h286zM165 818h351v-74h-351v74z" />
    <glyph glyph-name="amacron" unicode="&#x101;" horiz-adv-x="554" 
d="M264 473q100 0 160 -47.5t60 -132.5v-293h-86v50q-58 -63 -160 -63q-84 0 -135.5 39t-51.5 114q0 78 56.5 113.5t145.5 35.5h145q0 104 -134 104q-44 0 -79.5 -17.5t-49.5 -49.5h-95q19 69 81 108t143 39zM398 184v30h-146q-115 0 -115 -74q0 -73 110 -73q69 0 110 32.5
t41 84.5zM96 639h351v-74h-351v74z" />
    <glyph glyph-name="Abreve" unicode="&#x102;" horiz-adv-x="681" 
d="M160 154l-67 -154h-93l292 664h98l291 -664h-96l-67 154h-358zM482 237l-143 329l-143 -329h286zM341 726q-74 0 -127 46.5t-61 118.5h77q8 -39 39 -65t72 -26q40 0 71 26t39 65h77q-8 -71 -61 -118t-126 -47z" />
    <glyph glyph-name="abreve" unicode="&#x103;" horiz-adv-x="554" 
d="M264 473q100 0 160 -47.5t60 -132.5v-293h-86v50q-58 -63 -160 -63q-84 0 -135.5 39t-51.5 114q0 78 56.5 113.5t145.5 35.5h145q0 104 -134 104q-44 0 -79.5 -17.5t-49.5 -49.5h-95q19 69 81 108t143 39zM398 184v30h-146q-115 0 -115 -74q0 -73 110 -73q69 0 110 32.5
t41 84.5zM271 608q43 0 73 33.5t34 77.5h75q-6 -77 -57 -131t-125 -54t-125 54t-57 131h75q4 -44 34 -77.5t73 -33.5z" />
    <glyph glyph-name="Aogonek" unicode="&#x104;" horiz-adv-x="681" 
d="M339 566l-143 -329h286zM585 0l-67 154h-358l-67 -154h-93l292 664h98l291 -664q-93 -58 -93 -98q0 -33 49 -33h44v-73h-48q-125 0 -125 88q0 55 77 116z" />
    <glyph glyph-name="aogonek" unicode="&#x105;" horiz-adv-x="554" 
d="M264 473q100 0 160 -47.5t60 -132.5v-293q-93 -58 -93 -98q0 -33 49 -33h44v-73h-48q-125 0 -125 88q0 56 87 116v50q-58 -63 -160 -63q-84 0 -135.5 39t-51.5 114q0 78 56.5 113.5t145.5 35.5h145q0 104 -134 104q-44 0 -79.5 -17.5t-49.5 -49.5h-95q19 69 81 108
t143 39zM398 184v30h-146q-115 0 -115 -74q0 -73 110 -73q69 0 110 32.5t41 84.5z" />
    <glyph glyph-name="Cacute" unicode="&#x106;" horiz-adv-x="715" 
d="M386 593q-107 0 -179 -74.5t-72 -186.5t72 -186.5t179 -74.5q119 0 187 94h102q-41 -83 -115.5 -130.5t-173.5 -47.5q-145 0 -243 99t-98 246t98 246t243 99q99 0 173.5 -47.5t115.5 -130.5h-102q-68 94 -187 94zM468 891h94l-142 -166h-94z" />
    <glyph glyph-name="cacute" unicode="&#x107;" horiz-adv-x="552" 
d="M507 326h-94q-39 67 -123 67q-67 0 -110.5 -46.5t-43.5 -116.5t43.5 -116.5t110.5 -46.5q84 0 123 67h94q-25 -68 -83 -107.5t-134 -39.5q-102 0 -171 69.5t-69 173.5t69 173.5t171 69.5q76 0 134 -39.5t83 -107.5zM364 719h94l-142 -185h-94z" />
    <glyph glyph-name="Ccircumflex" unicode="&#x108;" horiz-adv-x="715" 
d="M386 593q-107 0 -179 -74.5t-72 -186.5t72 -186.5t179 -74.5q119 0 187 94h102q-41 -83 -115.5 -130.5t-173.5 -47.5q-145 0 -243 99t-98 246t98 246t243 99q99 0 173.5 -47.5t115.5 -130.5h-102q-68 94 -187 94zM186 725l150 166h93l150 -166h-94l-102 111l-102 -111
h-95z" />
    <glyph glyph-name="ccircumflex" unicode="&#x109;" horiz-adv-x="552" 
d="M507 326h-94q-39 67 -123 67q-67 0 -110.5 -46.5t-43.5 -116.5t43.5 -116.5t110.5 -46.5q84 0 123 67h94q-25 -68 -83 -107.5t-134 -39.5q-102 0 -171 69.5t-69 173.5t69 173.5t171 69.5q76 0 134 -39.5t83 -107.5zM91 534l149 185h95l149 -185h-92l-104 124l-104 -124
h-93z" />
    <glyph glyph-name="Cdotaccent" unicode="&#x10a;" horiz-adv-x="715" 
d="M386 593q-107 0 -179 -74.5t-72 -186.5t72 -186.5t179 -74.5q119 0 187 94h102q-41 -83 -115.5 -130.5t-173.5 -47.5q-145 0 -243 99t-98 246t98 246t243 99q99 0 173.5 -47.5t115.5 -130.5h-102q-68 94 -187 94zM332 754v100h96v-100h-96z" />
    <glyph glyph-name="cdotaccent" unicode="&#x10b;" horiz-adv-x="552" 
d="M507 326h-94q-39 67 -123 67q-67 0 -110.5 -46.5t-43.5 -116.5t43.5 -116.5t110.5 -46.5q84 0 123 67h94q-25 -68 -83 -107.5t-134 -39.5q-102 0 -171 69.5t-69 173.5t69 173.5t171 69.5q76 0 134 -39.5t83 -107.5zM236 565v104h100v-104h-100z" />
    <glyph glyph-name="Ccaron" unicode="&#x10c;" horiz-adv-x="715" 
d="M386 593q-107 0 -179 -74.5t-72 -186.5t72 -186.5t179 -74.5q119 0 187 94h102q-41 -83 -115.5 -130.5t-173.5 -47.5q-145 0 -243 99t-98 246t98 246t243 99q99 0 173.5 -47.5t115.5 -130.5h-102q-68 94 -187 94zM581 891l-146 -166h-101l-146 166h94l102 -114l102 114
h95z" />
    <glyph glyph-name="ccaron" unicode="&#x10d;" horiz-adv-x="552" 
d="M507 326h-94q-39 67 -123 67q-67 0 -110.5 -46.5t-43.5 -116.5t43.5 -116.5t110.5 -46.5q84 0 123 67h94q-25 -68 -83 -107.5t-134 -39.5q-102 0 -171 69.5t-69 173.5t69 173.5t171 69.5q76 0 134 -39.5t83 -107.5zM232 534l-149 185h93l104 -124l104 124h92l-149 -185
h-95z" />
    <glyph glyph-name="Dcaron" unicode="&#x10e;" horiz-adv-x="717" 
d="M85 664h223q168 0 266 -95.5t98 -236.5t-98 -236.5t-266 -95.5h-223v664zM582 332q0 112 -72 180t-196 68h-139v-496h139q124 0 196 68t72 180zM529 891l-146 -166h-101l-146 166h94l102 -114l102 114h95z" />
    <glyph glyph-name="dcaron" unicode="&#x10f;" horiz-adv-x="735" 
d="M438 669h86v-669h-86v50q-57 -63 -155 -63q-109 0 -171 71t-62 172t62 172t171 71q98 0 155 -63v259zM441 230q0 78 -45.5 120.5t-109.5 42.5q-65 0 -107.5 -47.5t-42.5 -115.5t42.5 -115.5t107.5 -47.5q64 0 109.5 42.5t45.5 120.5zM670 436h-63l70 117h-53v111h111
v-121z" />
    <glyph glyph-name="Dcroat" unicode="&#x110;" horiz-adv-x="743" 
d="M111 664h223q168 0 266 -95.5t98 -236.5t-98 -236.5t-266 -95.5h-223v290h-91v84h91v290zM608 332q0 112 -72 180t-196 68h-139v-206h220v-84h-220v-206h139q124 0 196 68t72 180z" />
    <glyph glyph-name="dcroat" unicode="&#x111;" horiz-adv-x="612" 
d="M437 669h86v-67h79v-76h-79v-526h-86v50q-57 -63 -155 -63q-109 0 -171 71t-62 172t62 172t171 71q98 0 155 -63v116h-153v76h153v67zM440 230q0 78 -45.5 120.5t-109.5 42.5q-65 0 -107.5 -47.5t-42.5 -115.5t42.5 -115.5t107.5 -47.5q64 0 109.5 42.5t45.5 120.5z" />
    <glyph glyph-name="Emacron" unicode="&#x112;" horiz-adv-x="600" 
d="M535 580h-360v-206h353v-84h-353v-206h360v-84h-450v664h450v-84zM135 818h351v-74h-351v74z" />
    <glyph glyph-name="emacron" unicode="&#x113;" horiz-adv-x="562" 
d="M291 67q86 0 122 62h93q-24 -66 -81.5 -104t-133.5 -38q-104 0 -172.5 69t-68.5 175q0 104 66.5 173t169.5 69q97 0 161.5 -68.5t64.5 -168.5q0 -29 -2 -38h-371q8 -57 50.5 -94t101.5 -37zM286 393q-59 0 -98.5 -32.5t-47.5 -87.5h282q-8 55 -44 87.5t-92 32.5zM110 639
h351v-74h-351v74z" />
    <glyph glyph-name="Ebreve" unicode="&#x114;" horiz-adv-x="600" 
d="M535 580h-360v-206h353v-84h-353v-206h360v-84h-450v664h450v-84zM314 726q-74 0 -127 46.5t-61 118.5h77q8 -39 39 -65t72 -26q40 0 71 26t39 65h77q-8 -71 -61 -118t-126 -47z" />
    <glyph glyph-name="ebreve" unicode="&#x115;" horiz-adv-x="562" 
d="M291 67q86 0 122 62h93q-24 -66 -81.5 -104t-133.5 -38q-104 0 -172.5 69t-68.5 175q0 104 66.5 173t169.5 69q97 0 161.5 -68.5t64.5 -168.5q0 -29 -2 -38h-371q8 -57 50.5 -94t101.5 -37zM286 393q-59 0 -98.5 -32.5t-47.5 -87.5h282q-8 55 -44 87.5t-92 32.5zM286 608
q43 0 73 33.5t34 77.5h75q-6 -77 -57 -131t-125 -54t-125 54t-57 131h75q4 -44 34 -77.5t73 -33.5z" />
    <glyph glyph-name="Edotaccent" unicode="&#x116;" horiz-adv-x="600" 
d="M535 580h-360v-206h353v-84h-353v-206h360v-84h-450v664h450v-84zM262 754v100h96v-100h-96z" />
    <glyph glyph-name="edotaccent" unicode="&#x117;" horiz-adv-x="562" 
d="M291 67q86 0 122 62h93q-24 -66 -81.5 -104t-133.5 -38q-104 0 -172.5 69t-68.5 175q0 104 66.5 173t169.5 69q97 0 161.5 -68.5t64.5 -168.5q0 -29 -2 -38h-371q8 -57 50.5 -94t101.5 -37zM286 393q-59 0 -98.5 -32.5t-47.5 -87.5h282q-8 55 -44 87.5t-92 32.5zM236 565
v104h100v-104h-100z" />
    <glyph glyph-name="Eogonek" unicode="&#x118;" horiz-adv-x="600" 
d="M445 0h-360v664h450v-84h-360v-206h353v-84h-353v-206h360v-84q-93 -58 -93 -98q0 -33 49 -33h44v-73h-48q-125 0 -125 88q0 54 83 116z" />
    <glyph glyph-name="eogonek" unicode="&#x119;" horiz-adv-x="562" 
d="M291 67q86 0 122 62h93q-16 -43 -44.5 -71.5t-72.5 -57.5q-93 -61 -93 -98q0 -33 49 -33h44v-73h-48q-125 0 -125 88q0 50 69 103q-102 2 -168.5 70.5t-66.5 173.5q0 104 66.5 173t169.5 69q97 0 161.5 -68.5t64.5 -168.5q0 -29 -2 -38h-371q8 -57 50.5 -94t101.5 -37z
M286 393q-59 0 -98.5 -32.5t-47.5 -87.5h282q-8 55 -44 87.5t-92 32.5z" />
    <glyph glyph-name="Ecaron" unicode="&#x11a;" horiz-adv-x="600" 
d="M535 580h-360v-206h353v-84h-353v-206h360v-84h-450v664h450v-84zM507 891l-146 -166h-101l-146 166h94l102 -114l102 114h95z" />
    <glyph glyph-name="ecaron" unicode="&#x11b;" horiz-adv-x="562" 
d="M291 67q86 0 122 62h93q-24 -66 -81.5 -104t-133.5 -38q-104 0 -172.5 69t-68.5 175q0 104 66.5 173t169.5 69q97 0 161.5 -68.5t64.5 -168.5q0 -29 -2 -38h-371q8 -57 50.5 -94t101.5 -37zM286 393q-59 0 -98.5 -32.5t-47.5 -87.5h282q-8 55 -44 87.5t-92 32.5zM234 534
l-149 185h93l104 -124l104 124h92l-149 -185h-95z" />
    <glyph glyph-name="Gcircumflex" unicode="&#x11c;" horiz-adv-x="753" 
d="M386 593q-107 0 -179 -74.5t-72 -186.5q0 -113 71.5 -187t180.5 -74q88 0 147.5 52t77.5 138h-239v84h335q0 -159 -92 -258.5t-226 -99.5q-146 0 -245.5 99t-99.5 246t98 246t243 99q97 0 174.5 -48.5t119.5 -129.5h-103q-31 43 -80.5 68.5t-110.5 25.5zM180 725l150 166
h93l150 -166h-94l-102 111l-102 -111h-95z" />
    <glyph glyph-name="gcircumflex" unicode="&#x11d;" horiz-adv-x="604" 
d="M438 460h86v-438q0 -110 -62.5 -174.5t-173.5 -64.5q-76 0 -138 39t-89 109h94q38 -68 133 -68q71 0 110.5 44t39.5 117v26q-57 -63 -155 -63q-109 0 -171 71t-62 172t62 172t171 71q98 0 155 -63v50zM441 230q0 78 -45.5 120.5t-109.5 42.5q-65 0 -107.5 -47.5
t-42.5 -115.5t42.5 -115.5t107.5 -47.5q64 0 109.5 42.5t45.5 120.5zM96 534l149 185h95l149 -185h-92l-104 124l-104 -124h-93z" />
    <glyph glyph-name="Gbreve" unicode="&#x11e;" horiz-adv-x="753" 
d="M386 593q-107 0 -179 -74.5t-72 -186.5q0 -113 71.5 -187t180.5 -74q88 0 147.5 52t77.5 138h-239v84h335q0 -159 -92 -258.5t-226 -99.5q-146 0 -245.5 99t-99.5 246t98 246t243 99q97 0 174.5 -48.5t119.5 -129.5h-103q-31 43 -80.5 68.5t-110.5 25.5zM385 726
q-74 0 -127 46.5t-61 118.5h77q8 -39 39 -65t72 -26q40 0 71 26t39 65h77q-8 -71 -61 -118t-126 -47z" />
    <glyph glyph-name="gbreve" unicode="&#x11f;" horiz-adv-x="604" 
d="M438 460h86v-438q0 -110 -62.5 -174.5t-173.5 -64.5q-76 0 -138 39t-89 109h94q38 -68 133 -68q71 0 110.5 44t39.5 117v26q-57 -63 -155 -63q-109 0 -171 71t-62 172t62 172t171 71q98 0 155 -63v50zM441 230q0 78 -45.5 120.5t-109.5 42.5q-65 0 -107.5 -47.5
t-42.5 -115.5t42.5 -115.5t107.5 -47.5q64 0 109.5 42.5t45.5 120.5zM289 608q43 0 73 33.5t34 77.5h75q-6 -77 -57 -131t-125 -54t-125 54t-57 131h75q4 -44 34 -77.5t73 -33.5z" />
    <glyph glyph-name="Gdotaccent" unicode="&#x120;" horiz-adv-x="753" 
d="M386 593q-107 0 -179 -74.5t-72 -186.5q0 -113 71.5 -187t180.5 -74q88 0 147.5 52t77.5 138h-239v84h335q0 -159 -92 -258.5t-226 -99.5q-146 0 -245.5 99t-99.5 246t98 246t243 99q97 0 174.5 -48.5t119.5 -129.5h-103q-31 43 -80.5 68.5t-110.5 25.5zM332 754v100h96
v-100h-96z" />
    <glyph glyph-name="gdotaccent" unicode="&#x121;" horiz-adv-x="604" 
d="M438 460h86v-438q0 -110 -62.5 -174.5t-173.5 -64.5q-76 0 -138 39t-89 109h94q38 -68 133 -68q71 0 110.5 44t39.5 117v26q-57 -63 -155 -63q-109 0 -171 71t-62 172t62 172t171 71q98 0 155 -63v50zM441 230q0 78 -45.5 120.5t-109.5 42.5q-65 0 -107.5 -47.5
t-42.5 -115.5t42.5 -115.5t107.5 -47.5q64 0 109.5 42.5t45.5 120.5zM244 565v104h100v-104h-100z" />
    <glyph glyph-name="uni0122" unicode="&#x122;" horiz-adv-x="753" 
d="M386 593q-107 0 -179 -74.5t-72 -186.5q0 -113 71.5 -187t180.5 -74q88 0 147.5 52t77.5 138h-239v84h335q0 -159 -92 -258.5t-226 -99.5q-146 0 -245.5 99t-99.5 246t98 246t243 99q97 0 174.5 -48.5t119.5 -129.5h-103q-31 43 -80.5 68.5t-110.5 25.5zM393 -251h-60
l57 95h-56v101h111v-111z" />
    <glyph glyph-name="uni0123" unicode="&#x123;" horiz-adv-x="604" 
d="M438 460h86v-438q0 -110 -62.5 -174.5t-173.5 -64.5q-76 0 -138 39t-89 109h94q38 -68 133 -68q71 0 110.5 44t39.5 117v26q-57 -63 -155 -63q-109 0 -171 71t-62 172t62 172t171 71q98 0 155 -63v50zM441 230q0 78 -45.5 120.5t-109.5 42.5q-65 0 -107.5 -47.5
t-42.5 -115.5t42.5 -115.5t107.5 -47.5q64 0 109.5 42.5t45.5 120.5zM297 722h60l-57 -95h56v-101h-111v111z" />
    <glyph glyph-name="Hcircumflex" unicode="&#x124;" horiz-adv-x="738" 
d="M653 0h-90v290h-388v-290h-90v664h90v-290h388v290h90v-664zM173 725l150 166h93l150 -166h-94l-102 111l-102 -111h-95z" />
    <glyph glyph-name="hcircumflex" unicode="&#x125;" horiz-adv-x="591" 
d="M321 473q93 0 146.5 -56t53.5 -146v-271h-86v264q0 59 -31 94t-92 35q-59 0 -102.5 -42t-43.5 -112v-239h-86v669h86v-259q53 63 155 63zM99 725l150 166h93l150 -166h-94l-102 111l-102 -111h-95z" />
    <glyph glyph-name="Hbar" unicode="&#x126;" horiz-adv-x="758" 
d="M663 0h-90v290h-388v-290h-90v486h-85v84h85v94h90v-94h388v94h90v-94h85v-84h-85v-486zM185 374h388v112h-388v-112z" />
    <glyph glyph-name="hbar" unicode="&#x127;" horiz-adv-x="600" 
d="M330 473q93 0 146.5 -56t53.5 -146v-271h-86v264q0 59 -31 94t-92 35q-59 0 -102.5 -42t-43.5 -112v-239h-86v526h-79v76h79v67h86v-67h153v-76h-153v-116q53 63 155 63z" />
    <glyph glyph-name="Itilde" unicode="&#x128;" horiz-adv-x="260" 
d="M175 664v-664h-90v664h90zM209 800q43 0 43 90h72q0 -77 -30.5 -120.5t-85.5 -43.5q-29 0 -58.5 22.5t-54 45t-41.5 22.5q-43 0 -43 -90h-72q0 76 31 120t85 44q30 0 60 -22.5t54.5 -45t39.5 -22.5z" />
    <glyph glyph-name="itilde" unicode="&#x129;" horiz-adv-x="250" 
d="M82 460h86v-460h-86v460zM204 610q43 0 43 90h72q0 -77 -30.5 -120.5t-85.5 -43.5q-29 0 -58.5 22.5t-54 45t-41.5 22.5q-43 0 -43 -90h-72q0 76 31 120t85 44q30 0 60 -22.5t54.5 -45t39.5 -22.5z" />
    <glyph glyph-name="Imacron" unicode="&#x12a;" horiz-adv-x="260" 
d="M175 664v-664h-90v664h90zM-44 818h351v-74h-351v74z" />
    <glyph glyph-name="imacron" unicode="&#x12b;" horiz-adv-x="250" 
d="M0 638h251v-73h-251v73zM84 460h86v-460h-86v460z" />
    <glyph glyph-name="Ibreve" unicode="&#x12c;" horiz-adv-x="260" 
d="M175 664v-664h-90v664h90zM132 726q-74 0 -127 46.5t-61 118.5h77q8 -39 39 -65t72 -26q40 0 71 26t39 65h77q-8 -71 -61 -118t-126 -47z" />
    <glyph glyph-name="ibreve" unicode="&#x12d;" horiz-adv-x="250" 
d="M82 460h86v-460h-86v460zM126 608q43 0 73 33.5t34 77.5h75q-6 -77 -57 -131t-125 -54t-125 54t-57 131h75q4 -44 34 -77.5t73 -33.5z" />
    <glyph glyph-name="Iogonek" unicode="&#x12e;" horiz-adv-x="260" 
d="M85 0v664h90v-664q-93 -58 -93 -98q0 -33 49 -33h44v-73h-48q-125 0 -125 88q0 54 83 116z" />
    <glyph glyph-name="iogonek" unicode="&#x12f;" horiz-adv-x="250" 
d="M82 0v460h86v-460q-93 -58 -93 -98q0 -33 49 -33h44v-73h-48q-125 0 -125 88q0 54 87 116zM75 565v104h100v-104h-100z" />
    <glyph glyph-name="Idotaccent" unicode="&#x130;" horiz-adv-x="260" 
d="M175 664v-664h-90v664h90zM82 754v100h96v-100h-96z" />
    <glyph glyph-name="dotlessi" unicode="&#x131;" horiz-adv-x="250" 
d="M82 460h86v-460h-86v460z" />
    <glyph glyph-name="IJ" unicode="&#x132;" horiz-adv-x="649" 
d="M175 664v-664h-90v664h90zM479 664h90v-484q0 -86 -52.5 -133t-141.5 -47h-128v84h128q104 0 104 96v484z" />
    <glyph glyph-name="ij" unicode="&#x133;" horiz-adv-x="498" 
d="M82 460h86v-460h-86v460zM75 565v104h100v-104h-100zM321 565v104h100v-104h-100zM328 460h86v-516q0 -73 -42.5 -110.5t-119.5 -37.5h-71v76h63q44 0 64 22t20 68v498z" />
    <glyph glyph-name="Jcircumflex" unicode="&#x134;" horiz-adv-x="407" 
d="M237 664h90v-484q0 -86 -52.5 -133t-141.5 -47h-128v84h128q104 0 104 96v484zM86 725l150 166h93l150 -166h-94l-102 111l-102 -111h-95z" />
    <glyph glyph-name="jcircumflex" unicode="&#x135;" horiz-adv-x="268" 
d="M100 460h86v-485q0 -92 -41 -135.5t-131 -43.5h-64v75h64q47 0 66.5 26.5t19.5 77.5v485zM-54 534l149 185h95l149 -185h-92l-104 124l-104 -124h-93z" />
    <glyph glyph-name="uni0136" unicode="&#x136;" horiz-adv-x="612" 
d="M252 332l355 -332h-120l-312 287v-287h-90v664h90v-287l312 287h120zM329 -232h-60l57 95h-56v101h111v-111z" />
    <glyph glyph-name="uni0137" unicode="&#x137;" horiz-adv-x="507" 
d="M80 669h86v-410l221 201h115l-255 -230l255 -230h-115l-221 189v-189h-86v669zM273 -232h-60l57 95h-56v101h111v-111z" />
    <glyph glyph-name="kgreenlandic" unicode="&#x138;" horiz-adv-x="512" 
d="M80 460h86v-201l221 201h115l-255 -230l255 -230h-115l-221 189v-189h-86v460z" />
    <glyph glyph-name="Lacute" unicode="&#x139;" horiz-adv-x="565" 
d="M175 664v-580h360v-84h-450v664h90zM225 891h94l-142 -166h-94z" />
    <glyph glyph-name="lacute" unicode="&#x13a;" horiz-adv-x="246" 
d="M80 669h86v-669h-86v669zM217 891h94l-142 -166h-94z" />
    <glyph glyph-name="uni013B" unicode="&#x13b;" horiz-adv-x="565" 
d="M175 664v-580h360v-84h-450v664h90zM314 -232h-60l57 95h-56v101h111v-111z" />
    <glyph glyph-name="uni013C" unicode="&#x13c;" horiz-adv-x="246" 
d="M80 669h86v-669h-86v669zM128 -232h-60l57 95h-56v101h111v-111z" />
    <glyph glyph-name="Lcaron" unicode="&#x13d;" horiz-adv-x="565" 
d="M175 664v-580h360v-84h-450v664h90zM470 436h-63l70 117h-53v111h111v-121z" />
    <glyph glyph-name="lcaron" unicode="&#x13e;" horiz-adv-x="377" 
d="M80 669h86v-669h-86v669zM312 436h-63l70 117h-53v111h111v-121z" />
    <glyph glyph-name="Ldot" unicode="&#x13f;" horiz-adv-x="565" 
d="M175 664v-580h360v-84h-450v664h90zM372 294v111h111v-111h-111z" />
    <glyph glyph-name="ldot" unicode="&#x140;" horiz-adv-x="381" 
d="M80 669h86v-669h-86v669zM240 302v111h111v-111h-111z" />
    <glyph glyph-name="Lslash" unicode="&#x141;" horiz-adv-x="615" 
d="M225 664v-249l195 105v-91l-195 -106v-239h360v-84h-450v274l-125 -67v92l125 67v298h90z" />
    <glyph glyph-name="lslash" unicode="&#x142;" horiz-adv-x="344" 
d="M129 669h86v-251l119 66v-94l-119 -67v-323h-86v275l-119 -66v95l119 66v299z" />
    <glyph glyph-name="Nacute" unicode="&#x143;" horiz-adv-x="766" 
d="M591 664h90v-664h-101l-405 536v-536h-90v664h101l405 -536v536zM471 891h94l-142 -166h-94z" />
    <glyph glyph-name="nacute" unicode="&#x144;" horiz-adv-x="591" 
d="M321 473q93 0 146.5 -56t53.5 -146v-271h-86v264q0 59 -31 94t-92 35q-59 0 -102.5 -42t-43.5 -112v-239h-86v460h86v-50q53 63 155 63zM384 719h94l-142 -185h-94z" />
    <glyph glyph-name="uni0145" unicode="&#x145;" horiz-adv-x="766" 
d="M591 664h90v-664h-101l-405 536v-536h-90v664h101l405 -536v536zM387 -232h-60l57 95h-56v101h111v-111z" />
    <glyph glyph-name="uni0146" unicode="&#x146;" horiz-adv-x="591" 
d="M321 473q93 0 146.5 -56t53.5 -146v-271h-86v264q0 59 -31 94t-92 35q-59 0 -102.5 -42t-43.5 -112v-239h-86v460h86v-50q53 63 155 63zM299 -232h-60l57 95h-56v101h111v-111z" />
    <glyph glyph-name="Ncaron" unicode="&#x147;" horiz-adv-x="766" 
d="M591 664h90v-664h-101l-405 536v-536h-90v664h101l405 -536v536zM580 891l-146 -166h-101l-146 166h94l102 -114l102 114h95z" />
    <glyph glyph-name="ncaron" unicode="&#x148;" horiz-adv-x="591" 
d="M321 473q93 0 146.5 -56t53.5 -146v-271h-86v264q0 59 -31 94t-92 35q-59 0 -102.5 -42t-43.5 -112v-239h-86v460h86v-50q53 63 155 63zM248 534l-149 185h93l104 -124l104 124h92l-149 -185h-95z" />
    <glyph glyph-name="napostrophe" unicode="&#x149;" horiz-adv-x="591" 
d="M321 473q93 0 146.5 -56t53.5 -146v-271h-86v264q0 59 -31 94t-92 35q-59 0 -102.5 -42t-43.5 -112v-239h-86v460h86v-50q53 63 155 63zM143 547h-63l70 117h-53v111h111v-121z" />
    <glyph glyph-name="Eng" unicode="&#x14a;" horiz-adv-x="766" 
d="M591 664h90v-688q0 -86 -52.5 -133t-141.5 -47h-128v84h128q104 0 104 96v24l-416 536v-536h-90v664h101l405 -526v526z" />
    <glyph glyph-name="eng" unicode="&#x14b;" horiz-adv-x="591" 
d="M521 271v-327q0 -73 -42.5 -110.5t-119.5 -37.5h-71v76h63q44 0 64 22t20 68v302q0 59 -31 94t-92 35q-59 0 -102.5 -42t-43.5 -112v-239h-86v460h86v-50q53 63 155 63q93 0 146.5 -56t53.5 -146z" />
    <glyph glyph-name="Omacron" unicode="&#x14c;" horiz-adv-x="772" 
d="M386 677q145 0 243 -99t98 -246t-98 -246t-243 -99t-243 99t-98 246t98 246t243 99zM386 593q-107 0 -179 -74.5t-72 -186.5t72 -186.5t179 -74.5t179 74.5t72 186.5t-72 186.5t-179 74.5zM211 818h351v-74h-351v74z" />
    <glyph glyph-name="omacron" unicode="&#x14d;" horiz-adv-x="582" 
d="M291 473q103 0 172 -69.5t69 -173.5t-69 -173.5t-172 -69.5q-104 0 -172.5 69.5t-68.5 173.5t68.5 173.5t172.5 69.5zM291 67q67 0 111 47t44 116q0 70 -43.5 116.5t-111.5 46.5t-111.5 -46.5t-43.5 -116.5q0 -69 44 -116t111 -47zM116 639h351v-74h-351v74z" />
    <glyph glyph-name="Obreve" unicode="&#x14e;" horiz-adv-x="772" 
d="M386 677q145 0 243 -99t98 -246t-98 -246t-243 -99t-243 99t-98 246t98 246t243 99zM386 593q-107 0 -179 -74.5t-72 -186.5t72 -186.5t179 -74.5t179 74.5t72 186.5t-72 186.5t-179 74.5zM387 726q-74 0 -127 46.5t-61 118.5h77q8 -39 39 -65t72 -26q40 0 71 26t39 65
h77q-8 -71 -61 -118t-126 -47z" />
    <glyph glyph-name="obreve" unicode="&#x14f;" horiz-adv-x="582" 
d="M291 473q103 0 172 -69.5t69 -173.5t-69 -173.5t-172 -69.5q-104 0 -172.5 69.5t-68.5 173.5t68.5 173.5t172.5 69.5zM291 67q67 0 111 47t44 116q0 70 -43.5 116.5t-111.5 46.5t-111.5 -46.5t-43.5 -116.5q0 -69 44 -116t111 -47zM291 608q43 0 73 33.5t34 77.5h75
q-6 -77 -57 -131t-125 -54t-125 54t-57 131h75q4 -44 34 -77.5t73 -33.5z" />
    <glyph glyph-name="Ohungarumlaut" unicode="&#x150;" horiz-adv-x="772" 
d="M386 677q145 0 243 -99t98 -246t-98 -246t-243 -99t-243 99t-98 246t98 246t243 99zM386 593q-107 0 -179 -74.5t-72 -186.5t72 -186.5t179 -74.5t179 74.5t72 186.5t-72 186.5t-179 74.5zM549 891h94l-142 -166h-94zM395 891h94l-142 -166h-94z" />
    <glyph glyph-name="ohungarumlaut" unicode="&#x151;" horiz-adv-x="582" 
d="M291 473q103 0 172 -69.5t69 -173.5t-69 -173.5t-172 -69.5q-104 0 -172.5 69.5t-68.5 173.5t68.5 173.5t172.5 69.5zM291 67q67 0 111 47t44 116q0 70 -43.5 116.5t-111.5 46.5t-111.5 -46.5t-43.5 -116.5q0 -69 44 -116t111 -47zM453 719h94l-142 -185h-94zM299 719h94
l-142 -185h-94z" />
    <glyph glyph-name="OE" unicode="&#x152;" horiz-adv-x="1152" 
d="M1087 580h-360v-206h353v-84h-353v-206h360v-84h-450v94q-99 -107 -251 -107q-145 0 -243 99t-98 246t98 246t243 99q151 0 251 -108v95h450v-84zM386 593q-107 0 -179 -74.5t-72 -186.5t72 -186.5t179 -74.5t179 74.5t72 186.5t-72 186.5t-179 74.5z" />
    <glyph glyph-name="oe" unicode="&#x153;" horiz-adv-x="958" 
d="M687 67q86 0 122 62h93q-24 -66 -81.5 -104t-133.5 -38q-131 0 -199 100q-68 -100 -197 -100q-104 0 -172.5 69.5t-68.5 173.5t68.5 173.5t172.5 69.5q127 0 197 -99q68 99 194 99q97 0 161.5 -68.5t64.5 -168.5q0 -29 -2 -38h-371q8 -57 50.5 -94t101.5 -37zM291 67
q67 0 111 47t44 116q0 70 -43.5 116.5t-111.5 46.5t-111.5 -46.5t-43.5 -116.5q0 -69 44 -116t111 -47zM682 393q-59 0 -98.5 -32.5t-47.5 -87.5h282q-8 55 -44 87.5t-92 32.5z" />
    <glyph glyph-name="Racute" unicode="&#x154;" horiz-adv-x="663" 
d="M620 469q0 -87 -52 -138t-139 -57l209 -274h-112l-209 274h-142v-274h-90v664h323q96 0 154 -51.5t58 -143.5zM530 469q0 53 -33.5 82t-88.5 29h-233v-222h233q55 0 88.5 29t33.5 82zM399 891h94l-142 -166h-94z" />
    <glyph glyph-name="racute" unicode="&#x155;" horiz-adv-x="395" 
d="M80 460h86v-65q48 69 162 69h27v-82h-27q-75 0 -118.5 -44t-43.5 -117v-221h-86v460zM302 719h94l-142 -185h-94z" />
    <glyph glyph-name="uni0156" unicode="&#x156;" horiz-adv-x="663" 
d="M620 469q0 -87 -52 -138t-139 -57l209 -274h-112l-209 274h-142v-274h-90v664h323q96 0 154 -51.5t58 -143.5zM530 469q0 53 -33.5 82t-88.5 29h-233v-222h233q55 0 88.5 29t33.5 82zM335 -232h-60l57 95h-56v101h111v-111z" />
    <glyph glyph-name="uni0157" unicode="&#x157;" horiz-adv-x="395" 
d="M80 460h86v-65q48 69 162 69h27v-82h-27q-75 0 -118.5 -44t-43.5 -117v-221h-86v460zM129 -232h-60l57 95h-56v101h111v-111z" />
    <glyph glyph-name="Rcaron" unicode="&#x158;" horiz-adv-x="663" 
d="M620 469q0 -87 -52 -138t-139 -57l209 -274h-112l-209 274h-142v-274h-90v664h323q96 0 154 -51.5t58 -143.5zM530 469q0 53 -33.5 82t-88.5 29h-233v-222h233q55 0 88.5 29t33.5 82zM525 891l-146 -166h-101l-146 166h94l102 -114l102 114h95z" />
    <glyph glyph-name="rcaron" unicode="&#x159;" horiz-adv-x="395" 
d="M80 460h86v-65q48 69 162 69h27v-82h-27q-75 0 -118.5 -44t-43.5 -117v-221h-86v460zM161 534l-149 185h93l104 -124l104 124h92l-149 -185h-95z" />
    <glyph glyph-name="Sacute" unicode="&#x15a;" horiz-adv-x="614" 
d="M25 165h98q24 -43 74.5 -68.5t115.5 -25.5q75 0 124 31.5t49 79.5q0 47 -34 72t-107 33l-116 12q-95 9 -140.5 57t-45.5 122q0 89 69.5 144t186.5 55q112 0 182.5 -53t97.5 -125h-98q-20 42 -70 68t-115 26q-75 0 -119 -32t-44 -79q0 -89 123 -101l125 -13
q92 -10 143.5 -58t51.5 -123q0 -80 -70 -140t-193 -60q-120 0 -191 51.5t-97 126.5zM379 891h94l-142 -166h-94z" />
    <glyph glyph-name="sacute" unicode="&#x15b;" horiz-adv-x="520" 
d="M485 330h-94q-30 63 -139 63q-51 0 -81 -17t-30 -46q0 -28 23.5 -41t71.5 -17l93 -7q151 -13 151 -134q0 -61 -55.5 -102.5t-148.5 -41.5q-96 0 -158.5 42t-77.5 105h94q29 -67 153 -67q46 0 76.5 16.5t30.5 45.5q0 28 -23.5 41.5t-72.5 17.5l-96 8q-147 14 -147 131
q0 62 54.5 104t143.5 42q97 0 156 -40.5t76 -102.5zM344 719h94l-142 -185h-94z" />
    <glyph glyph-name="Scircumflex" unicode="&#x15c;" horiz-adv-x="614" 
d="M25 165h98q24 -43 74.5 -68.5t115.5 -25.5q75 0 124 31.5t49 79.5q0 47 -34 72t-107 33l-116 12q-95 9 -140.5 57t-45.5 122q0 89 69.5 144t186.5 55q112 0 182.5 -53t97.5 -125h-98q-20 42 -70 68t-115 26q-75 0 -119 -32t-44 -79q0 -89 123 -101l125 -13
q92 -10 143.5 -58t51.5 -123q0 -80 -70 -140t-193 -60q-120 0 -191 51.5t-97 126.5zM111 725l150 166h93l150 -166h-94l-102 111l-102 -111h-95z" />
    <glyph glyph-name="scircumflex" unicode="&#x15d;" horiz-adv-x="520" 
d="M485 330h-94q-30 63 -139 63q-51 0 -81 -17t-30 -46q0 -28 23.5 -41t71.5 -17l93 -7q151 -13 151 -134q0 -61 -55.5 -102.5t-148.5 -41.5q-96 0 -158.5 42t-77.5 105h94q29 -67 153 -67q46 0 76.5 16.5t30.5 45.5q0 28 -23.5 41.5t-72.5 17.5l-96 8q-147 14 -147 131
q0 62 54.5 104t143.5 42q97 0 156 -40.5t76 -102.5zM69 534l149 185h95l149 -185h-92l-104 124l-104 -124h-93z" />
    <glyph glyph-name="Scedilla" unicode="&#x15e;" horiz-adv-x="614" 
d="M25 165h98q24 -43 74.5 -68.5t115.5 -25.5q75 0 124 31.5t49 79.5q0 47 -34 72t-107 33l-116 12q-95 9 -140.5 57t-45.5 122q0 89 69.5 144t186.5 55q112 0 182.5 -53t97.5 -125h-98q-20 42 -70 68t-115 26q-75 0 -119 -32t-44 -79q0 -89 123 -101l125 -13
q92 -10 143.5 -58t51.5 -123q0 -72 -57 -129t-158 -68l-133 -174h-94l133 173q-99 9 -159 58.5t-83 117.5z" />
    <glyph glyph-name="scedilla" unicode="&#x15f;" horiz-adv-x="520" 
d="M485 330h-94q-30 63 -139 63q-51 0 -81 -17t-30 -46q0 -28 23.5 -41t71.5 -17l93 -7q151 -13 151 -134q0 -55 -44.5 -94.5t-121.5 -47.5l-132 -173h-94l135 175q-75 11 -122.5 50t-60.5 93h97q27 -67 150 -67q46 0 76.5 16.5t30.5 45.5q0 28 -23.5 41.5t-72.5 17.5l-96 8
q-147 14 -147 131q0 62 54.5 103.5t143.5 41.5q97 0 155.5 -40t76.5 -102z" />
    <glyph glyph-name="Scaron" unicode="&#x160;" horiz-adv-x="614" 
d="M25 165h98q24 -43 74.5 -68.5t115.5 -25.5q75 0 124 31.5t49 79.5q0 47 -34 72t-107 33l-116 12q-95 9 -140.5 57t-45.5 122q0 89 69.5 144t186.5 55q112 0 182.5 -53t97.5 -125h-98q-20 42 -70 68t-115 26q-75 0 -119 -32t-44 -79q0 -89 123 -101l125 -13
q92 -10 143.5 -58t51.5 -123q0 -80 -70 -140t-193 -60q-120 0 -191 51.5t-97 126.5zM504 891l-146 -166h-101l-146 166h94l102 -114l102 114h95z" />
    <glyph glyph-name="scaron" unicode="&#x161;" horiz-adv-x="520" 
d="M485 330h-94q-30 63 -139 63q-51 0 -81 -17t-30 -46q0 -28 23.5 -41t71.5 -17l93 -7q151 -13 151 -134q0 -61 -55.5 -102.5t-148.5 -41.5q-96 0 -158.5 42t-77.5 105h94q29 -67 153 -67q46 0 76.5 16.5t30.5 45.5q0 28 -23.5 41.5t-72.5 17.5l-96 8q-147 14 -147 131
q0 62 54.5 104t143.5 42q97 0 156 -40.5t76 -102.5zM213 534l-149 185h93l104 -124l104 124h92l-149 -185h-95z" />
    <glyph glyph-name="uni0162" unicode="&#x162;" horiz-adv-x="600" 
d="M25 664h550v-84h-230v-580l-141 -184h-94l145 188v576h-230v84z" />
    <glyph glyph-name="uni0163" unicode="&#x163;" horiz-adv-x="393" 
d="M115 586h86v-126h147v-76h-147v-226q0 -82 86 -82h61v-76h-41l-141 -184h-94l149 191q-106 25 -106 135v242h-85v76h85v126z" />
    <glyph glyph-name="Tcaron" unicode="&#x164;" horiz-adv-x="600" 
d="M25 664h550v-84h-230v-580h-90v580h-230v84zM497 891l-146 -166h-101l-146 166h94l102 -114l102 114h95z" />
    <glyph glyph-name="tcaron" unicode="&#x165;" horiz-adv-x="531" 
d="M115 586h86v-126h147v-76h-147v-218q0 -46 20 -68t64 -22h63v-76h-71q-77 0 -119.5 37.5t-42.5 110.5v236h-85v76h85v126zM466 436h-63l70 117h-53v111h111v-121z" />
    <glyph glyph-name="Tbar" unicode="&#x166;" horiz-adv-x="600" 
d="M25 664h550v-84h-230v-206h170v-84h-170v-290h-90v290h-170v84h170v206h-230v84z" />
    <glyph glyph-name="tbar" unicode="&#x167;" horiz-adv-x="408" 
d="M115 586h86v-126h147v-76h-147v-76h147v-76h-147v-66q0 -46 20 -68t64 -22h63v-76h-71q-77 0 -119.5 37.5t-42.5 110.5v84h-85v76h85v76h-85v76h85v126z" />
    <glyph glyph-name="Utilde" unicode="&#x168;" horiz-adv-x="736" 
d="M80 275v389h90v-389q0 -100 52 -152t146 -52t146 52t52 152v389h90v-389q0 -137 -77.5 -212.5t-210.5 -75.5t-210.5 75.5t-77.5 212.5zM446 800q43 0 43 90h72q0 -77 -30.5 -120.5t-85.5 -43.5q-29 0 -58.5 22.5t-54 45t-41.5 22.5q-43 0 -43 -90h-72q0 76 31 120t85 44
q30 0 60 -22.5t54.5 -45t39.5 -22.5z" />
    <glyph glyph-name="utilde" unicode="&#x169;" horiz-adv-x="585" 
d="M267 -13q-91 0 -144 56t-53 146v271h86v-264q0 -59 30.5 -94t89.5 -35q58 0 100.5 42t42.5 112v239h86v-460h-86v50q-53 -63 -152 -63zM370 610q43 0 43 90h72q0 -77 -30.5 -120.5t-85.5 -43.5q-29 0 -58.5 22.5t-54 45t-41.5 22.5q-43 0 -43 -90h-72q0 76 31 120t85 44
q30 0 60 -22.5t54.5 -45t39.5 -22.5z" />
    <glyph glyph-name="Umacron" unicode="&#x16a;" horiz-adv-x="736" 
d="M80 275v389h90v-389q0 -100 52 -152t146 -52t146 52t52 152v389h90v-389q0 -137 -77.5 -212.5t-210.5 -75.5t-210.5 75.5t-77.5 212.5zM193 818h351v-74h-351v74z" />
    <glyph glyph-name="umacron" unicode="&#x16b;" horiz-adv-x="585" 
d="M267 -13q-91 0 -144 56t-53 146v271h86v-264q0 -59 30.5 -94t89.5 -35q58 0 100.5 42t42.5 112v239h86v-460h-86v50q-53 -63 -152 -63zM117 639h351v-74h-351v74z" />
    <glyph glyph-name="Ubreve" unicode="&#x16c;" horiz-adv-x="736" 
d="M80 275v389h90v-389q0 -100 52 -152t146 -52t146 52t52 152v389h90v-389q0 -137 -77.5 -212.5t-210.5 -75.5t-210.5 75.5t-77.5 212.5zM369 726q-74 0 -127 46.5t-61 118.5h77q8 -39 39 -65t72 -26q40 0 71 26t39 65h77q-8 -71 -61 -118t-126 -47z" />
    <glyph glyph-name="ubreve" unicode="&#x16d;" horiz-adv-x="585" 
d="M267 -13q-91 0 -144 56t-53 146v271h86v-264q0 -59 30.5 -94t89.5 -35q58 0 100.5 42t42.5 112v239h86v-460h-86v50q-53 -63 -152 -63zM292 608q43 0 73 33.5t34 77.5h75q-6 -77 -57 -131t-125 -54t-125 54t-57 131h75q4 -44 34 -77.5t73 -33.5z" />
    <glyph glyph-name="Uring" unicode="&#x16e;" horiz-adv-x="736" 
d="M80 275v389h90v-389q0 -100 52 -152t146 -52t146 52t52 152v389h90v-389q0 -137 -77.5 -212.5t-210.5 -75.5t-210.5 75.5t-77.5 212.5zM233 845q0 56 39.5 95.5t95.5 39.5t95.5 -39.5t39.5 -95.5t-39.5 -95.5t-95.5 -39.5t-95.5 39.5t-39.5 95.5zM303 845
q0 -28 18.5 -46.5t46.5 -18.5t46.5 18.5t18.5 46.5t-18.5 46.5t-46.5 18.5t-46.5 -18.5t-18.5 -46.5z" />
    <glyph glyph-name="uring" unicode="&#x16f;" horiz-adv-x="585" 
d="M267 -13q-91 0 -144 56t-53 146v271h86v-264q0 -59 30.5 -94t89.5 -35q58 0 100.5 42t42.5 112v239h86v-460h-86v50q-53 -63 -152 -63zM157 655q0 56 39.5 95.5t95.5 39.5t95.5 -39.5t39.5 -95.5t-39.5 -95.5t-95.5 -39.5t-95.5 39.5t-39.5 95.5zM227 655
q0 -28 18.5 -46.5t46.5 -18.5t46.5 18.5t18.5 46.5t-18.5 46.5t-46.5 18.5t-46.5 -18.5t-18.5 -46.5z" />
    <glyph glyph-name="Uhungarumlaut" unicode="&#x170;" horiz-adv-x="736" 
d="M80 275v389h90v-389q0 -100 52 -152t146 -52t146 52t52 152v389h90v-389q0 -137 -77.5 -212.5t-210.5 -75.5t-210.5 75.5t-77.5 212.5zM509 891h94l-142 -166h-94zM355 891h94l-142 -166h-94z" />
    <glyph glyph-name="uhungarumlaut" unicode="&#x171;" horiz-adv-x="585" 
d="M267 -13q-91 0 -144 56t-53 146v271h86v-264q0 -59 30.5 -94t89.5 -35q58 0 100.5 42t42.5 112v239h86v-460h-86v50q-53 -63 -152 -63zM425 719h94l-142 -185h-94zM271 719h94l-142 -185h-94z" />
    <glyph glyph-name="Uogonek" unicode="&#x172;" horiz-adv-x="736" 
d="M80 275v389h90v-389q0 -100 52 -152t146 -52t146 52t52 152v389h90v-389q0 -103 -38.5 -162.5t-121.5 -112.5q-93 -58 -93 -98q0 -33 49 -33h44v-73h-48q-125 0 -125 88q0 48 70 104q-8 -1 -25 -1q-133 0 -210.5 75.5t-77.5 212.5z" />
    <glyph glyph-name="uogonek" unicode="&#x173;" horiz-adv-x="585" 
d="M267 -13q-91 0 -144 56t-53 146v271h86v-264q0 -59 30.5 -94t89.5 -35q58 0 100.5 42t42.5 112v239h86v-460q-93 -58 -93 -98q0 -33 49 -33h44v-73h-48q-125 0 -125 88q0 56 87 116v50q-53 -63 -152 -63z" />
    <glyph glyph-name="Wcircumflex" unicode="&#x174;" horiz-adv-x="1058" 
d="M10 664h97l186 -548l183 548h105l187 -547l184 547h96l-226 -664h-105l-189 558l-185 -558h-105zM333 725l150 166h93l150 -166h-94l-102 111l-102 -111h-95z" />
    <glyph glyph-name="wcircumflex" unicode="&#x175;" horiz-adv-x="835" 
d="M20 460h92l131 -350l131 350h92l130 -350l132 350h87l-172 -460h-94l-132 350l-132 -350h-93zM221 534l149 185h95l149 -185h-92l-104 124l-104 -124h-93z" />
    <glyph glyph-name="Ycircumflex" unicode="&#x176;" horiz-adv-x="590" 
d="M296 331l198 333h96l-250 -417v-247h-90v247l-250 417h99zM99 725l150 166h93l150 -166h-94l-102 111l-102 -111h-95z" />
    <glyph glyph-name="ycircumflex" unicode="&#x177;" horiz-adv-x="523" 
d="M216 6l-203 454h97l154 -347l155 347h91l-217 -485q-47 -108 -68 -134q-32 -41 -95 -44q-9 -1 -21 -1h-44v76h28q40 0 60 18t44 72zM60 534l149 185h95l149 -185h-92l-104 124l-104 -124h-93z" />
    <glyph glyph-name="Ydieresis" unicode="&#x178;" horiz-adv-x="590" 
d="M296 331l198 333h96l-250 -417v-247h-90v247l-250 417h99zM339 744v100h96v-100h-96zM156 744v100h96v-100h-96z" />
    <glyph glyph-name="Zacute" unicode="&#x179;" horiz-adv-x="638" 
d="M583 664v-87l-421 -493h421v-84h-527v86l420 494h-421v84h528zM388 891h94l-142 -166h-94z" />
    <glyph glyph-name="zacute" unicode="&#x17a;" horiz-adv-x="496" 
d="M451 0h-406v76l292 308h-292v76h401v-76l-293 -308h298v-76zM326 719h94l-142 -185h-94z" />
    <glyph glyph-name="Zdotaccent" unicode="&#x17b;" horiz-adv-x="638" 
d="M583 664v-87l-421 -493h421v-84h-527v86l420 494h-421v84h528zM271 754v100h96v-100h-96z" />
    <glyph glyph-name="zdotaccent" unicode="&#x17c;" horiz-adv-x="496" 
d="M451 0h-406v76l292 308h-292v76h401v-76l-293 -308h298v-76zM204 565v104h100v-104h-100z" />
    <glyph glyph-name="Zcaron" unicode="&#x17d;" horiz-adv-x="638" 
d="M583 664v-87l-421 -493h421v-84h-527v86l420 494h-421v84h528zM511 891l-146 -166h-101l-146 166h94l102 -114l102 114h95z" />
    <glyph glyph-name="zcaron" unicode="&#x17e;" horiz-adv-x="496" 
d="M451 0h-406v76l292 308h-292v76h401v-76l-293 -308h298v-76zM202 534l-149 185h93l104 -124l104 124h92l-149 -185h-95z" />
    <glyph glyph-name="longs" unicode="&#x17f;" horiz-adv-x="318" 
d="M166 0h-86v524q0 65 44.5 105t128.5 40h60v-76h-60q-42 0 -64.5 -21.5t-22.5 -57.5v-514z" />
    <glyph glyph-name="uni018F" unicode="&#x18f;" horiz-adv-x="752" 
d="M169 499h-99q36 82 115 130t180 48q150 0 246 -99.5t96 -245.5q0 -147 -96 -246t-240 -99t-235 98.5t-91 245.5q0 23 1 39h569q-12 97 -82 160t-168 63q-133 0 -196 -94zM371 71q93 0 161 60.5t82 154.5h-476q12 -94 76.5 -154.5t156.5 -60.5z" />
    <glyph glyph-name="florin" unicode="&#x192;" horiz-adv-x="474" 
d="M49 362h148l23 162q20 145 192 145h62l-11 -76h-62q-84 0 -96 -79l-22 -152h148l-11 -76h-147l-49 -345q-21 -145 -194 -145h-60l11 76h60q42 0 67.5 21.5t30.5 57.5l47 335h-148z" />
    <glyph glyph-name="uni01B5" unicode="&#x1b5;" horiz-adv-x="638" 
d="M583 664v-87l-174 -203h146v-84h-217l-176 -206h421v-84h-527v86l173 204h-141v84h213l175 206h-421v84h528z" />
    <glyph glyph-name="uni01B6" unicode="&#x1b6;" horiz-adv-x="496" 
d="M451 0h-406v76l109 115h-82v76h154l111 117h-292v76h401v-76l-112 -117h92v-76h-164l-109 -115h298v-76z" />
    <glyph glyph-name="Icaron" unicode="&#x1cf;" horiz-adv-x="260" 
d="M175 664v-664h-90v664h90zM328 891l-146 -166h-101l-146 166h94l102 -114l102 114h95z" />
    <glyph glyph-name="icaron" unicode="&#x1d0;" horiz-adv-x="250" 
d="M82 460h86v-460h-86v460zM79 534l-149 185h93l104 -124l104 124h92l-149 -185h-95z" />
    <glyph glyph-name="Aringacute" unicode="&#x1fa;" horiz-adv-x="681" 
d="M205 701q0 56 39.5 95.5t95.5 39.5t95.5 -39.5t39.5 -95.5q0 -66 -54 -108l260 -593h-96l-67 154h-358l-67 -154h-93l260 592q-55 40 -55 109zM482 237l-143 329l-143 -329h286zM275 701q0 -28 18.5 -46.5t46.5 -18.5t46.5 18.5t18.5 46.5t-18.5 46.5t-46.5 18.5
t-46.5 -18.5t-18.5 -46.5zM402 1024h94l-108 -141h-94z" />
    <glyph glyph-name="aringacute" unicode="&#x1fb;" horiz-adv-x="554" 
d="M337 982h94l-108 -141h-94zM136 655q0 56 39.5 95.5t95.5 39.5t95.5 -39.5t39.5 -95.5t-39.5 -95.5t-95.5 -39.5t-95.5 39.5t-39.5 95.5zM206 655q0 -28 18.5 -46.5t46.5 -18.5t46.5 18.5t18.5 46.5t-18.5 46.5t-46.5 18.5t-46.5 -18.5t-18.5 -46.5zM264 473
q100 0 160 -47.5t60 -132.5v-293h-86v50q-58 -63 -160 -63q-84 0 -135.5 39t-51.5 114q0 78 56.5 113.5t145.5 35.5h145q0 104 -134 104q-44 0 -79.5 -17.5t-49.5 -49.5h-95q19 69 81 108t143 39zM398 184v30h-146q-115 0 -115 -74q0 -73 110 -73q69 0 110 32.5t41 84.5z
" />
    <glyph glyph-name="AEacute" unicode="&#x1fc;" horiz-adv-x="997" 
d="M932 580h-360v-206h353v-84h-353v-206h360v-84h-450v154h-277l-109 -154h-106l473 664h469v-84zM263 237h219v309zM695 891h94l-142 -166h-94z" />
    <glyph glyph-name="aeacute" unicode="&#x1fd;" horiz-adv-x="907" 
d="M857 236q0 -29 -2 -38h-371q8 -57 50.5 -94t101.5 -37q86 0 122 62h93q-24 -66 -81.5 -104t-133.5 -38q-127 0 -194 94q-28 -41 -81.5 -67.5t-122.5 -26.5q-84 0 -135.5 39t-51.5 114q0 78 56.5 113.5t145.5 35.5h146q0 104 -135 104q-44 0 -79.5 -17.5t-49.5 -49.5h-95
q19 69 81 108t143 39q132 0 189 -78q70 78 178 78q97 0 161.5 -68.5t64.5 -168.5zM399 184v30h-147q-115 0 -115 -74q0 -73 110 -73q69 0 110.5 32.5t41.5 84.5zM485 273h282q-8 55 -44 87.5t-92 32.5q-59 0 -98.5 -32.5t-47.5 -87.5zM535 719h94l-142 -185h-94z" />
    <glyph glyph-name="Oslashacute" unicode="&#x1fe;" horiz-adv-x="794" 
d="M397 677q109 0 198 -62l54 62h105l-101 -114q85 -98 85 -231q0 -147 -98 -246t-243 -99q-110 0 -198 61l-54 -61h-105l100 113q-84 97 -84 232q0 147 98 246t243 99zM397 593q-107 0 -179 -74.5t-72 -186.5q0 -94 53 -165l339 384q-62 42 -141 42zM648 332q0 93 -53 164
l-339 -383q61 -42 141 -42q107 0 179 74.5t72 186.5zM474 891h94l-142 -166h-94z" />
    <glyph glyph-name="oslashacute" unicode="&#x1ff;" horiz-adv-x="567" 
d="M368 719h94l-142 -185h-94zM534 473l-67 -82q58 -69 58 -161q0 -104 -69 -173.5t-172 -69.5q-65 0 -123 32l-26 -32h-102l67 82q-57 68 -57 161q0 104 68.5 173.5t172.5 69.5q66 0 122 -32l26 32h102zM284 67q67 0 111 47t44 116q0 54 -27 94l-198 -241q31 -16 70 -16z
M129 230q0 -53 26 -94l198 241q-31 16 -69 16q-68 0 -111.5 -46.5t-43.5 -116.5z" />
    <glyph glyph-name="uni0218" unicode="&#x218;" horiz-adv-x="614" 
d="M25 165h98q24 -43 74.5 -68.5t115.5 -25.5q75 0 124 31.5t49 79.5q0 47 -34 72t-107 33l-116 12q-95 9 -140.5 57t-45.5 122q0 89 69.5 144t186.5 55q112 0 182.5 -53t97.5 -125h-98q-20 42 -70 68t-115 26q-75 0 -119 -32t-44 -79q0 -89 123 -101l125 -13
q92 -10 143.5 -58t51.5 -123q0 -80 -70 -140t-193 -60q-120 0 -191 51.5t-97 126.5zM312 -251h-60l57 95h-56v101h111v-111z" />
    <glyph glyph-name="uni0219" unicode="&#x219;" horiz-adv-x="520" 
d="M485 330h-94q-30 63 -139 63q-51 0 -81 -17t-30 -46q0 -28 23.5 -41t71.5 -17l93 -7q151 -13 151 -134q0 -61 -55.5 -102.5t-148.5 -41.5q-96 0 -158.5 42t-77.5 105h94q29 -67 153 -67q46 0 76.5 16.5t30.5 45.5q0 28 -23.5 41.5t-72.5 17.5l-96 8q-147 14 -147 131
q0 62 54.5 104t143.5 42q97 0 156 -40.5t76 -102.5zM264 -251h-60l57 95h-56v101h111v-111z" />
    <glyph glyph-name="uni021A" unicode="&#x21a;" horiz-adv-x="600" 
d="M25 664h550v-84h-230v-580h-90v580h-230v84zM303 -232h-60l57 95h-56v101h111v-111z" />
    <glyph glyph-name="uni021B" unicode="&#x21b;" horiz-adv-x="393" 
d="M115 586h86v-126h147v-76h-147v-218q0 -46 20 -68t64 -22h63v-76h-71q-77 0 -119.5 37.5t-42.5 110.5v236h-85v76h85v126zM247 -232h-60l57 95h-56v101h111v-111z" />
    <glyph glyph-name="uni0259" unicode="&#x259;" horiz-adv-x="562" 
d="M276 393q-90 0 -126 -62h-93q24 67 82.5 104.5t136.5 37.5q103 0 169.5 -69t66.5 -175q0 -104 -66.5 -173t-169.5 -69q-99 0 -162.5 68.5t-63.5 168.5q0 29 2 38h371q-8 57 -49 94t-98 37zM276 67q59 0 98.5 32.5t47.5 87.5h-282q8 -55 44 -87.5t92 -32.5z" />
    <glyph glyph-name="circumflex" unicode="&#x2c6;" horiz-adv-x="513" 
d="M60 534l149 185h95l149 -185h-92l-104 124l-104 -124h-93z" />
    <glyph glyph-name="caron" unicode="&#x2c7;" horiz-adv-x="513" 
d="M209 534l-149 185h93l104 -124l104 124h92l-149 -185h-95z" />
    <glyph glyph-name="uni02C9" unicode="&#x2c9;" horiz-adv-x="471" 
d="M60 639h351v-74h-351v74z" />
    <glyph glyph-name="breve" unicode="&#x2d8;" horiz-adv-x="480" 
d="M240 608q43 0 73 33.5t34 77.5h75q-6 -77 -57 -131t-125 -54t-125 54t-57 131h75q4 -44 34 -77.5t73 -33.5z" />
    <glyph glyph-name="dotaccent" unicode="&#x2d9;" horiz-adv-x="216" 
d="M58 565v104h100v-104h-100z" />
    <glyph glyph-name="ring" unicode="&#x2da;" horiz-adv-x="390" 
d="M60 655q0 56 39.5 95.5t95.5 39.5t95.5 -39.5t39.5 -95.5t-39.5 -95.5t-95.5 -39.5t-95.5 39.5t-39.5 95.5zM130 655q0 -28 18.5 -46.5t46.5 -18.5t46.5 18.5t18.5 46.5t-18.5 46.5t-46.5 18.5t-46.5 -18.5t-18.5 -46.5z" />
    <glyph glyph-name="ogonek" unicode="&#x2db;" horiz-adv-x="299" 
d="M150 0h86q-93 -58 -93 -98q0 -33 49 -33h44v-73h-48q-125 0 -125 88q0 54 87 116z" />
    <glyph glyph-name="tilde" unicode="&#x2dc;" horiz-adv-x="505" 
d="M330 610q43 0 43 90h72q0 -77 -30.5 -120.5t-85.5 -43.5q-29 0 -58.5 22.5t-54 45t-41.5 22.5q-43 0 -43 -90h-72q0 76 31 120t85 44q30 0 60 -22.5t54.5 -45t39.5 -22.5z" />
    <glyph glyph-name="hungarumlaut" unicode="&#x2dd;" horiz-adv-x="510" 
d="M356 719h94l-142 -185h-94zM202 719h94l-142 -185h-94z" />
    <glyph glyph-name="accent" unicode="&#x301;" horiz-adv-x="2" 
d="M-196 719h94l-142 -185h-94z" />
    <glyph glyph-name="pi" unicode="&#x3c0;" horiz-adv-x="571" 
d="M197 0h-86v384h-86v76h521v-76h-86v-384h-86v384h-177v-384z" />
    <glyph glyph-name="uni0401" unicode="&#x401;" horiz-adv-x="600" 
d="M535 580h-360v-206h353v-84h-353v-206h360v-84h-450v664h450v-84zM354 744v100h96v-100h-96zM171 744v100h96v-100h-96z" />
    <glyph glyph-name="uni0402" unicode="&#x402;" horiz-adv-x="796" 
d="M479 409q124 0 200.5 -53t76.5 -151q0 -100 -68 -152.5t-189 -52.5h-65v84h55q177 0 177 120q0 60 -49 90.5t-138 30.5q-80 0 -174 -17v-308h-90v580h-200v84h520v-84h-230v-190q90 19 174 19z" />
    <glyph glyph-name="uni0403" unicode="&#x403;" horiz-adv-x="566" 
d="M85 664h456v-84h-366v-580h-90v664zM391 891h94l-142 -166h-94z" />
    <glyph glyph-name="uni0404" unicode="&#x404;" horiz-adv-x="715" 
d="M382 593q-96 0 -165 -61.5t-79 -157.5h360v-84h-360q12 -97 79.5 -158t164.5 -61q123 0 191 94h102q-41 -83 -117 -130.5t-176 -47.5q-144 0 -240.5 98t-96.5 247t96.5 247t240.5 98q100 0 176 -47.5t117 -130.5h-102q-68 94 -191 94z" />
    <glyph glyph-name="uni0405" unicode="&#x405;" horiz-adv-x="614" 
d="M25 165h98q24 -43 74.5 -68.5t115.5 -25.5q75 0 124 31.5t49 79.5q0 47 -34 72t-107 33l-116 12q-95 9 -140.5 57t-45.5 122q0 89 69.5 144t186.5 55q112 0 182.5 -53t97.5 -125h-98q-20 42 -70 68t-115 26q-75 0 -119 -32t-44 -79q0 -89 123 -101l125 -13
q92 -10 143.5 -58t51.5 -123q0 -80 -70 -140t-193 -60q-120 0 -191 51.5t-97 126.5z" />
    <glyph glyph-name="uni0406" unicode="&#x406;" horiz-adv-x="260" 
d="M175 664v-664h-90v664h90z" />
    <glyph glyph-name="uni0407" unicode="&#x407;" horiz-adv-x="260" 
d="M175 664v-664h-90v664h90zM175 744v100h96v-100h-96zM-8 744v100h96v-100h-96z" />
    <glyph glyph-name="uni0408" unicode="&#x408;" horiz-adv-x="407" 
d="M237 664h90v-484q0 -86 -52.5 -133t-141.5 -47h-128v84h128q104 0 104 96v484z" />
    <glyph glyph-name="uni0409" unicode="&#x409;" horiz-adv-x="1105" 
d="M154 664h466v-266h218q112 0 169.5 -56t57.5 -143t-57.5 -143t-169.5 -56h-308v580h-286v-222q0 -51 -1.5 -85.5t-7 -80.5t-18 -76.5t-32 -59t-51.5 -42.5t-75 -14h-44v86h28q21 0 37 5.5t27.5 19t20 26t13 36.5l7.5 40t4.5 47.5t1.5 47.5v50v306zM975 199
q0 56 -36.5 85.5t-100.5 29.5h-218v-230h218q64 0 100.5 29.5t36.5 85.5z" />
    <glyph glyph-name="uni040A" unicode="&#x40a;" horiz-adv-x="1138" 
d="M1098 199q0 -87 -57.5 -143t-169.5 -56h-308v290h-388v-290h-90v664h90v-290h388v290h90v-266h218q112 0 169.5 -56t57.5 -143zM1008 199q0 56 -36.5 85.5t-100.5 29.5h-218v-230h218q64 0 100.5 29.5t36.5 85.5z" />
    <glyph glyph-name="uni040B" unicode="&#x40b;" horiz-adv-x="811" 
d="M756 0h-90v189q0 73 -41 105t-136 32q-98 0 -184 -19v-307h-90v580h-200v84h520v-84h-230v-190q95 20 182 20q143 0 206 -53.5t63 -168.5v-188z" />
    <glyph glyph-name="uni040C" unicode="&#x40c;" horiz-adv-x="612" 
d="M252 332l355 -332h-120l-312 287v-287h-90v664h90v-287l312 287h120zM377 891h94l-142 -166h-94z" />
    <glyph glyph-name="uni040E" unicode="&#x40e;" horiz-adv-x="603" 
d="M22 664h94l203 -393l194 393h93l-252 -510q-44 -92 -77.5 -123t-99.5 -31h-67v84h52q37 0 58.5 14t39.5 52l12 25zM120 882h76q6 -42 39 -71.5t78 -29.5t78 29.5t39 71.5h76q-6 -75 -60.5 -125t-132.5 -50t-132.5 50t-60.5 125z" />
    <glyph glyph-name="uni040F" unicode="&#x40f;" horiz-adv-x="717" 
d="M542 664h90v-664h-229v-147h-90v147h-228v664h90v-580h367v580z" />
    <glyph glyph-name="uni0410" unicode="&#x410;" horiz-adv-x="681" 
d="M160 154l-67 -154h-93l292 664h98l291 -664h-96l-67 154h-358zM482 237l-143 329l-143 -329h286z" />
    <glyph glyph-name="uni0411" unicode="&#x411;" horiz-adv-x="660" 
d="M620 199q0 -87 -57.5 -143t-169.5 -56h-308v664h495v-84h-405v-182h218q112 0 169.5 -56t57.5 -143zM530 199q0 56 -36.5 85.5t-100.5 29.5h-218v-230h218q64 0 100.5 29.5t36.5 85.5z" />
    <glyph glyph-name="uni0412" unicode="&#x412;" horiz-adv-x="655" 
d="M85 664h312q83 0 143 -46.5t60 -140.5t-78 -145q78 -51 78 -145t-60 -140.5t-143 -46.5h-312v664zM510 187q0 50 -31 76.5t-83 26.5h-221v-206h221q52 0 83 26.5t31 76.5zM510 477q0 50 -31 76.5t-83 26.5h-221v-206h221q52 0 83 26.5t31 76.5z" />
    <glyph glyph-name="uni0413" unicode="&#x413;" horiz-adv-x="566" 
d="M85 664h456v-84h-366v-580h-90v664z" />
    <glyph glyph-name="uni0414" unicode="&#x414;" horiz-adv-x="752" 
d="M717 -147h-90v147h-519v-147h-90v231h65q78 74 78 281v299h466v-580h90v-231zM251 580v-214q0 -188 -58 -282h344v496h-286z" />
    <glyph glyph-name="uni0415" unicode="&#x415;" horiz-adv-x="600" 
d="M535 580h-360v-206h353v-84h-353v-206h360v-84h-450v664h450v-84z" />
    <glyph glyph-name="uni0416" unicode="&#x416;" horiz-adv-x="914" 
d="M10 0l326 332l-326 332h117l285 -288v288h90v-288l285 288h117l-326 -332l326 -332h-117l-285 288v-288h-90v288l-285 -288h-117z" />
    <glyph glyph-name="uni0417" unicode="&#x417;" horiz-adv-x="635" 
d="M485 187q0 49 -33.5 76t-91.5 27h-165v84h165q56 0 89 28.5t33 74.5q0 59 -48.5 87.5t-122.5 28.5q-65 0 -112 -25.5t-68 -68.5h-98q23 70 96.5 124t181.5 54q69 0 126 -19.5t96 -66.5t39 -116q0 -93 -86 -143q89 -50 89 -145q0 -93 -78 -146.5t-187 -53.5
q-116 0 -185 51.5t-95 126.5h98q51 -94 182 -94q74 0 124.5 29.5t50.5 86.5z" />
    <glyph glyph-name="uni0418" unicode="&#x418;" horiz-adv-x="746" 
d="M85 664h90v-539l385 539h101v-664h-90v539l-385 -539h-101v664z" />
    <glyph glyph-name="uni0419" unicode="&#x419;" horiz-adv-x="746" 
d="M85 664h90v-539l385 539h101v-664h-90v539l-385 -539h-101v664zM180 882h76q6 -42 39 -71.5t78 -29.5t78 29.5t39 71.5h76q-6 -75 -60.5 -125t-132.5 -50t-132.5 50t-60.5 125z" />
    <glyph glyph-name="uni041A" unicode="&#x41a;" horiz-adv-x="612" 
d="M252 332l355 -332h-120l-312 287v-287h-90v664h90v-287l312 287h120z" />
    <glyph glyph-name="uni041B" unicode="&#x41b;" horiz-adv-x="705" 
d="M154 664h466v-664h-90v580h-286v-222q0 -51 -1.5 -85.5t-7 -80.5t-18 -76.5t-32 -59t-51.5 -42.5t-75 -14h-44v86h28q21 0 37 5.5t27.5 19t20 26t13 36.5l7.5 40t4.5 47.5t1.5 47.5v50v306z" />
    <glyph glyph-name="uni041C" unicode="&#x41c;" horiz-adv-x="956" 
d="M759 664h112v-664h-90v516l-252 -516h-102l-252 516v-516h-90v664h114l280 -574z" />
    <glyph glyph-name="uni041D" unicode="&#x41d;" horiz-adv-x="738" 
d="M653 0h-90v290h-388v-290h-90v664h90v-290h388v290h90v-664z" />
    <glyph glyph-name="uni041E" unicode="&#x41e;" horiz-adv-x="772" 
d="M386 677q145 0 243 -99t98 -246t-98 -246t-243 -99t-243 99t-98 246t98 246t243 99zM386 593q-107 0 -179 -74.5t-72 -186.5t72 -186.5t179 -74.5t179 74.5t72 186.5t-72 186.5t-179 74.5z" />
    <glyph glyph-name="uni041F" unicode="&#x41f;" horiz-adv-x="727" 
d="M642 0h-90v580h-377v-580h-90v664h557v-664z" />
    <glyph glyph-name="uni0420" unicode="&#x420;" horiz-adv-x="660" 
d="M620 469q0 -92 -58 -143.5t-154 -51.5h-233v-274h-90v664h323q96 0 154 -51.5t58 -143.5zM530 469q0 53 -33.5 82t-88.5 29h-233v-222h233q55 0 88.5 29t33.5 82z" />
    <glyph glyph-name="uni0421" unicode="&#x421;" horiz-adv-x="715" 
d="M386 593q-107 0 -179 -74.5t-72 -186.5t72 -186.5t179 -74.5q119 0 187 94h102q-41 -83 -115.5 -130.5t-173.5 -47.5q-145 0 -243 99t-98 246t98 246t243 99q99 0 173.5 -47.5t115.5 -130.5h-102q-68 94 -187 94z" />
    <glyph glyph-name="uni0422" unicode="&#x422;" horiz-adv-x="600" 
d="M25 664h550v-84h-230v-580h-90v580h-230v84z" />
    <glyph glyph-name="uni0423" unicode="&#x423;" horiz-adv-x="603" 
d="M22 664h94l203 -393l194 393h93l-252 -510q-44 -92 -77.5 -123t-99.5 -31h-67v84h52q37 0 58.5 14t39.5 52l12 25z" />
    <glyph glyph-name="uni0424" unicode="&#x424;" horiz-adv-x="886" 
d="M554 521h-65v-363h65q81 0 139 47t58 135t-57.5 134.5t-139.5 46.5zM333 158h66v363h-66q-82 0 -139.5 -46.5t-57.5 -134.5t57.5 -135t139.5 -47zM399 -17v91h-66q-122 0 -205 72t-83 194t83 193.5t205 71.5h66v79h90v-79h65q123 0 205 -71.5t82 -193.5t-82 -194
t-205 -72h-65v-91h-90z" />
    <glyph glyph-name="uni0425" unicode="&#x425;" horiz-adv-x="610" 
d="M493 0l-188 261l-188 -261h-102l238 332l-238 332h103l187 -260l187 260h103l-239 -332l239 -332h-102z" />
    <glyph glyph-name="uni0426" unicode="&#x426;" horiz-adv-x="757" 
d="M542 664h90v-580h90v-231h-90v147h-547v664h90v-580h367v580z" />
    <glyph glyph-name="uni0427" unicode="&#x427;" horiz-adv-x="681" 
d="M55 664h90v-189q0 -73 41 -105t136 -32q98 0 184 19v307h90v-664h-90v274q-95 -20 -182 -20q-143 0 -206 53.5t-63 168.5v188z" />
    <glyph glyph-name="uni0428" unicode="&#x428;" horiz-adv-x="1010" 
d="M925 0h-840v664h90v-580h285v580h90v-580h285v580h90v-664z" />
    <glyph glyph-name="uni0429" unicode="&#x429;" horiz-adv-x="1050" 
d="M550 84h285v580h90v-580h90v-231h-90v147h-840v664h90v-580h285v580h90v-580z" />
    <glyph glyph-name="uni042A" unicode="&#x42a;" horiz-adv-x="761" 
d="M721 199q0 -87 -57.5 -143t-169.5 -56h-308v580h-171v84h261v-266h218q112 0 169.5 -56t57.5 -143zM631 199q0 56 -36.5 85.5t-100.5 29.5h-218v-230h218q64 0 100.5 29.5t36.5 85.5z" />
    <glyph glyph-name="uni042B" unicode="&#x42b;" horiz-adv-x="868" 
d="M783 664v-664h-90v664h90zM600 199q0 -87 -57.5 -143t-169.5 -56h-288v664h90v-266h198q112 0 169.5 -56t57.5 -143zM510 199q0 56 -36.5 85.5t-100.5 29.5h-198v-230h198q64 0 100.5 29.5t36.5 85.5z" />
    <glyph glyph-name="uni042C" unicode="&#x42c;" horiz-adv-x="660" 
d="M620 199q0 -87 -57.5 -143t-169.5 -56h-308v664h90v-266h218q112 0 169.5 -56t57.5 -143zM530 199q0 56 -36.5 85.5t-100.5 29.5h-218v-230h218q64 0 100.5 29.5t36.5 85.5z" />
    <glyph glyph-name="uni042D" unicode="&#x42d;" horiz-adv-x="710" 
d="M328 593q-123 0 -191 -94h-102q41 83 117 130.5t176 47.5q144 0 240.5 -98t96.5 -247t-96.5 -247t-240.5 -98q-100 0 -176 47.5t-117 130.5h102q68 -94 191 -94q97 0 164.5 61t79.5 158h-360v84h360q-10 96 -79 157.5t-165 61.5z" />
    <glyph glyph-name="uni042E" unicode="&#x42e;" horiz-adv-x="1029" 
d="M650 677q142 0 238 -99t96 -246t-96 -246t-238 -99q-132 0 -225 85.5t-107 217.5h-143v-290h-90v664h90v-290h143q14 132 107 217.5t225 85.5zM650 593q-105 0 -174.5 -74t-69.5 -187t69.5 -187t174.5 -74t174.5 74t69.5 187t-69.5 187t-174.5 74z" />
    <glyph glyph-name="uni042F" unicode="&#x42f;" horiz-adv-x="666" 
d="M46 469q0 92 58 143.5t154 51.5h323v-664h-90v274h-142l-209 -274h-112l209 274q-87 6 -139 57t-52 138zM136 469q0 -53 33.5 -82t88.5 -29h233v222h-233q-55 0 -88.5 -29t-33.5 -82z" />
    <glyph glyph-name="uni0430" unicode="&#x430;" horiz-adv-x="554" 
d="M264 473q100 0 160 -47.5t60 -132.5v-293h-86v50q-58 -63 -160 -63q-84 0 -135.5 39t-51.5 114q0 78 56.5 113.5t145.5 35.5h145q0 104 -134 104q-44 0 -79.5 -17.5t-49.5 -49.5h-95q19 69 81 108t143 39zM398 184v30h-146q-115 0 -115 -74q0 -73 110 -73q69 0 110 32.5
t41 84.5z" />
    <glyph glyph-name="uni0431" unicode="&#x431;" horiz-adv-x="590" 
d="M306 457q99 0 166.5 -68.5t67.5 -167.5q0 -98 -69 -166t-172 -68q-115 0 -177 77t-62 203q0 161 45 243.5t158 94.5l95 10q73 8 82 54h86q-4 -52 -37.5 -86.5t-99.5 -42.5l-119 -12q-115 -13 -126 -143q56 72 162 72zM299 67q67 0 111 44.5t44 109.5q0 67 -43.5 112
t-111.5 45q-66 0 -109.5 -45t-43.5 -112q0 -65 43.5 -109.5t109.5 -44.5z" />
    <glyph glyph-name="uni0432" unicode="&#x432;" horiz-adv-x="556" 
d="M442 230q64 -33 64 -106q0 -54 -37.5 -89t-109.5 -35h-279v460h275q72 0 109.5 -34.5t37.5 -89.5q0 -72 -60 -106zM166 76h184q70 0 70 58t-70 58h-184v-116zM166 268h180q70 0 70 58t-70 58h-180v-116z" />
    <glyph glyph-name="uni0433" unicode="&#x433;" horiz-adv-x="467" 
d="M80 460h357v-76h-271v-384h-86v460z" />
    <glyph glyph-name="uni0434" unicode="&#x434;" horiz-adv-x="618" 
d="M578 -126h-86v126h-386v-126h-86v202h54q57 53 57 193v191h372v-384h75v-202zM217 384v-114q0 -129 -40 -194h240v308h-200z" />
    <glyph glyph-name="uni0435" unicode="&#x435;" horiz-adv-x="562" 
d="M291 67q86 0 122 62h93q-24 -66 -81.5 -104t-133.5 -38q-104 0 -172.5 69t-68.5 175q0 104 66.5 173t169.5 69q97 0 161.5 -68.5t64.5 -168.5q0 -29 -2 -38h-371q8 -57 50.5 -94t101.5 -37zM286 393q-59 0 -98.5 -32.5t-47.5 -87.5h282q-8 55 -44 87.5t-92 32.5z" />
    <glyph glyph-name="uni0436" unicode="&#x436;" horiz-adv-x="716" 
d="M315 460h86v-195l196 195h109l-232 -232l232 -228h-115l-190 186v-186h-86v186l-190 -186h-115l232 228l-232 232h109l196 -195v195z" />
    <glyph glyph-name="uni0437" unicode="&#x437;" horiz-adv-x="536" 
d="M478 326q0 -63 -60 -96q63 -36 63 -99q0 -61 -59 -102.5t-151 -41.5q-93 0 -152 41.5t-74 105.5h98q29 -67 136 -67q49 0 82.5 18.5t33.5 50.5q0 27 -19.5 41.5t-52.5 14.5h-111v76h109q33 0 52 14.5t19 41.5q0 32 -33 51t-83 19q-102 0 -132 -63h-95q18 63 74 102.5
t152 39.5q78 0 140.5 -37t62.5 -110z" />
    <glyph glyph-name="uni0438" unicode="&#x438;" horiz-adv-x="601" 
d="M166 0h-86v460h86v-335l269 335h86v-460h-86v335z" />
    <glyph glyph-name="uni0439" unicode="&#x439;" horiz-adv-x="601" 
d="M166 0h-86v460h86v-335l269 335h86v-460h-86v335zM300 602q42 0 71 26t35 66h76q-6 -70 -58 -118t-124 -48q-73 0 -124.5 48t-57.5 118h75q6 -40 35 -66t72 -26z" />
    <glyph glyph-name="uni043A" unicode="&#x43a;" horiz-adv-x="512" 
d="M80 460h86v-201l221 201h115l-255 -230l255 -230h-115l-221 189v-189h-86v460z" />
    <glyph glyph-name="uni043B" unicode="&#x43b;" horiz-adv-x="573" 
d="M125 460h368v-460h-86v384h-196v-119q0 -42 -2 -72.5t-11.5 -70t-26 -63.5t-47.5 -41.5t-75 -17.5h-29v81h18q30 0 49 16t26.5 48t9.5 56t2 64v195z" />
    <glyph glyph-name="uni043C" unicode="&#x43c;" horiz-adv-x="717" 
d="M551 304l-149 -304h-87l-149 304v-304h-86v460h98l181 -370l182 370h96v-460h-86v304z" />
    <glyph glyph-name="uni043D" unicode="&#x43d;" horiz-adv-x="601" 
d="M435 460h86v-460h-86v194h-269v-194h-86v460h86v-190h269v190z" />
    <glyph glyph-name="uni043E" unicode="&#x43e;" horiz-adv-x="582" 
d="M291 473q103 0 172 -69.5t69 -173.5t-69 -173.5t-172 -69.5q-104 0 -172.5 69.5t-68.5 173.5t68.5 173.5t172.5 69.5zM291 67q67 0 111 47t44 116q0 70 -43.5 116.5t-111.5 46.5t-111.5 -46.5t-43.5 -116.5q0 -69 44 -116t111 -47z" />
    <glyph glyph-name="uni043F" unicode="&#x43f;" horiz-adv-x="593" 
d="M80 460h433v-460h-86v384h-261v-384h-86v460z" />
    <glyph glyph-name="uni0440" unicode="&#x440;" horiz-adv-x="604" 
d="M166 -204h-86v664h86v-50q57 63 155 63q109 0 171 -71t62 -172t-62 -172t-171 -71q-98 0 -155 63v-254zM163 230q0 -78 45.5 -120.5t109.5 -42.5q65 0 107.5 47.5t42.5 115.5t-42.5 115.5t-107.5 47.5q-64 0 -109.5 -42.5t-45.5 -120.5z" />
    <glyph glyph-name="uni0441" unicode="&#x441;" horiz-adv-x="552" 
d="M507 326h-94q-39 67 -123 67q-67 0 -110.5 -46.5t-43.5 -116.5t43.5 -116.5t110.5 -46.5q84 0 123 67h94q-25 -68 -83 -107.5t-134 -39.5q-102 0 -171 69.5t-69 173.5t69 173.5t171 69.5q76 0 134 -39.5t83 -107.5z" />
    <glyph glyph-name="uni0442" unicode="&#x442;" horiz-adv-x="482" 
d="M20 384v76h442v-76h-178v-384h-86v384h-178z" />
    <glyph glyph-name="uni0443" unicode="&#x443;" horiz-adv-x="523" 
d="M216 6l-203 454h97l154 -347l155 347h91l-217 -485q-47 -108 -68 -134q-32 -41 -95 -44q-9 -1 -21 -1h-44v76h28q40 0 60 18t44 72z" />
    <glyph glyph-name="uni0444" unicode="&#x444;" horiz-adv-x="766" 
d="M340 669h86v-209h46q106 0 175 -65t69 -164q0 -105 -65 -168t-179 -63h-46v-204h-86v204h-46q-114 0 -179 63t-65 168q0 99 69 164t175 65h46v209zM469 384h-43v-308h44q78 0 119 43t41 112q0 67 -43.5 110t-117.5 43zM340 384h-43q-74 0 -117.5 -43t-43.5 -110
q0 -69 41 -112t119 -43h44v308z" />
    <glyph glyph-name="uni0445" unicode="&#x445;" horiz-adv-x="521" 
d="M499 460l-187 -227l189 -233h-105l-138 169l-139 -169h-99l188 230l-186 230h107l133 -165l134 165h103z" />
    <glyph glyph-name="uni0446" unicode="&#x446;" horiz-adv-x="628" 
d="M588 -126h-86v126h-422v460h86v-384h261v384h86v-384h75v-202z" />
    <glyph glyph-name="uni0447" unicode="&#x447;" horiz-adv-x="561" 
d="M55 311v149h86v-141q0 -45 26.5 -63.5t91.5 -18.5q53 0 136 13v210h86v-460h-86v170q-61 -13 -133 -13q-207 0 -207 154z" />
    <glyph glyph-name="uni0448" unicode="&#x448;" horiz-adv-x="820" 
d="M740 0h-660v460h86v-384h201v384h86v-384h201v384h86v-460z" />
    <glyph glyph-name="uni0449" unicode="&#x449;" horiz-adv-x="855" 
d="M815 -126h-86v126h-649v460h86v-384h201v384h86v-384h201v384h86v-384h75v-202z" />
    <glyph glyph-name="uni044A" unicode="&#x44a;" horiz-adv-x="609" 
d="M246 308h160q85 0 129 -43.5t44 -110.5t-44 -110.5t-129 -43.5h-246v384h-145v76h231v-152zM246 76h157q43 0 66.5 20t23.5 58t-23.5 58t-66.5 20h-157v-156z" />
    <glyph glyph-name="uni044B" unicode="&#x44b;" horiz-adv-x="723" 
d="M557 460h86v-460h-86v460zM166 308h140q85 0 129 -43.5t44 -110.5t-44 -110.5t-129 -43.5h-226v460h86v-152zM166 76h137q43 0 66.5 20t23.5 58t-23.5 58t-66.5 20h-137v-156z" />
    <glyph glyph-name="uni044C" unicode="&#x44c;" horiz-adv-x="529" 
d="M166 308h160q85 0 129 -43.5t44 -110.5t-44 -110.5t-129 -43.5h-246v460h86v-152zM166 76h157q43 0 66.5 20t23.5 58t-23.5 58t-66.5 20h-157v-156z" />
    <glyph glyph-name="uni044D" unicode="&#x44d;" horiz-adv-x="552" 
d="M184 192v76h228q-10 56 -50 90.5t-97 34.5q-86 0 -125 -67h-95q25 67 84 107t136 40q102 0 169.5 -69t67.5 -174t-67.5 -174t-169.5 -69q-77 0 -136 40t-84 107h95q39 -67 125 -67q57 0 97 34.5t50 90.5h-228z" />
    <glyph glyph-name="uni044E" unicode="&#x44e;" horiz-adv-x="780" 
d="M166 270h95q12 89 77 146t156 57q101 0 168.5 -69.5t67.5 -173.5t-67.5 -173.5t-168.5 -69.5q-92 0 -157 58t-77 149h-94v-194h-86v460h86v-190zM494 67q66 0 108 47t42 116q0 70 -42 116.5t-108 46.5t-108 -46.5t-42 -116.5q0 -69 42 -116t108 -47z" />
    <glyph glyph-name="uni044F" unicode="&#x44f;" horiz-adv-x="534" 
d="M368 152h-107l-130 -152h-113l137 160q-55 15 -82.5 54t-27.5 92q0 67 44 110.5t129 43.5h236v-460h-86v152zM368 384h-147q-43 0 -66.5 -20t-23.5 -58t23.5 -58t66.5 -20h147v156z" />
    <glyph glyph-name="uni0451" unicode="&#x451;" horiz-adv-x="562" 
d="M291 67q86 0 122 62h93q-24 -66 -81.5 -104t-133.5 -38q-104 0 -172.5 69t-68.5 175q0 104 66.5 173t169.5 69q97 0 161.5 -68.5t64.5 -168.5q0 -29 -2 -38h-371q8 -57 50.5 -94t101.5 -37zM286 393q-59 0 -98.5 -32.5t-47.5 -87.5h282q-8 55 -44 87.5t-92 32.5zM326 565
v99h96v-99h-96zM143 565v99h96v-99h-96z" />
    <glyph glyph-name="uni0452" unicode="&#x452;" horiz-adv-x="600" 
d="M530 271v-327q0 -73 -42.5 -110.5t-119.5 -37.5h-71v76h63q44 0 64 22t20 68v302q0 59 -31 94t-92 35q-59 0 -102.5 -42t-43.5 -112v-239h-86v526h-79v76h79v67h86v-67h153v-76h-153v-116q53 63 155 63q93 0 146.5 -56t53.5 -146z" />
    <glyph glyph-name="uni0453" unicode="&#x453;" horiz-adv-x="467" 
d="M80 460h357v-76h-271v-384h-86v460zM332 719h94l-142 -185h-94z" />
    <glyph glyph-name="uni0454" unicode="&#x454;" horiz-adv-x="552" 
d="M368 268v-76h-228q10 -56 50 -90.5t97 -34.5q86 0 125 67h95q-25 -67 -84 -107t-136 -40q-102 0 -169.5 69t-67.5 174t67.5 174t169.5 69q77 0 136 -40t84 -107h-95q-39 67 -125 67q-57 0 -97 -34.5t-50 -90.5h228z" />
    <glyph glyph-name="uni0455" unicode="&#x455;" horiz-adv-x="520" 
d="M485 330h-94q-30 63 -139 63q-51 0 -81 -17t-30 -46q0 -28 23.5 -41t71.5 -17l93 -7q151 -13 151 -134q0 -61 -55.5 -102.5t-148.5 -41.5q-96 0 -158.5 42t-77.5 105h94q29 -67 153 -67q46 0 76.5 16.5t30.5 45.5q0 28 -23.5 41.5t-72.5 17.5l-96 8q-147 14 -147 131
q0 62 54.5 104t143.5 42q97 0 156 -40.5t76 -102.5z" />
    <glyph glyph-name="uni0456" unicode="&#x456;" horiz-adv-x="250" 
d="M82 460h86v-460h-86v460zM75 565v104h100v-104h-100z" />
    <glyph glyph-name="uni0457" unicode="&#x457;" horiz-adv-x="250" 
d="M82 460h86v-460h-86v460zM170 565v99h96v-99h-96zM-13 565v99h96v-99h-96z" />
    <glyph glyph-name="uni0458" unicode="&#x458;" horiz-adv-x="268" 
d="M91 565v104h100v-104h-100zM98 460h86v-516q0 -73 -42.5 -110.5t-119.5 -37.5h-71v76h63q44 0 64 22t20 68v498z" />
    <glyph glyph-name="uni0459" unicode="&#x459;" horiz-adv-x="856" 
d="M493 308h160q85 0 129 -43.5t44 -110.5t-44 -110.5t-129 -43.5h-246v384h-196v-119q0 -42 -2 -72.5t-11.5 -70t-26 -63.5t-47.5 -41.5t-75 -17.5h-29v81h18q30 0 49 16t26.5 48t9.5 56t2 64v195h368v-152zM493 76h157q43 0 66.5 20t23.5 58t-23.5 58t-66.5 20h-157v-156z
" />
    <glyph glyph-name="uni045A" unicode="&#x45a;" horiz-adv-x="884" 
d="M435 460h86v-152h160q85 0 129 -43.5t44 -110.5t-44 -110.5t-129 -43.5h-246v194h-269v-194h-86v460h86v-190h269v190zM521 76h157q43 0 66.5 20t23.5 58t-23.5 58t-66.5 20h-157v-156z" />
    <glyph glyph-name="uni045B" unicode="&#x45b;" horiz-adv-x="600" 
d="M330 473q93 0 146.5 -56t53.5 -146v-271h-86v264q0 59 -31 94t-92 35q-59 0 -102.5 -42t-43.5 -112v-239h-86v526h-79v76h79v67h86v-67h153v-76h-153v-116q53 63 155 63z" />
    <glyph glyph-name="uni045C" unicode="&#x45c;" horiz-adv-x="512" 
d="M80 460h86v-201l221 201h115l-255 -230l255 -230h-115l-221 189v-189h-86v460zM353 719h94l-142 -185h-94z" />
    <glyph glyph-name="uni045E" unicode="&#x45e;" horiz-adv-x="523" 
d="M216 6l-203 454h97l154 -347l155 347h91l-217 -485q-47 -108 -68 -134q-32 -41 -95 -44q-9 -1 -21 -1h-44v76h28q40 0 60 18t44 72zM260 602q42 0 71 26t35 66h76q-6 -70 -58 -118t-124 -48q-73 0 -124.5 48t-57.5 118h75q6 -40 35 -66t72 -26z" />
    <glyph glyph-name="uni045F" unicode="&#x45f;" horiz-adv-x="593" 
d="M340 -126h-86v126h-174v460h86v-384h261v384h86v-460h-173v-126z" />
    <glyph glyph-name="uni0490" unicode="&#x490;" horiz-adv-x="566" 
d="M85 664h366v139h90v-223h-366v-580h-90v664z" />
    <glyph glyph-name="uni0491" unicode="&#x491;" horiz-adv-x="467" 
d="M351 576h86v-192h-271v-384h-86v460h271v116z" />
    <glyph glyph-name="uni0492" unicode="&#x492;" horiz-adv-x="602" 
d="M441 374v-84h-230v-290h-90v290h-101v84h101v290h456v-84h-366v-206h230z" />
    <glyph glyph-name="uni0493" unicode="&#x493;" horiz-adv-x="486" 
d="M20 252h79v208h357v-76h-271v-132h175v-76h-175v-176h-86v176h-79v76z" />
    <glyph glyph-name="uni049A" unicode="&#x49a;" horiz-adv-x="630" 
d="M252 332l265 -248h90v-231h-90v147h-30l-312 287v-287h-90v664h90v-287l312 287h120z" />
    <glyph glyph-name="uni049B" unicode="&#x49b;" horiz-adv-x="532" 
d="M502 -126h-86v126h-29l-221 189v-189h-86v460h86v-201l221 201h115l-255 -230l170 -154h85v-202z" />
    <glyph glyph-name="uni04A2" unicode="&#x4a2;" horiz-adv-x="778" 
d="M563 664h90v-580h90v-231h-90v147h-90v290h-388v-290h-90v664h90v-290h388v290z" />
    <glyph glyph-name="uni04A3" unicode="&#x4a3;" horiz-adv-x="636" 
d="M596 -126h-86v126h-75v194h-269v-194h-86v460h86v-190h269v190h86v-384h75v-202z" />
    <glyph glyph-name="uni04AE" unicode="&#x4ae;" horiz-adv-x="590" 
d="M296 331l198 333h96l-250 -417v-247h-90v247l-250 417h99z" />
    <glyph glyph-name="uni04AF" unicode="&#x4af;" horiz-adv-x="517" 
d="M507 460l-205 -458v-206h-86v204l-206 460h97l154 -347l155 347h91z" />
    <glyph glyph-name="uni04B0" unicode="&#x4b0;" horiz-adv-x="590" 
d="M296 331l198 333h96l-218 -363h144v-84h-176v-217h-90v217h-173v84h140l-217 363h99z" />
    <glyph glyph-name="uni04B1" unicode="&#x4b1;" horiz-adv-x="517" 
d="M507 460l-182 -406h140v-76h-163v-182h-86v182h-163v76h139l-182 406h97l154 -347l155 347h91z" />
    <glyph glyph-name="uni04BA" unicode="&#x4ba;" horiz-adv-x="681" 
d="M626 0h-90v189q0 73 -41 105t-136 32q-98 0 -184 -19v-307h-90v664h90v-274q95 20 182 20q143 0 206 -53.5t63 -168.5v-188z" />
    <glyph glyph-name="uni04BB" unicode="&#x4bb;" horiz-adv-x="591" 
d="M321 473q93 0 146.5 -56t53.5 -146v-271h-86v264q0 59 -31 94t-92 35q-59 0 -102.5 -42t-43.5 -112v-239h-86v669h86v-259q53 63 155 63z" />
    <glyph glyph-name="uni04D8" unicode="&#x4d8;" horiz-adv-x="752" 
d="M169 499h-99q36 82 115 130t180 48q150 0 246 -99.5t96 -245.5q0 -147 -96 -246t-240 -99t-235 98.5t-91 245.5q0 23 1 39h569q-12 97 -82 160t-168 63q-133 0 -196 -94zM371 71q93 0 161 60.5t82 154.5h-476q12 -94 76.5 -154.5t156.5 -60.5z" />
    <glyph glyph-name="uni04D9" unicode="&#x4d9;" horiz-adv-x="562" 
d="M276 393q-90 0 -126 -62h-93q24 67 82.5 104.5t136.5 37.5q103 0 169.5 -69t66.5 -175q0 -104 -66.5 -173t-169.5 -69q-99 0 -162.5 68.5t-63.5 168.5q0 29 2 38h371q-8 57 -49 94t-98 37zM276 67q59 0 98.5 32.5t47.5 87.5h-282q8 -55 44 -87.5t92 -32.5z" />
    <glyph glyph-name="uni04E8" unicode="&#x4e8;" horiz-adv-x="772" 
d="M386 677q145 0 243 -98t98 -247t-98 -247t-243 -98t-243 98t-98 247t98 247t243 98zM386 593q-98 0 -167 -61t-81 -158h496q-12 97 -81 158t-167 61zM386 71q98 0 167 60.5t81 158.5h-496q12 -98 81 -158.5t167 -60.5z" />
    <glyph glyph-name="uni04E9" unicode="&#x4e9;" horiz-adv-x="582" 
d="M291 473q104 0 172.5 -69t68.5 -174t-68.5 -174t-172.5 -69t-172.5 68.5t-68.5 174.5t68.5 174.5t172.5 68.5zM291 67q60 0 101 35t50 92h-303q10 -57 51 -92t101 -35zM291 393q-59 0 -99.5 -33t-51.5 -90h302q-11 57 -51.5 90t-99.5 33z" />
    <glyph glyph-name="uni1E02" unicode="&#x1e02;" horiz-adv-x="655" 
d="M85 664h312q83 0 143 -46.5t60 -140.5t-78 -145q78 -51 78 -145t-60 -140.5t-143 -46.5h-312v664zM510 187q0 50 -31 76.5t-83 26.5h-221v-206h221q52 0 83 26.5t31 76.5zM510 477q0 50 -31 76.5t-83 26.5h-221v-206h221q52 0 83 26.5t31 76.5zM278 754v100h96v-100h-96z
" />
    <glyph glyph-name="uni1E03" unicode="&#x1e03;" horiz-adv-x="604" 
d="M80 669h86v-259q57 63 155 63q109 0 171 -71t62 -172t-62 -172t-171 -71q-98 0 -155 63v-50h-86v669zM163 230q0 -78 45.5 -120.5t109.5 -42.5q65 0 107.5 47.5t42.5 115.5t-42.5 115.5t-107.5 47.5q-64 0 -109.5 -42.5t-45.5 -120.5zM274 754v100h96v-100h-96z" />
    <glyph glyph-name="uni1E0A" unicode="&#x1e0a;" horiz-adv-x="717" 
d="M85 664h223q168 0 266 -95.5t98 -236.5t-98 -236.5t-266 -95.5h-223v664zM582 332q0 112 -72 180t-196 68h-139v-496h139q124 0 196 68t72 180zM301 754v100h96v-100h-96z" />
    <glyph glyph-name="uni1E0B" unicode="&#x1e0b;" horiz-adv-x="604" 
d="M438 669h86v-669h-86v50q-57 -63 -155 -63q-109 0 -171 71t-62 172t62 172t171 71q98 0 155 -63v259zM441 230q0 78 -45.5 120.5t-109.5 42.5q-65 0 -107.5 -47.5t-42.5 -115.5t42.5 -115.5t107.5 -47.5q64 0 109.5 42.5t45.5 120.5zM245 754v100h96v-100h-96z" />
    <glyph glyph-name="uni1E1E" unicode="&#x1e1e;" horiz-adv-x="580" 
d="M535 580h-360v-206h353v-84h-353v-290h-90v664h450v-84zM269 754v100h96v-100h-96z" />
    <glyph glyph-name="uni1E1F" unicode="&#x1e1f;" horiz-adv-x="353" 
d="M186 0h-86v384h-85v76h85v61q0 73 42.5 110.5t119.5 37.5h71v-76h-63q-44 0 -64 -22t-20 -68v-43h147v-76h-147v-384zM148 754v100h96v-100h-96z" />
    <glyph glyph-name="uni1E40" unicode="&#x1e40;" horiz-adv-x="956" 
d="M759 664h112v-664h-90v516l-252 -516h-102l-252 516v-516h-90v664h114l280 -574zM431 754v100h96v-100h-96z" />
    <glyph glyph-name="uni1E41" unicode="&#x1e41;" horiz-adv-x="931" 
d="M775 0v268q0 58 -30.5 91.5t-89.5 33.5q-57 0 -99.5 -41.5t-42.5 -110.5v-241h-86v268q0 58 -30.5 91.5t-89.5 33.5q-57 0 -99 -41t-42 -108v-244h-86v460h86v-50q52 63 148 63q116 0 171 -86q66 86 177 86q92 0 145.5 -55t53.5 -144v-274h-86zM415 565v104h100v-104
h-100z" />
    <glyph glyph-name="uni1E56" unicode="&#x1e56;" horiz-adv-x="660" 
d="M620 469q0 -92 -58 -143.5t-154 -51.5h-233v-274h-90v664h323q96 0 154 -51.5t58 -143.5zM530 469q0 53 -33.5 82t-88.5 29h-233v-222h233q55 0 88.5 29t33.5 82zM284 754v100h96v-100h-96z" />
    <glyph glyph-name="uni1E57" unicode="&#x1e57;" horiz-adv-x="604" 
d="M166 -204h-86v664h86v-50q57 63 155 63q109 0 171 -71t62 -172t-62 -172t-171 -71q-98 0 -155 63v-254zM163 230q0 -78 45.5 -120.5t109.5 -42.5q65 0 107.5 47.5t42.5 115.5t-42.5 115.5t-107.5 47.5q-64 0 -109.5 -42.5t-45.5 -120.5zM262 565v104h100v-104h-100z" />
    <glyph glyph-name="uni1E60" unicode="&#x1e60;" horiz-adv-x="614" 
d="M25 165h98q24 -43 74.5 -68.5t115.5 -25.5q75 0 124 31.5t49 79.5q0 47 -34 72t-107 33l-116 12q-95 9 -140.5 57t-45.5 122q0 89 69.5 144t186.5 55q112 0 182.5 -53t97.5 -125h-98q-20 42 -70 68t-115 26q-75 0 -119 -32t-44 -79q0 -89 123 -101l125 -13
q92 -10 143.5 -58t51.5 -123q0 -80 -70 -140t-193 -60q-120 0 -191 51.5t-97 126.5zM259 754v100h96v-100h-96z" />
    <glyph glyph-name="uni1E61" unicode="&#x1e61;" horiz-adv-x="520" 
d="M485 330h-94q-30 63 -139 63q-51 0 -81 -17t-30 -46q0 -28 23.5 -41t71.5 -17l93 -7q151 -13 151 -134q0 -61 -55.5 -102.5t-148.5 -41.5q-96 0 -158.5 42t-77.5 105h94q29 -67 153 -67q46 0 76.5 16.5t30.5 45.5q0 28 -23.5 41.5t-72.5 17.5l-96 8q-147 14 -147 131
q0 62 54.5 104t143.5 42q97 0 156 -40.5t76 -102.5zM215 565v104h100v-104h-100z" />
    <glyph glyph-name="uni1E6A" unicode="&#x1e6a;" horiz-adv-x="600" 
d="M25 664h550v-84h-230v-580h-90v580h-230v84zM252 754v100h96v-100h-96z" />
    <glyph glyph-name="uni1E6B" unicode="&#x1e6b;" horiz-adv-x="393" 
d="M115 586h86v-126h147v-76h-147v-218q0 -46 20 -68t64 -22h63v-76h-71q-77 0 -119.5 37.5t-42.5 110.5v236h-85v76h85v126zM108 684v104h100v-104h-100z" />
    <glyph glyph-name="Wgrave" unicode="&#x1e80;" horiz-adv-x="1058" 
d="M10 664h97l186 -548l183 548h105l187 -547l184 547h96l-226 -664h-105l-189 558l-185 -558h-105zM335 891h94l142 -166h-94z" />
    <glyph glyph-name="wgrave" unicode="&#x1e81;" horiz-adv-x="835" 
d="M20 460h92l131 -350l131 350h92l130 -350l132 350h87l-172 -460h-94l-132 350l-132 -350h-93zM226 719h94l142 -185h-94z" />
    <glyph glyph-name="Wacute" unicode="&#x1e82;" horiz-adv-x="1058" 
d="M10 664h97l186 -548l183 548h105l187 -547l184 547h96l-226 -664h-105l-189 558l-185 -558h-105zM627 891h94l-142 -166h-94z" />
    <glyph glyph-name="wacute" unicode="&#x1e83;" horiz-adv-x="835" 
d="M20 460h92l131 -350l131 350h92l130 -350l132 350h87l-172 -460h-94l-132 350l-132 -350h-93zM511 719h94l-142 -185h-94z" />
    <glyph glyph-name="Wdieresis" unicode="&#x1e84;" horiz-adv-x="1058" 
d="M10 664h97l186 -548l183 548h105l187 -547l184 547h96l-226 -664h-105l-189 558l-185 -558h-105zM573 744v100h96v-100h-96zM390 744v100h96v-100h-96z" />
    <glyph glyph-name="wdieresis" unicode="&#x1e85;" horiz-adv-x="835" 
d="M20 460h92l131 -350l131 350h92l130 -350l132 350h87l-172 -460h-94l-132 350l-132 -350h-93zM461 565v99h96v-99h-96zM278 565v99h96v-99h-96z" />
    <glyph glyph-name="uni1E9E" unicode="&#x1e9e;" horiz-adv-x="677" 
d="M175 0h-90v484q0 86 52.5 133t141.5 47h322v-84l-186 -199q104 -4 155.5 -57t51.5 -133q0 -83 -56 -137t-163 -54h-140v84h137q62 0 97 27t35 80q0 52 -35 79t-97 27h-90v84l183 199h-214q-104 0 -104 -96v-484z" />
    <glyph glyph-name="Ygrave" unicode="&#x1ef2;" horiz-adv-x="590" 
d="M296 331l198 333h96l-250 -417v-247h-90v247l-250 417h99zM112 891h94l142 -166h-94z" />
    <glyph glyph-name="ygrave" unicode="&#x1ef3;" horiz-adv-x="523" 
d="M216 6l-203 454h97l154 -347l155 347h91l-217 -485q-47 -108 -68 -134q-32 -41 -95 -44q-9 -1 -21 -1h-44v76h28q40 0 60 18t44 72zM78 719h94l142 -185h-94z" />
    <glyph glyph-name="uni2011" unicode="&#x2011;" horiz-adv-x="400" 
d="M70 296h260v-81h-260v81z" />
    <glyph glyph-name="endash" unicode="&#x2013;" horiz-adv-x="592" 
d="M45 296h502v-81h-502v81z" />
    <glyph glyph-name="emdash" unicode="&#x2014;" horiz-adv-x="908" 
d="M45 296h818v-81h-818v81z" />
    <glyph glyph-name="quoteleft" unicode="&#x2018;" horiz-adv-x="231" 
d="M125 664h63l-70 -117h53v-111h-111v121z" />
    <glyph glyph-name="quoteright" unicode="&#x2019;" horiz-adv-x="231" 
d="M106 436h-63l70 117h-53v111h111v-121z" />
    <glyph glyph-name="quotesinglbase" unicode="&#x201a;" horiz-adv-x="231" 
d="M106 -117h-63l70 117h-53v111h111v-121z" />
    <glyph glyph-name="quotedblleft" unicode="&#x201c;" horiz-adv-x="419" 
d="M313 664h63l-70 -117h53v-111h-111v121zM125 664h63l-70 -117h53v-111h-111v121z" />
    <glyph glyph-name="quotedblright" unicode="&#x201d;" horiz-adv-x="419" 
d="M294 436h-63l70 117h-53v111h111v-121zM106 436h-63l70 117h-53v111h111v-121z" />
    <glyph glyph-name="quotedblbase" unicode="&#x201e;" horiz-adv-x="419" 
d="M294 -117h-63l70 117h-53v111h111v-121zM106 -117h-63l70 117h-53v111h111v-121z" />
    <glyph glyph-name="dagger" unicode="&#x2020;" horiz-adv-x="486" 
d="M50 460h150v204h86v-204h150v-82h-150v-534h-86v534h-150v82z" />
    <glyph glyph-name="daggerdbl" unicode="&#x2021;" horiz-adv-x="486" 
d="M200 48h-150v82h150v248h-150v82h150v204h86v-204h150v-82h-150v-248h150v-82h-150v-204h-86v204z" />
    <glyph glyph-name="bullet" unicode="&#x2022;" horiz-adv-x="560" 
d="M80 255q0 82 59 141t141 59t141 -59t59 -141t-59 -141t-141 -59t-141 59t-59 141z" />
    <glyph glyph-name="ellipsis" unicode="&#x2026;" horiz-adv-x="675" 
d="M60 0v111h111v-111h-111zM282 0v111h111v-111h-111zM504 0v111h111v-111h-111z" />
    <glyph glyph-name="perthousand" unicode="&#x2030;" horiz-adv-x="1244" 
d="M1024 325q72 0 121 -48.5t49 -117.5t-49 -117.5t-121 -48.5t-121 48.5t-49 117.5t49 117.5t121 48.5zM1024 68q38 0 63.5 27t25.5 64q0 38 -25.5 65t-63.5 27t-63.5 -27t-25.5 -65q0 -37 25.5 -64t63.5 -27zM288 0h-87l389 664h87zM220 671q72 0 121 -48.5t49 -117.5
t-49 -117.5t-121 -48.5t-121 48.5t-49 117.5t49 117.5t121 48.5zM220 414q38 0 63.5 27t25.5 64q0 38 -25.5 65t-63.5 27t-63.5 -27t-25.5 -65q0 -37 25.5 -64t63.5 -27zM656 325q72 0 121 -48.5t49 -117.5t-49 -117.5t-121 -48.5t-121 48.5t-49 117.5t49 117.5t121 48.5z
M656 68q38 0 63.5 27t25.5 64q0 38 -25.5 65t-63.5 27t-63.5 -27t-25.5 -65q0 -37 25.5 -64t63.5 -27z" />
    <glyph glyph-name="guilsinglleft" unicode="&#x2039;" horiz-adv-x="324" 
d="M182 424h112l-170 -189l170 -189h-112l-132 146v86z" />
    <glyph glyph-name="guilsinglright" unicode="&#x203a;" horiz-adv-x="324" 
d="M30 424h112l132 -146v-86l-132 -146h-112l170 189z" />
    <glyph glyph-name="fraction" unicode="&#x2044;" horiz-adv-x="135" 
d="M-165 0l385 664h80l-386 -664h-79z" />
    <glyph glyph-name="Euro" unicode="&#x20ac;" horiz-adv-x="649" 
d="M445 444l-23 -76h-243q-2 -16 -2 -36q0 -19 2 -33h227l-23 -76h-191q19 -72 66.5 -112t116.5 -40q101 0 152 94h92q-32 -83 -94 -130.5t-150 -47.5q-100 0 -175 64.5t-99 171.5h-81v76h69q-2 16 -2 33q0 18 2 36h-69v76h81q26 106 100 169.5t174 63.5q88 0 150 -47.5
t94 -130.5h-92q-51 94 -152 94q-68 0 -116 -39.5t-66 -109.5h252z" />
    <glyph glyph-name="uni20B4" unicode="&#x20b4;" horiz-adv-x="653" 
d="M557 444h56v-76h-588v76h435q18 21 18 51q0 43 -36.5 70.5t-100.5 27.5q-58 0 -100 -25.5t-60 -68.5h-94q21 71 85.5 124.5t166.5 53.5t165.5 -50.5t63.5 -131.5q0 -34 -11 -51zM613 223h-425q-8 -19 -8 -44q0 -49 40 -78.5t106 -29.5q59 0 102.5 25t64.5 69h92
q-24 -75 -87 -126.5t-172 -51.5q-111 0 -173.5 58.5t-62.5 138.5q0 25 5 39h-70v76h588v-76z" />
    <glyph glyph-name="uni20B8" unicode="&#x20b8;" horiz-adv-x="540" 
d="M25 511h490v-84h-200v-427h-90v427h-200v84zM515 580h-490v84h490v-84z" />
    <glyph glyph-name="uni20BD" unicode="&#x20bd;" horiz-adv-x="636" 
d="M121 274h-91v84h91v306h263q96 0 154 -51.5t58 -143.5t-58 -143.5t-154 -51.5h-173v-69h256v-84h-256v-121h-90v121h-91v84h91v69zM506 469q0 53 -33.5 82t-88.5 29h-173v-222h173q55 0 88.5 29t33.5 82z" />
    <glyph glyph-name="uni2113" unicode="&#x2113;" horiz-adv-x="408" 
d="M156 193v-27q0 -46 20 -68t64 -22h63v-76h-71q-77 0 -119.5 37.5t-42.5 110.5v372q0 76 40 116.5t108 40.5q63 0 101.5 -43t38.5 -110q0 -76 -60.5 -171t-141.5 -160zM156 520v-220q116 128 116 224q0 33 -15 53t-39 20q-62 0 -62 -77z" />
    <glyph glyph-name="uni2116" unicode="&#x2116;" horiz-adv-x="1155" 
d="M769 275h332v-75h-332v75zM591 664h90v-664h-101l-405 536v-536h-90v664h101l405 -536v536zM935 671q72 0 121 -48.5t49 -117.5t-49 -117.5t-121 -48.5t-121 48.5t-49 117.5t49 117.5t121 48.5zM935 414q38 0 63.5 27t25.5 64q0 38 -25.5 65t-63.5 27t-63.5 -27
t-25.5 -65q0 -37 25.5 -64t63.5 -27z" />
    <glyph glyph-name="trademark" unicode="&#x2122;" horiz-adv-x="898" 
d="M30 664h307v-66h-119v-298h-68v298h-120v66zM766 541l-113 -241h-71l-113 241v-241h-68v364h78l139 -295l139 295h77v-364h-68v241z" />
    <glyph glyph-name="Omega" unicode="&#x2126;" horiz-adv-x="778" 
d="M389 677q139 0 236.5 -95.5t97.5 -235.5q0 -142 -97 -266h97v-80h-237v65q43 28 75 67q76 92 76 214q0 103 -72 176.5t-176 73.5t-176 -73.5t-72 -176.5q0 -124 75 -214q33 -40 76 -67v-65h-237v80h97q-97 124 -97 266q0 140 97.5 235.5t236.5 95.5z" />
    <glyph glyph-name="estimated" unicode="&#x212e;" horiz-adv-x="752" 
d="M583 165h99q-36 -82 -115 -130t-180 -48q-150 0 -246 99.5t-96 245.5q0 147 96 246t240 99t235 -98.5t91 -245.5q0 -23 -1 -39h-569q12 -97 82 -160t168 -63q133 0 196 94zM381 593q-93 0 -161 -60.5t-82 -154.5h476q-12 94 -76.5 154.5t-156.5 60.5z" />
    <glyph glyph-name="arrowleft" unicode="&#x2190;" horiz-adv-x="989" 
d="M195 373h739v-81h-741l187 -187h-118l-227 227l227 227h118z" />
    <glyph glyph-name="arrowup" unicode="&#x2191;" horiz-adv-x="544" 
d="M312 623v-741h-81v739l-186 -185v118l227 227l227 -227v-118z" />
    <glyph glyph-name="arrowright" unicode="&#x2192;" horiz-adv-x="989" 
d="M55 373h739l-185 186h118l227 -227l-227 -227h-118l187 187h-741v81z" />
    <glyph glyph-name="arrowdown" unicode="&#x2193;" horiz-adv-x="544" 
d="M312 781v-741l187 187v-118l-227 -227l-227 227v118l186 -185v739h81z" />
    <glyph glyph-name="uni2196" unicode="&#x2196;" horiz-adv-x="755" 
d="M187 580l523 -523l-57 -57l-524 523v-264l-84 84v321h321l84 -84h-263z" />
    <glyph glyph-name="uni2197" unicode="&#x2197;" horiz-adv-x="755" 
d="M45 57l523 523h-263l84 84h321v-321l-84 -84v264l-524 -523z" />
    <glyph glyph-name="uni2198" unicode="&#x2198;" horiz-adv-x="755" 
d="M710 607l-523 -523h263l-84 -84h-321v321l84 84v-264l524 523z" />
    <glyph glyph-name="uni2199" unicode="&#x2199;" horiz-adv-x="755" 
d="M568 84l-523 523l57 57l524 -523v264l84 -84v-321h-321l-84 84h263z" />
    <glyph glyph-name="partialdiff" unicode="&#x2202;" horiz-adv-x="573" 
d="M140 664h97l203 -249q83 -101 83 -198q0 -96 -68 -163t-168 -67q-101 0 -169 66.5t-68 163.5t66.5 164t164.5 67q21 0 37 -4zM287 67q65 0 107.5 43.5t42.5 106.5q0 64 -42.5 107.5t-107.5 43.5t-108 -43.5t-43 -107.5q0 -63 43 -106.5t108 -43.5z" />
    <glyph glyph-name="Delta" unicode="&#x2206;" horiz-adv-x="600" 
d="M343 664l237 -594v-70h-560v70l237 594h86zM111 80h378l-189 474z" />
    <glyph glyph-name="product" unicode="&#x220f;" horiz-adv-x="610" 
d="M30 664h550v-84h-102v-580h-90v580h-166v-580h-90v580h-102v84z" />
    <glyph glyph-name="summation" unicode="&#x2211;" horiz-adv-x="594" 
d="M420 369v-74l-250 -215h384v-80h-514v73l299 259l-299 259v73h514v-80h-384z" />
    <glyph glyph-name="minus" unicode="&#x2212;" horiz-adv-x="545" 
d="M55 296h435v-81h-435v81z" />
    <glyph glyph-name="uni2215" unicode="&#x2215;" horiz-adv-x="465" 
d="M0 0l385 664h80l-386 -664h-79z" />
    <glyph glyph-name="radical" unicode="&#x221a;" horiz-adv-x="654" 
d="M543 664h91l-258 -664h-82l-165 379h-109v81h167l146 -339z" />
    <glyph glyph-name="infinity" unicode="&#x221e;" horiz-adv-x="780" 
d="M556 172q46 0 73.5 29.5t27.5 72.5t-27.5 71.5t-73.5 28.5q-39 0 -70.5 -27.5t-51.5 -72.5q46 -102 122 -102zM224 172q76 0 122 102q-20 45 -51.5 72.5t-70.5 27.5q-46 0 -73.5 -28.5t-27.5 -71.5t27.5 -72.5t73.5 -29.5zM560 452q76 0 128 -50t52 -128
q0 -79 -52 -129.5t-128 -50.5q-59 0 -102.5 32t-67.5 71q-24 -39 -67.5 -71t-102.5 -32q-76 0 -128 50.5t-52 129.5q0 78 52 128t128 50q60 0 103 -30.5t67 -70.5q24 40 67 70.5t103 30.5z" />
    <glyph glyph-name="integral" unicode="&#x222b;" horiz-adv-x="390" 
d="M238 514v-573q0 -65 -44.5 -105t-128.5 -40h-45v76h45q42 0 64.5 21.5t22.5 57.5v573q0 65 44.5 105t128.5 40h45v-76h-45q-42 0 -64.5 -21.5t-22.5 -57.5z" />
    <glyph glyph-name="approxequal" unicode="&#x2248;" horiz-adv-x="545" 
d="M363 167q25 0 36 19.5t11 64.5h80q0 -77 -33 -120.5t-93 -43.5q-34 0 -69 21t-64.5 42t-48.5 21q-25 0 -36 -19.5t-11 -64.5h-80q0 77 33 120.5t93 43.5q34 0 70 -21t65 -42t47 -21zM363 341q25 0 36 19.5t11 64.5h80q0 -77 -33 -120.5t-93 -43.5q-34 0 -69 21t-64.5 42
t-48.5 21q-25 0 -36 -19.5t-11 -64.5h-80q0 77 33 120.5t93 43.5q34 0 70 -21t65 -42t47 -21z" />
    <glyph glyph-name="notequal" unicode="&#x2260;" horiz-adv-x="545" 
d="M55 381h243l55 94h94l-55 -94h98v-82h-146l-49 -85h195v-82h-243l-55 -94h-94l55 94h-98v82h146l49 85h-195v82z" />
    <glyph glyph-name="lessequal" unicode="&#x2264;" horiz-adv-x="545" 
d="M55 81h435v-81h-435v81zM190 307l300 -104v-87l-435 151v81l435 151v-87z" />
    <glyph glyph-name="greaterequal" unicode="&#x2265;" horiz-adv-x="545" 
d="M55 81h435v-81h-435v81zM55 203l300 104l-300 105v87l435 -151v-81l-435 -151v87z" />
    <glyph glyph-name="uni2460" unicode="&#x2460;" horiz-adv-x="830" 
d="M415 677q143 0 244 -101.5t101 -243.5t-101 -243.5t-244 -101.5t-244 101.5t-101 243.5t101 243.5t244 101.5zM415 47q118 0 201.5 83.5t83.5 201.5t-83.5 201.5t-201.5 83.5t-201.5 -83.5t-83.5 -201.5t83.5 -201.5t201.5 -83.5zM388 172v262l-74 -64v78l71 63h70v-339
h-67z" />
    <glyph glyph-name="uni2461" unicode="&#x2461;" horiz-adv-x="830" 
d="M415 677q143 0 244 -101.5t101 -243.5t-101 -243.5t-244 -101.5t-244 101.5t-101 243.5t101 243.5t244 101.5zM415 47q118 0 201.5 83.5t83.5 201.5t-83.5 201.5t-201.5 83.5t-201.5 -83.5t-83.5 -201.5t83.5 -201.5t201.5 -83.5zM390 232h154v-60h-250v60l138 118
q37 33 37 59q0 22 -16 35.5t-40 13.5q-53 0 -64 -49h-68q9 50 43.5 79.5t86.5 29.5q57 0 91 -29t34 -79q0 -54 -50 -96z" />
    <glyph glyph-name="uni2462" unicode="&#x2462;" horiz-adv-x="830" 
d="M415 677q143 0 244 -101.5t101 -243.5t-101 -243.5t-244 -101.5t-244 101.5t-101 243.5t101 243.5t244 101.5zM415 47q118 0 201.5 83.5t83.5 201.5t-83.5 201.5t-201.5 83.5t-201.5 -83.5t-83.5 -201.5t83.5 -201.5t201.5 -83.5zM279 269h66q13 -44 68 -44
q28 0 44.5 12.5t16.5 32.5q0 43 -58 43h-45v61h44q58 0 58 41q0 20 -16 31.5t-44 11.5q-54 0 -67 -42h-67q9 52 45.5 77t87.5 25q57 0 92.5 -30t35.5 -73q0 -45 -40 -71q41 -25 41 -74q0 -44 -35.5 -74.5t-93.5 -30.5q-51 0 -87.5 26t-45.5 78z" />
    <glyph glyph-name="uni2463" unicode="&#x2463;" horiz-adv-x="830" 
d="M415 677q143 0 244 -101.5t101 -243.5t-101 -243.5t-244 -101.5t-244 101.5t-101 243.5t101 243.5t244 101.5zM415 47q118 0 201.5 83.5t83.5 201.5t-83.5 201.5t-201.5 83.5t-201.5 -83.5t-83.5 -201.5t83.5 -201.5t201.5 -83.5zM438 384h66v-81h57v-59h-57v-72h-66v72
h-181v59l167 208h78l-167 -208h103v81z" />
    <glyph glyph-name="uni2464" unicode="&#x2464;" horiz-adv-x="830" 
d="M415 677q143 0 244 -101.5t101 -243.5t-101 -243.5t-244 -101.5t-244 101.5t-101 243.5t101 243.5t244 101.5zM415 47q118 0 201.5 83.5t83.5 201.5t-83.5 201.5t-201.5 83.5t-201.5 -83.5t-83.5 -201.5t83.5 -201.5t201.5 -83.5zM280 269h67q16 -44 67 -44
q30 0 48.5 16.5t18.5 41.5q0 24 -18.5 40t-48.5 16q-38 0 -60 -22h-60l20 194h219v-60h-165l-7 -62q21 10 60 10q51 0 89 -31t38 -85q0 -49 -37 -83.5t-96 -34.5q-54 0 -90 28t-45 76z" />
    <glyph glyph-name="uni2465" unicode="&#x2465;" horiz-adv-x="830" 
d="M415 677q143 0 244 -101.5t101 -243.5t-101 -243.5t-244 -101.5t-244 101.5t-101 243.5t101 243.5t244 101.5zM415 47q118 0 201.5 83.5t83.5 201.5t-83.5 201.5t-201.5 83.5t-201.5 -83.5t-83.5 -201.5t83.5 -201.5t201.5 -83.5zM417 398q53 0 89.5 -33t36.5 -83
q0 -48 -36.5 -82.5t-93.5 -34.5q-65 0 -103 41.5t-38 128.5q0 78 34.5 130.5t108.5 52.5q99 0 125 -94h-68q-15 34 -55 34q-32 0 -52 -23t-25 -63q31 26 77 26zM411 225q28 0 47 16t19 41q0 24 -19 40t-47 16t-47 -16t-19 -40q0 -25 19 -41t47 -16z" />
    <glyph glyph-name="uni2466" unicode="&#x2466;" horiz-adv-x="830" 
d="M415 677q143 0 244 -101.5t101 -243.5t-101 -243.5t-244 -101.5t-244 101.5t-101 243.5t101 243.5t244 101.5zM415 47q118 0 201.5 83.5t83.5 201.5t-83.5 201.5t-201.5 83.5t-201.5 -83.5t-83.5 -201.5t83.5 -201.5t201.5 -83.5zM473 451h-178v60h253v-60l-166 -279h-75
z" />
    <glyph glyph-name="uni2467" unicode="&#x2467;" horiz-adv-x="830" 
d="M415 677q143 0 244 -101.5t101 -243.5t-101 -243.5t-244 -101.5t-244 101.5t-101 243.5t101 243.5t244 101.5zM415 47q118 0 201.5 83.5t83.5 201.5t-83.5 201.5t-201.5 83.5t-201.5 -83.5t-83.5 -201.5t83.5 -201.5t201.5 -83.5zM416 165q-62 0 -98.5 29.5t-36.5 74.5
q0 47 45 75q-41 24 -41 72q0 44 36 73t95 29t94.5 -29t35.5 -73q0 -47 -41 -72q45 -28 45 -75q0 -45 -36.5 -74.5t-97.5 -29.5zM416 225q30 0 48.5 12.5t18.5 32.5t-18 31.5t-49 11.5t-49.5 -11.5t-18.5 -31.5t18.5 -32.5t49.5 -12.5zM479 416q0 18 -17 30t-46 12t-46.5 -12
t-17.5 -30q0 -20 17 -31.5t47 -11.5q29 0 46 11.5t17 31.5z" />
    <glyph glyph-name="uni2468" unicode="&#x2468;" horiz-adv-x="830" 
d="M415 677q143 0 244 -101.5t101 -243.5t-101 -243.5t-244 -101.5t-244 101.5t-101 243.5t101 243.5t244 101.5zM415 47q118 0 201.5 83.5t83.5 201.5t-83.5 201.5t-201.5 83.5t-201.5 -83.5t-83.5 -201.5t83.5 -201.5t201.5 -83.5zM406 285q-53 0 -89.5 33t-36.5 83
q0 48 36.5 82.5t93.5 34.5q65 0 103 -41.5t38 -128.5q0 -79 -33.5 -131t-106.5 -52q-98 0 -124 94h68q15 -34 54 -34q62 0 74 86q-31 -26 -77 -26zM412 458q-28 0 -47 -16t-19 -41q0 -24 19 -40t47 -16t47 16t19 40q0 25 -19 41t-47 16z" />
    <glyph glyph-name="lozenge" unicode="&#x25ca;" horiz-adv-x="565" 
d="M244 0l-189 296v73l189 295h77l189 -295v-73l-189 -296h-77zM282 577l-156 -245l156 -244l157 244z" />
    <glyph glyph-name="circle" unicode="&#x25cb;" horiz-adv-x="830" 
d="M415 677q143 0 244 -101.5t101 -243.5t-101 -243.5t-244 -101.5t-244 101.5t-101 243.5t101 243.5t244 101.5zM415 47q118 0 201.5 83.5t83.5 201.5t-83.5 201.5t-201.5 83.5t-201.5 -83.5t-83.5 -201.5t83.5 -201.5t201.5 -83.5z" />
    <glyph glyph-name="H18533" unicode="&#x25cf;" horiz-adv-x="830" 
d="M415 677q143 0 244 -101.5t101 -243.5t-101 -243.5t-244 -101.5t-244 101.5t-101 243.5t101 243.5t244 101.5z" />
    <glyph glyph-name="uni2776" unicode="&#x2776;" horiz-adv-x="830" 
d="M415 677q143 0 244 -101.5t101 -243.5t-101 -243.5t-244 -101.5t-244 101.5t-101 243.5t101 243.5t244 101.5zM388 433v-262h67v339h-70l-71 -63v-78z" />
    <glyph glyph-name="uni2777" unicode="&#x2777;" horiz-adv-x="830" 
d="M415 677q143 0 244 -101.5t101 -243.5t-101 -243.5t-244 -101.5t-244 101.5t-101 243.5t101 243.5t244 101.5zM544 231h-154l96 82q50 42 50 96q0 50 -34 79t-91 29q-52 0 -86.5 -29.5t-43.5 -79.5h68q11 49 64 49q24 0 40 -13.5t16 -35.5q0 -26 -37 -59l-138 -118v-60
h250v60z" />
    <glyph glyph-name="uni2778" unicode="&#x2778;" horiz-adv-x="830" 
d="M415 677q143 0 244 -101.5t101 -243.5t-101 -243.5t-244 -101.5t-244 101.5t-101 243.5t101 243.5t244 101.5zM345 268h-66q9 -52 45.5 -78t87.5 -26q58 0 93.5 30.5t35.5 74.5q0 49 -41 74q40 26 40 71q0 43 -35.5 73t-92.5 30q-51 0 -87.5 -25t-45.5 -77h67
q13 42 67 42q28 0 44 -11.5t16 -31.5q0 -41 -58 -41h-44v-61h45q58 0 58 -43q0 -20 -16.5 -32.5t-44.5 -12.5q-55 0 -68 44z" />
    <glyph glyph-name="uni2779" unicode="&#x2779;" horiz-adv-x="830" 
d="M415 677q143 0 244 -101.5t101 -243.5t-101 -243.5t-244 -101.5t-244 101.5t-101 243.5t101 243.5t244 101.5zM504 383h-66v-81h-103l167 208h-78l-167 -208v-59h181v-72h66v72h57v59h-57v81z" />
    <glyph glyph-name="uni277A" unicode="&#x277a;" horiz-adv-x="830" 
d="M415 677q143 0 244 -101.5t101 -243.5t-101 -243.5t-244 -101.5t-244 101.5t-101 243.5t101 243.5t244 101.5zM347 268h-67q9 -48 45 -76t90 -28q59 0 96 34.5t37 83.5q0 54 -38 85t-89 31q-39 0 -60 -10l7 62h165v60h-219l-20 -194h60q22 22 60 22q30 0 48.5 -16
t18.5 -40q0 -25 -18.5 -41.5t-48.5 -16.5q-51 0 -67 44z" />
    <glyph glyph-name="uni277B" unicode="&#x277b;" horiz-adv-x="830" 
d="M415 677q143 0 244 -101.5t101 -243.5t-101 -243.5t-244 -101.5t-244 101.5t-101 243.5t101 243.5t244 101.5zM417 397q-46 0 -77 -26q5 40 25 63t52 23q40 0 55 -34h68q-26 94 -125 94q-74 0 -108.5 -52.5t-34.5 -130.5q0 -87 38 -128.5t103 -41.5q57 0 93.5 34.5
t36.5 82.5q0 50 -36.5 83t-89.5 33zM411 224q-28 0 -47 16t-19 41q0 24 19 40t47 16t47 -16t19 -40q0 -25 -19 -41t-47 -16z" />
    <glyph glyph-name="uni277C" unicode="&#x277c;" horiz-adv-x="830" 
d="M415 677q143 0 244 -101.5t101 -243.5t-101 -243.5t-244 -101.5t-244 101.5t-101 243.5t101 243.5t244 101.5zM295 450h178l-166 -279h75l166 279v60h-253v-60z" />
    <glyph glyph-name="uni277D" unicode="&#x277d;" horiz-adv-x="830" 
d="M415 677q143 0 244 -101.5t101 -243.5t-101 -243.5t-244 -101.5t-244 101.5t-101 243.5t101 243.5t244 101.5zM416 164q61 0 97.5 29.5t36.5 74.5q0 47 -45 75q41 25 41 72q0 44 -35.5 73t-94.5 29t-95 -29t-36 -73q0 -48 41 -72q-45 -28 -45 -75q0 -45 36.5 -74.5
t98.5 -29.5zM416 224q-31 0 -49.5 12.5t-18.5 32.5t18.5 31.5t49.5 11.5t49 -11.5t18 -31.5t-18.5 -32.5t-48.5 -12.5zM479 415q0 -20 -17 -31.5t-46 -11.5q-30 0 -47 11.5t-17 31.5q0 18 17.5 30t46.5 12t46 -12t17 -30z" />
    <glyph glyph-name="uni277E" unicode="&#x277e;" horiz-adv-x="830" 
d="M415 677q143 0 244 -101.5t101 -243.5t-101 -243.5t-244 -101.5t-244 101.5t-101 243.5t101 243.5t244 101.5zM414 284q46 0 77 26q-12 -86 -74 -86q-39 0 -54 34h-68q26 -94 124 -94q73 0 106.5 52t33.5 131q0 87 -38 128.5t-103 41.5q-57 0 -93.5 -34.5t-36.5 -82.5
q0 -50 36.5 -83t89.5 -33zM420 457q28 0 47 -16t19 -41q0 -24 -19 -40t-47 -16t-47 16t-19 40q0 25 19 41t47 16z" />
    <glyph glyph-name="Udotaccent" unicode="&#xf47e;" horiz-adv-x="736" 
d="M80 275v389h90v-389q0 -100 52 -152t146 -52t146 52t52 152v389h90v-389q0 -137 -77.5 -212.5t-210.5 -75.5t-210.5 75.5t-77.5 212.5zM320 754v100h96v-100h-96z" />
    <glyph glyph-name="udotaccent" unicode="&#xf47f;" horiz-adv-x="585" 
d="M267 -13q-91 0 -144 56t-53 146v271h86v-264q0 -59 30.5 -94t89.5 -35q58 0 100.5 42t42.5 112v239h86v-460h-86v50q-53 -63 -152 -63zM242 565v104h100v-104h-100z" />
    <glyph glyph-name="Germandbls" unicode="&#xf485;" horiz-adv-x="1224" 
d="M635 165h98q24 -43 74.5 -68.5t115.5 -25.5q75 0 124 31.5t49 79.5q0 47 -34 72t-107 33l-116 12q-95 9 -140.5 57t-45.5 122q0 89 69.5 144t186.5 55q112 0 182.5 -53t97.5 -125h-98q-20 42 -70 68t-115 26q-75 0 -119 -32t-44 -79q0 -89 123 -101l125 -13
q92 -10 143.5 -58t51.5 -123q0 -80 -70 -140t-193 -60q-120 0 -191 51.5t-97 126.5zM25 165h98q24 -43 74.5 -68.5t115.5 -25.5q75 0 124 31.5t49 79.5q0 47 -34 72t-107 33l-116 12q-95 9 -140.5 57t-45.5 122q0 89 69.5 144t186.5 55q112 0 182.5 -53t97.5 -125h-98
q-20 42 -70 68t-115 26q-75 0 -119 -32t-44 -79q0 -89 123 -101l125 -13q92 -10 143.5 -58t51.5 -123q0 -80 -70 -140t-193 -60q-120 0 -191 51.5t-97 126.5z" />
    <glyph glyph-name="commaaccent" unicode="&#xf6c3;" horiz-adv-x="248" 
d="M136 -232h-60l57 95h-56v101h111v-111z" />
    <glyph glyph-name="cyrbreve" unicode="&#xf6d4;" horiz-adv-x="480" 
d="M240 602q42 0 71 26t35 66h76q-6 -70 -58 -118t-124 -48q-73 0 -124.5 48t-57.5 118h75q6 -40 35 -66t72 -26z" />
    <glyph glyph-name="fi" unicode="&#xfb01;" horiz-adv-x="596" 
d="M186 0h-86v384h-85v76h85v61q0 73 42.5 110.5t119.5 37.5h71v-76h-63q-44 0 -64 -22t-20 -68v-43h328v-460h-86v384h-242v-384zM421 565v104h100v-104h-100z" />
    <glyph glyph-name="fl" unicode="&#xfb02;" horiz-adv-x="594" 
d="M186 0h-86v384h-85v76h85v61q0 73 42.5 110.5t119.5 37.5h71v-76h-63q-44 0 -64 -22t-20 -68v-43h242v209h86v-669h-86v384h-242v-384z" />
    <glyph glyph-name="zero.sup" horiz-adv-x="384" 
d="M334 543q0 -29 -7 -57.5t-22 -56.5t-44 -45t-69 -17t-69 17t-44 45t-22 56.5t-7 57.5q0 41 11 78.5t45 68t86 30.5t86 -30.5t45 -68t11 -78.5zM266 543q0 45 -18 81t-56 36t-55.5 -35.5t-17.5 -81.5q0 -45 17.5 -80.5t55.5 -35.5q37 0 55.5 36t18.5 80z" />
    <glyph glyph-name="one.sup" horiz-adv-x="261" 
d="M114 374v262l-74 -64v78l71 63h70v-339h-67z" />
    <glyph glyph-name="two.sup" horiz-adv-x="361" 
d="M157 434h154v-60h-250v60l138 118q37 33 37 59q0 22 -16 35.5t-40 13.5q-53 0 -64 -49h-68q9 50 43.5 79.5t86.5 29.5q57 0 91 -29t34 -79q0 -54 -50 -96z" />
    <glyph glyph-name="three.sup" horiz-adv-x="362" 
d="M50 471h66q13 -44 68 -44q28 0 44.5 12.5t16.5 32.5q0 43 -58 43h-45v61h44q58 0 58 41q0 20 -16 31.5t-44 11.5q-54 0 -67 -42h-67q9 52 45.5 77t87.5 25q57 0 92.5 -30t35.5 -73q0 -45 -40 -71q41 -25 41 -74q0 -44 -35.5 -74.5t-93.5 -30.5q-51 0 -87.5 26t-45.5 78z
" />
    <glyph glyph-name="four.sup" horiz-adv-x="404" 
d="M231 586h66v-81h57v-59h-57v-72h-66v72h-181v59l167 208h78l-167 -208h103v81z" />
    <glyph glyph-name="five.sup" horiz-adv-x="368" 
d="M50 471h67q16 -44 67 -44q30 0 48.5 16.5t18.5 41.5q0 24 -18.5 40t-48.5 16q-38 0 -60 -22h-60l20 194h219v-60h-165l-7 -62q21 10 60 10q51 0 89 -31t38 -85q0 -49 -37 -83.5t-96 -34.5q-54 0 -90 28t-45 76z" />
    <glyph glyph-name="six.sup" horiz-adv-x="371" 
d="M195 600q53 0 89.5 -33t36.5 -83q0 -48 -36.5 -82.5t-93.5 -34.5q-65 0 -103 41.5t-38 128.5q0 78 34.5 130.5t108.5 52.5q99 0 125 -94h-68q-15 34 -55 34q-32 0 -52 -23t-25 -63q31 26 77 26zM189 427q28 0 47 16t19 41q0 24 -19 40t-47 16t-47 -16t-19 -40
q0 -25 19 -41t47 -16z" />
    <glyph glyph-name="seven.sup" horiz-adv-x="353" 
d="M228 653h-178v60h253v-60l-166 -279h-75z" />
    <glyph glyph-name="eight.sup" horiz-adv-x="369" 
d="M185 367q-62 0 -98.5 29.5t-36.5 74.5q0 47 45 75q-41 24 -41 72q0 44 36 73t95 29t94.5 -29t35.5 -73q0 -47 -41 -72q45 -28 45 -75q0 -45 -36.5 -74.5t-97.5 -29.5zM185 427q30 0 48.5 12.5t18.5 32.5t-18 31.5t-49 11.5t-49.5 -11.5t-18.5 -31.5t18.5 -32.5
t49.5 -12.5zM248 618q0 18 -17 30t-46 12t-46.5 -12t-17.5 -30q0 -20 17 -31.5t47 -11.5q29 0 46 11.5t17 31.5z" />
    <glyph glyph-name="nine.sup" horiz-adv-x="371" 
d="M176 487q-53 0 -89.5 33t-36.5 83q0 48 36.5 82.5t93.5 34.5q65 0 103 -41.5t38 -128.5q0 -79 -33.5 -131t-106.5 -52q-98 0 -124 94h68q15 -34 54 -34q62 0 74 86q-31 -26 -77 -26zM182 660q-28 0 -47 -16t-19 -41q0 -24 19 -40t47 -16t47 16t19 40q0 25 -19 41t-47 16z
" />
    <glyph glyph-name="zero.sub" horiz-adv-x="384" 
d="M334 134q0 -29 -7 -57.5t-22 -56.5t-44 -45t-69 -17t-69 17t-44 45t-22 56.5t-7 57.5q0 41 11 78.5t45 68t86 30.5t86 -30.5t45 -68t11 -78.5zM266 134q0 45 -18 81t-56 36t-55.5 -35.5t-17.5 -81.5q0 -45 17.5 -80.5t55.5 -35.5q37 0 55.5 36t18.5 80z" />
    <glyph glyph-name="one.sub" horiz-adv-x="261" 
d="M114 -35v262l-74 -64v78l71 63h70v-339h-67z" />
    <glyph glyph-name="two.sub" horiz-adv-x="361" 
d="M157 25h154v-60h-250v60l138 118q37 33 37 59q0 22 -16 35.5t-40 13.5q-53 0 -64 -49h-68q9 50 43.5 79.5t86.5 29.5q57 0 91 -29t34 -79q0 -54 -50 -96z" />
    <glyph glyph-name="three.sub" horiz-adv-x="362" 
d="M50 62h66q13 -44 68 -44q28 0 44.5 12.5t16.5 32.5q0 43 -58 43h-45v61h44q58 0 58 41q0 20 -16 31.5t-44 11.5q-54 0 -67 -42h-67q9 52 45.5 77t87.5 25q57 0 92.5 -30t35.5 -73q0 -45 -40 -71q41 -25 41 -74q0 -44 -35.5 -74.5t-93.5 -30.5q-51 0 -87.5 26t-45.5 78z
" />
    <glyph glyph-name="four.sub" horiz-adv-x="404" 
d="M231 177h66v-81h57v-59h-57v-72h-66v72h-181v59l167 208h78l-167 -208h103v81z" />
    <glyph glyph-name="five.sub" horiz-adv-x="368" 
d="M50 62h67q16 -44 67 -44q30 0 48.5 16.5t18.5 41.5q0 24 -18.5 40t-48.5 16q-38 0 -60 -22h-60l20 194h219v-60h-165l-7 -62q21 10 60 10q51 0 89 -31t38 -85q0 -49 -37 -83.5t-96 -34.5q-54 0 -90 28t-45 76z" />
    <glyph glyph-name="six.sub" horiz-adv-x="371" 
d="M195 191q53 0 89.5 -33t36.5 -83q0 -48 -36.5 -82.5t-93.5 -34.5q-65 0 -103 41.5t-38 128.5q0 78 34.5 130.5t108.5 52.5q99 0 125 -94h-68q-15 34 -55 34q-32 0 -52 -23t-25 -63q31 26 77 26zM189 18q28 0 47 16t19 41q0 24 -19 40t-47 16t-47 -16t-19 -40
q0 -25 19 -41t47 -16z" />
    <glyph glyph-name="seven.sub" horiz-adv-x="353" 
d="M228 244h-178v60h253v-60l-166 -279h-75z" />
    <glyph glyph-name="eight.sub" horiz-adv-x="369" 
d="M185 -42q-62 0 -98.5 29.5t-36.5 74.5q0 47 45 75q-41 24 -41 72q0 44 36 73t95 29t94.5 -29t35.5 -73q0 -47 -41 -72q45 -28 45 -75q0 -45 -36.5 -74.5t-97.5 -29.5zM185 18q30 0 48.5 12.5t18.5 32.5t-18 31.5t-49 11.5t-49.5 -11.5t-18.5 -31.5t18.5 -32.5t49.5 -12.5
zM248 209q0 18 -17 30t-46 12t-46.5 -12t-17.5 -30q0 -20 17 -31.5t47 -11.5q29 0 46 11.5t17 31.5z" />
    <glyph glyph-name="nine.sub" horiz-adv-x="371" 
d="M176 78q-53 0 -89.5 33t-36.5 83q0 48 36.5 82.5t93.5 34.5q65 0 103 -41.5t38 -128.5q0 -79 -33.5 -131t-106.5 -52q-98 0 -124 94h68q15 -34 54 -34q62 0 74 86q-31 -26 -77 -26zM182 251q-28 0 -47 -16t-19 -41q0 -24 19 -40t47 -16t47 16t19 40q0 25 -19 41t-47 16z
" />
    <glyph glyph-name="zero.numr" horiz-adv-x="384" 
d="M334 495q0 -29 -7 -57.5t-22 -56.5t-44 -45t-69 -17t-69 17t-44 45t-22 56.5t-7 57.5q0 41 11 78.5t45 68t86 30.5t86 -30.5t45 -68t11 -78.5zM266 495q0 45 -18 81t-56 36t-55.5 -35.5t-17.5 -81.5q0 -45 17.5 -80.5t55.5 -35.5q37 0 55.5 36t18.5 80z" />
    <glyph glyph-name="one.numr" horiz-adv-x="261" 
d="M114 326v262l-74 -64v78l71 63h70v-339h-67z" />
    <glyph glyph-name="two.numr" horiz-adv-x="361" 
d="M157 386h154v-60h-250v60l138 118q37 33 37 59q0 22 -16 35.5t-40 13.5q-53 0 -64 -49h-68q9 50 43.5 79.5t86.5 29.5q57 0 91 -29t34 -79q0 -54 -50 -96z" />
    <glyph glyph-name="three.numr" horiz-adv-x="362" 
d="M50 423h66q13 -44 68 -44q28 0 44.5 12.5t16.5 32.5q0 43 -58 43h-45v61h44q58 0 58 41q0 20 -16 31.5t-44 11.5q-54 0 -67 -42h-67q9 52 45.5 77t87.5 25q57 0 92.5 -30t35.5 -73q0 -45 -40 -71q41 -25 41 -74q0 -44 -35.5 -74.5t-93.5 -30.5q-51 0 -87.5 26t-45.5 78z
" />
    <glyph glyph-name="four.numr" horiz-adv-x="404" 
d="M231 538h66v-81h57v-59h-57v-72h-66v72h-181v59l167 208h78l-167 -208h103v81z" />
    <glyph glyph-name="five.numr" horiz-adv-x="368" 
d="M50 423h67q16 -44 67 -44q30 0 48.5 16.5t18.5 41.5q0 24 -18.5 40t-48.5 16q-38 0 -60 -22h-60l20 194h219v-60h-165l-7 -62q21 10 60 10q51 0 89 -31t38 -85q0 -49 -37 -83.5t-96 -34.5q-54 0 -90 28t-45 76z" />
    <glyph glyph-name="six.numr" horiz-adv-x="371" 
d="M195 552q53 0 89.5 -33t36.5 -83q0 -48 -36.5 -82.5t-93.5 -34.5q-65 0 -103 41.5t-38 128.5q0 78 34.5 130.5t108.5 52.5q99 0 125 -94h-68q-15 34 -55 34q-32 0 -52 -23t-25 -63q31 26 77 26zM189 379q28 0 47 16t19 41q0 24 -19 40t-47 16t-47 -16t-19 -40
q0 -25 19 -41t47 -16z" />
    <glyph glyph-name="seven.numr" horiz-adv-x="353" 
d="M228 605h-178v60h253v-60l-166 -279h-75z" />
    <glyph glyph-name="eight.numr" horiz-adv-x="369" 
d="M185 319q-62 0 -98.5 29.5t-36.5 74.5q0 47 45 75q-41 24 -41 72q0 44 36 73t95 29t94.5 -29t35.5 -73q0 -47 -41 -72q45 -28 45 -75q0 -45 -36.5 -74.5t-97.5 -29.5zM185 379q30 0 48.5 12.5t18.5 32.5t-18 31.5t-49 11.5t-49.5 -11.5t-18.5 -31.5t18.5 -32.5
t49.5 -12.5zM248 570q0 18 -17 30t-46 12t-46.5 -12t-17.5 -30q0 -20 17 -31.5t47 -11.5q29 0 46 11.5t17 31.5z" />
    <glyph glyph-name="nine.numr" horiz-adv-x="371" 
d="M176 439q-53 0 -89.5 33t-36.5 83q0 48 36.5 82.5t93.5 34.5q65 0 103 -41.5t38 -128.5q0 -79 -33.5 -131t-106.5 -52q-98 0 -124 94h68q15 -34 54 -34q62 0 74 86q-31 -26 -77 -26zM182 612q-28 0 -47 -16t-19 -41q0 -24 19 -40t47 -16t47 16t19 40q0 25 -19 41t-47 16z
" />
    <glyph glyph-name="zero.dnom" horiz-adv-x="379" 
d="M344 170q0 -29 -7 -57.5t-22 -56.5t-44 -45t-69 -17t-69 17t-44 45t-22 56.5t-7 57.5q0 41 11 78.5t45 68t86 30.5t86 -30.5t45 -68t11 -78.5zM276 170q0 45 -18 81t-56 36t-55.5 -35.5t-17.5 -81.5q0 -45 17.5 -80.5t55.5 -35.5q37 0 55.5 36t18.5 80z" />
    <glyph glyph-name="one.dnom" horiz-adv-x="261" 
d="M114 1v262l-74 -64v78l71 63h70v-339h-67z" />
    <glyph glyph-name="two.dnom" horiz-adv-x="361" 
d="M157 61h154v-60h-250v60l138 118q37 33 37 59q0 22 -16 35.5t-40 13.5q-53 0 -64 -49h-68q9 50 43.5 79.5t86.5 29.5q57 0 91 -29t34 -79q0 -54 -50 -96z" />
    <glyph glyph-name="three.dnom" horiz-adv-x="362" 
d="M50 98h66q13 -44 68 -44q28 0 44.5 12.5t16.5 32.5q0 43 -58 43h-45v61h44q58 0 58 41q0 20 -16 31.5t-44 11.5q-54 0 -67 -42h-67q9 52 45.5 77t87.5 25q57 0 92.5 -30t35.5 -73q0 -45 -40 -71q41 -25 41 -74q0 -44 -35.5 -74.5t-93.5 -30.5q-51 0 -87.5 26t-45.5 78z
" />
    <glyph glyph-name="four.dnom" horiz-adv-x="404" 
d="M231 213h66v-81h57v-59h-57v-72h-66v72h-181v59l167 208h78l-167 -208h103v81z" />
    <glyph glyph-name="five.dnom" horiz-adv-x="368" 
d="M50 98h67q16 -44 67 -44q30 0 48.5 16.5t18.5 41.5q0 24 -18.5 40t-48.5 16q-38 0 -60 -22h-60l20 194h219v-60h-165l-7 -62q21 10 60 10q51 0 89 -31t38 -85q0 -49 -37 -83.5t-96 -34.5q-54 0 -90 28t-45 76z" />
    <glyph glyph-name="six.dnom" horiz-adv-x="371" 
d="M195 227q53 0 89.5 -33t36.5 -83q0 -48 -36.5 -82.5t-93.5 -34.5q-65 0 -103 41.5t-38 128.5q0 78 34.5 130.5t108.5 52.5q99 0 125 -94h-68q-15 34 -55 34q-32 0 -52 -23t-25 -63q31 26 77 26zM189 54q28 0 47 16t19 41q0 24 -19 40t-47 16t-47 -16t-19 -40
q0 -25 19 -41t47 -16z" />
    <glyph glyph-name="seven.dnom" horiz-adv-x="353" 
d="M228 280h-178v60h253v-60l-166 -279h-75z" />
    <glyph glyph-name="eight.dnom" horiz-adv-x="369" 
d="M185 -6q-62 0 -98.5 29.5t-36.5 74.5q0 47 45 75q-41 24 -41 72q0 44 36 73t95 29t94.5 -29t35.5 -73q0 -47 -41 -72q45 -28 45 -75q0 -45 -36.5 -74.5t-97.5 -29.5zM185 54q30 0 48.5 12.5t18.5 32.5t-18 31.5t-49 11.5t-49.5 -11.5t-18.5 -31.5t18.5 -32.5t49.5 -12.5z
M248 245q0 18 -17 30t-46 12t-46.5 -12t-17.5 -30q0 -20 17 -31.5t47 -11.5q29 0 46 11.5t17 31.5z" />
    <glyph glyph-name="nine.dnom" horiz-adv-x="371" 
d="M176 114q-53 0 -89.5 33t-36.5 83q0 48 36.5 82.5t93.5 34.5q65 0 103 -41.5t38 -128.5q0 -79 -33.5 -131t-106.5 -52q-98 0 -124 94h68q15 -34 54 -34q62 0 74 86q-31 -26 -77 -26zM182 287q-28 0 -47 -16t-19 -41q0 -24 19 -40t47 -16t47 16t19 40q0 25 -19 41t-47 16z
" />
    <glyph glyph-name="zero.tnum" 
d="M311 677q57 0 102.5 -23t73.5 -59t46 -83t25 -91.5t7 -88.5t-7 -88.5t-25 -91.5t-46 -83t-73.5 -59t-102.5 -23t-102.5 23t-73.5 59t-46 83t-25 91.5t-7 88.5t7 88.5t25 91.5t46 83t73.5 59t102.5 23zM311 71q45 0 78 24.5t51 64.5t26.5 83.5t8.5 88.5t-8.5 88.5
t-26.5 83.5t-51 64.5t-78 24.5t-78 -24.5t-51 -64.5t-26.5 -83.5t-8.5 -88.5t8.5 -88.5t26.5 -83.5t51 -64.5t78 -24.5z" />
    <glyph glyph-name="one.tnum" 
d="M121 84h165v476l-142 -128v110l138 122h94v-580h155v-84h-410v84z" />
    <glyph glyph-name="two.tnum" 
d="M207 84h332v-84h-453v84l271 249q39 37 60 69t21 70q0 54 -38 87.5t-95 33.5q-53 0 -91 -27.5t-50 -80.5h-94q17 87 77.5 139.5t152.5 52.5q101 0 164 -55t63 -147q0 -96 -100 -188z" />
    <glyph glyph-name="three.tnum" 
d="M227 380h78q64 0 100.5 28.5t36.5 79.5q0 47 -38 76t-99 29q-111 0 -146 -94h-93q23 89 87.5 133.5t151.5 44.5q104 0 165.5 -55.5t61.5 -133.5q0 -90 -84 -148q87 -60 87 -157q0 -82 -63 -139t-170 -57q-88 0 -152.5 44.5t-87.5 133.5h93q38 -94 147 -94q63 0 103 31
t40 80q0 54 -38.5 84.5t-104.5 30.5h-75v83z" />
    <glyph glyph-name="four.tnum" 
d="M401 422h90v-197h114v-84h-114v-141h-90v141h-358v84l324 439h104l-324 -439h254v197z" />
    <glyph glyph-name="five.tnum" 
d="M68 156h93q34 -85 145 -85q67 0 109.5 40.5t42.5 100.5q0 61 -42 100.5t-110 39.5q-80 0 -129 -49h-90l38 361h392v-84h-315l-18 -178q59 34 133 34q91 0 161 -61.5t70 -164.5q0 -91 -68 -157t-172 -66q-92 0 -157 46.5t-83 122.5z" />
    <glyph glyph-name="six.tnum" 
d="M328 426q94 0 161.5 -63t67.5 -157q0 -89 -67.5 -154t-169.5 -65q-118 0 -187 81t-69 250q0 70 15.5 132t46.5 114t84 82.5t123 30.5q161 0 220 -155h-92q-35 71 -127 71q-76 0 -127.5 -64.5t-53.5 -176.5q27 33 73.5 53.5t101.5 20.5zM316 71q63 0 107 38.5t44 96.5
q0 59 -44 97.5t-107 38.5t-105.5 -38.5t-42.5 -97.5t42.5 -97t105.5 -38z" />
    <glyph glyph-name="seven.tnum" 
d="M447 580h-354v84h452v-84l-319 -580h-100z" />
    <glyph glyph-name="eight.tnum" 
d="M310 -13q-111 0 -177.5 57t-66.5 139q0 95 93 157q-86 56 -86 149q0 78 64.5 133t172.5 55t172.5 -55t64.5 -133q0 -93 -86 -149q93 -62 93 -157q0 -82 -66.5 -139t-177.5 -57zM457 489q0 46 -41 75t-106 29t-106 -29t-41 -75q0 -50 39.5 -78.5t107.5 -28.5t107.5 28.5
t39.5 78.5zM310 71q66 0 110 32t44 80q0 53 -42 84t-112 31t-112 -31t-42 -84q0 -48 44 -80t110 -32z" />
    <glyph glyph-name="nine.tnum" 
d="M290 252q-94 0 -161.5 63t-67.5 157q0 89 67.5 154t169.5 65q118 0 187 -81t69 -250q0 -70 -15.5 -132t-46.5 -114t-84 -82.5t-123 -30.5q-161 0 -220 155h92q35 -71 127 -71q76 0 127.5 64.5t53.5 176.5q-27 -33 -73.5 -53.5t-101.5 -20.5zM302 607q-63 0 -107 -38.5
t-44 -96.5q0 -59 44 -97.5t107 -38.5t105.5 38.5t42.5 97.5t-42.5 97t-105.5 38z" />
    <glyph glyph-name="dollar.tnum" 
d="M50 165h95q24 -43 69.5 -68.5t104.5 -25.5q69 0 114 32t45 78q0 47 -31 71.5t-98 32.5l-107 14q-88 12 -131.5 59t-43.5 120q0 79 51.5 132t144.5 64v121h86v-121q88 -11 144 -61.5t77 -113.5h-95q-21 42 -66.5 68t-103.5 26q-71 0 -109.5 -32.5t-38.5 -78.5
q0 -86 112 -100l114 -15q86 -11 135.5 -59t49.5 -122t-58.5 -132t-160.5 -66v-120h-86v123q-87 13 -140 61.5t-73 112.5z" />
    <glyph glyph-name="Euro.tnum" 
d="M421 444l-23 -76h-223q-2 -18 -2 -36q0 -19 2 -33h207l-23 -76h-172q16 -72 58.5 -112t107.5 -40q93 0 141 94h91q-30 -83 -89.5 -130.5t-142.5 -47.5q-96 0 -165.5 64t-91.5 172h-76v76h65q-2 14 -2 33q0 20 2 36h-65v76h76q22 106 92 169.5t165 63.5q83 0 142.5 -47.5
t89.5 -130.5h-91q-48 94 -141 94q-128 0 -165 -149h233z" />
    <glyph glyph-name="sterling.tnum" 
d="M62 0v84q87 2 87 81v127h-88v76h88v109q0 80 55.5 140t152.5 60q78 0 130 -46.5t72 -115.5h-92q-33 78 -113 78q-55 0 -85 -32t-30 -84v-109h185v-76h-185v-131q0 -64 -39 -77h359v-84h-497z" />
    <glyph glyph-name="yen.tnum" 
d="M311 331l198 333h96l-151 -252h102v-76h-148l-41 -69h189v-76h-201v-191h-90v191h-201v76h189l-42 69h-147v76h102l-151 252h99z" />
    <glyph glyph-name="uni20BD.tnum" 
d="M117 274h-81v84h81v306h253q96 0 154 -51.5t58 -143.5t-58 -143.5t-154 -51.5h-163v-69h246v-84h-246v-121h-90v121h-81v84h81v69zM492 469q0 53 -33.5 82t-88.5 29h-163v-222h163q55 0 88.5 29t33.5 82z" />
    <glyph glyph-name="uni20B4.tnum" 
d="M538 444h53v-76h-569v76h419q18 21 18 51q0 42 -35 70t-96 28q-56 0 -95.5 -25.5t-57.5 -68.5h-94q21 71 84 124.5t161 53.5q99 0 161 -50.5t62 -131.5q0 -34 -11 -51zM591 223h-409q-8 -19 -8 -44q0 -48 38 -78t101 -30q115 0 160 94h92q-24 -76 -85 -127t-167 -51
q-108 0 -168.5 58.5t-60.5 138.5q0 25 5 39h-67v76h569v-76z" />
    <glyph glyph-name="uni20B8.tnum" 
d="M65 511h490v-84h-200v-427h-90v427h-200v84zM555 580h-490v84h490v-84z" />
    <glyph glyph-name="cent.tnum" 
d="M274 468v113h86v-111q62 -9 109.5 -47.5t69.5 -96.5h-95q-39 67 -122 67q-67 0 -110.5 -46.5t-43.5 -116.5t43.5 -116.5t110.5 -46.5q83 0 122 67h95q-22 -59 -69 -97t-110 -47v-110h-86v112q-86 17 -139 82t-53 156t53 156t139 82z" />
    <glyph glyph-name="circumflex.cap" horiz-adv-x="513" 
d="M60 725l150 166h93l150 -166h-94l-102 111l-102 -111h-95z" />
    <glyph glyph-name="dieresis.cap" horiz-adv-x="399" 
d="M243 744v100h96v-100h-96zM60 744v100h96v-100h-96z" />
    <glyph glyph-name="acute.cap" horiz-adv-x="356" 
d="M202 891h94l-142 -166h-94z" />
    <glyph glyph-name="grave.cap" horiz-adv-x="356" 
d="M60 891h94l142 -166h-94z" />
    <glyph glyph-name="ring.cap" horiz-adv-x="390" 
d="M60 845q0 56 39.5 95.5t95.5 39.5t95.5 -39.5t39.5 -95.5t-39.5 -95.5t-95.5 -39.5t-95.5 39.5t-39.5 95.5zM130 845q0 -28 18.5 -46.5t46.5 -18.5t46.5 18.5t18.5 46.5t-18.5 46.5t-46.5 18.5t-46.5 -18.5t-18.5 -46.5z" />
    <glyph glyph-name="caron.cap" horiz-adv-x="513" 
d="M453 891l-146 -166h-101l-146 166h94l102 -114l102 114h95z" />
    <glyph glyph-name="dotaccent.cap" horiz-adv-x="216" 
d="M60 754v100h96v-100h-96z" />
    <glyph glyph-name="breve.cap" horiz-adv-x="469" 
d="M235 726q-74 0 -127 46.5t-61 118.5h77q8 -39 39 -65t72 -26q40 0 71 26t39 65h77q-8 -71 -61 -118t-126 -47z" />
    <glyph glyph-name="hungarumlaut.cap" horiz-adv-x="510" 
d="M356 891h94l-142 -166h-94zM202 891h94l-142 -166h-94z" />
    <glyph glyph-name="tilde.cap" horiz-adv-x="505" 
d="M330 800q43 0 43 90h72q0 -77 -30.5 -120.5t-85.5 -43.5q-29 0 -58.5 22.5t-54 45t-41.5 22.5q-43 0 -43 -90h-72q0 76 31 120t85 44q30 0 60 -22.5t54.5 -45t39.5 -22.5z" />
    <glyph glyph-name="macron.cap" horiz-adv-x="471" 
d="M60 818h351v-74h-351v74z" />
    <glyph glyph-name="cyrbreve.cap" horiz-adv-x="498" 
d="M56 882h76q6 -42 39 -71.5t78 -29.5t78 29.5t39 71.5h76q-6 -75 -60.5 -125t-132.5 -50t-132.5 50t-60.5 125z" />
    <glyph glyph-name="a.ss03" horiz-adv-x="604" 
d="M438 460h86v-460h-86v50q-57 -63 -155 -63q-109 0 -171 71t-62 172t62 172t171 71q98 0 155 -63v50zM441 230q0 78 -45.5 120.5t-109.5 42.5q-65 0 -107.5 -47.5t-42.5 -115.5t42.5 -115.5t107.5 -47.5q64 0 109.5 42.5t45.5 120.5z" />
    <glyph glyph-name="aacute.ss03" horiz-adv-x="604" 
d="M438 460h86v-460h-86v50q-57 -63 -155 -63q-109 0 -171 71t-62 172t62 172t171 71q98 0 155 -63v50zM441 230q0 78 -45.5 120.5t-109.5 42.5q-65 0 -107.5 -47.5t-42.5 -115.5t42.5 -115.5t107.5 -47.5q64 0 109.5 42.5t45.5 120.5zM390 719h94l-142 -185h-94z" />
    <glyph glyph-name="agrave.ss03" horiz-adv-x="604" 
d="M438 460h86v-460h-86v50q-57 -63 -155 -63q-109 0 -171 71t-62 172t62 172t171 71q98 0 155 -63v50zM441 230q0 78 -45.5 120.5t-109.5 42.5q-65 0 -107.5 -47.5t-42.5 -115.5t42.5 -115.5t107.5 -47.5q64 0 109.5 42.5t45.5 120.5zM162 719h94l142 -185h-94z" />
    <glyph glyph-name="acircumflex.ss03" horiz-adv-x="604" 
d="M438 460h86v-460h-86v50q-57 -63 -155 -63q-109 0 -171 71t-62 172t62 172t171 71q98 0 155 -63v50zM441 230q0 78 -45.5 120.5t-109.5 42.5q-65 0 -107.5 -47.5t-42.5 -115.5t42.5 -115.5t107.5 -47.5q64 0 109.5 42.5t45.5 120.5zM106 534l149 185h95l149 -185h-92
l-104 124l-104 -124h-93z" />
    <glyph glyph-name="adieresis.ss03" horiz-adv-x="604" 
d="M438 460h86v-460h-86v50q-57 -63 -155 -63q-109 0 -171 71t-62 172t62 172t171 71q98 0 155 -63v50zM441 230q0 78 -45.5 120.5t-109.5 42.5q-65 0 -107.5 -47.5t-42.5 -115.5t42.5 -115.5t107.5 -47.5q64 0 109.5 42.5t45.5 120.5zM346 565v99h96v-99h-96zM163 565v99
h96v-99h-96z" />
    <glyph glyph-name="atilde.ss03" horiz-adv-x="604" 
d="M438 460h86v-460h-86v50q-57 -63 -155 -63q-109 0 -171 71t-62 172t62 172t171 71q98 0 155 -63v50zM441 230q0 78 -45.5 120.5t-109.5 42.5q-65 0 -107.5 -47.5t-42.5 -115.5t42.5 -115.5t107.5 -47.5q64 0 109.5 42.5t45.5 120.5zM380 610q43 0 43 90h72
q0 -77 -30.5 -120.5t-85.5 -43.5q-29 0 -58.5 22.5t-54 45t-41.5 22.5q-43 0 -43 -90h-72q0 76 31 120t85 44q30 0 60 -22.5t54.5 -45t39.5 -22.5z" />
    <glyph glyph-name="aring.ss03" horiz-adv-x="604" 
d="M438 460h86v-460h-86v50q-57 -63 -155 -63q-109 0 -171 71t-62 172t62 172t171 71q98 0 155 -63v50zM441 230q0 78 -45.5 120.5t-109.5 42.5q-65 0 -107.5 -47.5t-42.5 -115.5t42.5 -115.5t107.5 -47.5q64 0 109.5 42.5t45.5 120.5zM167 655q0 56 39.5 95.5t95.5 39.5
t95.5 -39.5t39.5 -95.5t-39.5 -95.5t-95.5 -39.5t-95.5 39.5t-39.5 95.5zM237 655q0 -28 18.5 -46.5t46.5 -18.5t46.5 18.5t18.5 46.5t-18.5 46.5t-46.5 18.5t-46.5 -18.5t-18.5 -46.5z" />
    <glyph glyph-name="amacron.ss03" horiz-adv-x="604" 
d="M438 460h86v-460h-86v50q-57 -63 -155 -63q-109 0 -171 71t-62 172t62 172t171 71q98 0 155 -63v50zM441 230q0 78 -45.5 120.5t-109.5 42.5q-65 0 -107.5 -47.5t-42.5 -115.5t42.5 -115.5t107.5 -47.5q64 0 109.5 42.5t45.5 120.5zM127 639h351v-74h-351v74z" />
    <glyph glyph-name="abreve.ss03" horiz-adv-x="604" 
d="M438 460h86v-460h-86v50q-57 -63 -155 -63q-109 0 -171 71t-62 172t62 172t171 71q98 0 155 -63v50zM441 230q0 78 -45.5 120.5t-109.5 42.5q-65 0 -107.5 -47.5t-42.5 -115.5t42.5 -115.5t107.5 -47.5q64 0 109.5 42.5t45.5 120.5zM302 608q43 0 73 33.5t34 77.5h75
q-6 -77 -57 -131t-125 -54t-125 54t-57 131h75q4 -44 34 -77.5t73 -33.5z" />
    <glyph glyph-name="aogonek.ss03" horiz-adv-x="604" 
d="M438 460h86v-460q-93 -58 -93 -98q0 -33 49 -33h44v-73h-48q-125 0 -125 88q0 56 87 116v50q-57 -63 -155 -63q-109 0 -171 71t-62 172t62 172t171 71q98 0 155 -63v50zM441 230q0 78 -45.5 120.5t-109.5 42.5q-65 0 -107.5 -47.5t-42.5 -115.5t42.5 -115.5t107.5 -47.5
q64 0 109.5 42.5t45.5 120.5z" />
    <glyph glyph-name="uni0430.ss03" horiz-adv-x="604" 
d="M438 460h86v-460h-86v50q-57 -63 -155 -63q-109 0 -171 71t-62 172t62 172t171 71q98 0 155 -63v50zM441 230q0 78 -45.5 120.5t-109.5 42.5q-65 0 -107.5 -47.5t-42.5 -115.5t42.5 -115.5t107.5 -47.5q64 0 109.5 42.5t45.5 120.5z" />
    <glyph glyph-name="slash.case" horiz-adv-x="360" 
d="M5 -40l261 744h89l-262 -744h-88z" />
    <glyph glyph-name="at.case" horiz-adv-x="973" 
d="M586 333q0 61 -34 95t-85 34q-50 0 -82 -38t-32 -91q0 -55 31.5 -93.5t82.5 -38.5t85 34.5t34 97.5zM696 50h105q-125 -144 -308 -144q-176 0 -299.5 124.5t-123.5 301.5t123.5 301.5t299.5 124.5q174 0 292 -108.5t118 -279.5q0 -104 -47.5 -174t-136.5 -70
q-79 0 -122 58q-46 -58 -134 -58q-76 0 -133.5 55.5t-57.5 150.5q0 96 58 151.5t136 55.5q62 0 117 -47v36h77v-250q0 -33 16.5 -54.5t49.5 -21.5q47 0 72 46t25 125q0 134 -94 221t-236 87t-241.5 -102t-99.5 -247t99.5 -247t241.5 -102q111 0 203 67z" />
    <glyph glyph-name="backslash.case" horiz-adv-x="360" 
d="M94 704l261 -744h-88l-262 744h89z" />
    <glyph glyph-name="hyphen.case" horiz-adv-x="400" 
d="M70 373h260v-81h-260v81z" />
    <glyph glyph-name="endash.case" horiz-adv-x="592" 
d="M45 373h502v-81h-502v81z" />
    <glyph glyph-name="emdash.case" horiz-adv-x="908" 
d="M45 373h818v-81h-818v81z" />
    <glyph glyph-name="bracketleft.case" horiz-adv-x="381" 
d="M191 665v-672h161v-74h-247v820h247v-74h-161z" />
    <glyph glyph-name="bracketright.case" horiz-adv-x="381" 
d="M190 -7v672h-161v74h247v-820h-247v74h161z" />
    <glyph glyph-name="braceleft.case" horiz-adv-x="367" 
d="M227 589v-141q0 -80 -77 -118q77 -38 77 -118v-143q0 -76 81 -76h40v-74h-50q-71 0 -114 36.5t-43 107.5v132q0 42 -28 68t-75 31v72q47 5 75 31t28 68v130q0 71 43 107.5t114 36.5h50v-74h-40q-81 0 -81 -76z" />
    <glyph glyph-name="braceright.case" horiz-adv-x="367" 
d="M140 448v141q0 76 -81 76h-40v74h50q71 0 114 -36.5t43 -107.5v-130q0 -42 28 -68t75 -31v-72q-47 -5 -75 -31t-28 -68v-132q0 -71 -43 -107.5t-114 -36.5h-50v74h40q81 0 81 76v143q0 80 77 118q-77 38 -77 118z" />
    <glyph glyph-name="parenleft.case" horiz-adv-x="329" 
d="M217 739h93q-65 -87 -104.5 -184.5t-39.5 -225.5t39.5 -225.5t104.5 -184.5h-93q-62 75 -99.5 181.5t-37.5 228.5t37.5 228.5t99.5 181.5z" />
    <glyph glyph-name="parenright.case" horiz-adv-x="329" 
d="M19 739h93q62 -75 99.5 -181.5t37.5 -228.5t-37.5 -228.5t-99.5 -181.5h-93q65 87 104.5 184.5t39.5 225.5t-39.5 225.5t-104.5 184.5z" />
    <glyph glyph-name="guillemotright.case" horiz-adv-x="547" 
d="M253 521h112l132 -146v-86l-132 -146h-112l170 189zM30 521h112l132 -146v-86l-132 -146h-112l170 189z" />
    <glyph glyph-name="guillemotleft.case" horiz-adv-x="547" 
d="M405 521h112l-170 -189l170 -189h-112l-132 146v86zM182 521h112l-170 -189l170 -189h-112l-132 146v86z" />
    <glyph glyph-name="guilsinglright.case" horiz-adv-x="324" 
d="M30 521h112l132 -146v-86l-132 -146h-112l170 189z" />
    <glyph glyph-name="guilsinglleft.case" horiz-adv-x="324" 
d="M182 521h112l-170 -189l170 -189h-112l-132 146v86z" />
    <glyph glyph-name="exclamdown.case" horiz-adv-x="324" 
d="M207 465v-465h-90v465h90zM110 560v104h104v-104h-104z" />
    <glyph glyph-name="questiondown.case" horiz-adv-x="524" 
d="M325 664v-104h-104v104h104zM259 -13q-96 0 -147.5 48t-51.5 116q0 40 14 71t30.5 46.5t53.5 46.5l14 11q35 27 45.5 46.5t10.5 55.5v37h90v-37q0 -60 -18.5 -93t-80.5 -78q-35 -26 -52 -49t-17 -53q0 -39 30.5 -61.5t78.5 -22.5q100 0 127 90h98q-17 -75 -76 -124.5
t-149 -49.5z" />
    <glyph glyph-name="bar.case" horiz-adv-x="226" 
d="M156 742v-820h-86v820h86z" />
    <glyph glyph-name="brokenbar.case" horiz-adv-x="226" 
d="M156 263v-341h-86v341h86zM156 742v-341h-86v341h86z" />
    <glyph glyph-name="bullet.case" horiz-adv-x="560" 
d="M80 332q0 82 59 141t141 59t141 -59t59 -141t-59 -141t-141 -59t-141 59t-59 141z" />
    <glyph glyph-name="periodcentered.case" horiz-adv-x="231" 
d="M60 277v111h111v-111h-111z" />
    <glyph glyph-name="emdash.ss02" horiz-adv-x="1300" 
d="M45 296h1210v-81h-1210v81z" />
    <glyph glyph-name="emdash.ss02.case" horiz-adv-x="1300" 
d="M45 373h1210v-81h-1210v81z" />
    <glyph glyph-name="Tcommaaccent" horiz-adv-x="600" 
d="M25 664h550v-84h-230v-580h-90v580h-230v84zM304 -232h-60l57 95h-56v101h111v-111z" />
    <glyph glyph-name="tcommaaccent" horiz-adv-x="393" 
d="M115 586h86v-126h147v-76h-147v-218q0 -46 20 -68t64 -22h63v-76h-71q-77 0 -119.5 37.5t-42.5 110.5v236h-85v76h85v126zM200 -232h-60l57 95h-56v101h111v-111z" />
    <glyph glyph-name="plus.tnum" 
d="M93 296h177v177h81v-177h177v-81h-177v-177h-81v177h-177v81z" />
    <glyph glyph-name="comma.tnum" 
d="M300 -117h-63l70 117h-53v111h111v-121z" />
    <glyph glyph-name="period.tnum" 
d="M255 0v111h111v-111h-111z" />
    <glyph glyph-name="equal.tnum" 
d="M93 214h435v-82h-435v82zM93 381h435v-82h-435v82z" />
    <glyph glyph-name="florin.tnum" 
d="M137 362h148l23 162q20 145 192 145h62l-11 -76h-62q-84 0 -96 -79l-22 -152h148l-11 -76h-147l-49 -345q-21 -145 -194 -145h-60l11 76h60q42 0 67.5 21.5t30.5 57.5l47 335h-148z" />
    <glyph glyph-name="multiply.tnum" 
d="M164 459l146 -146l147 146l57 -57l-146 -147l146 -146l-57 -57l-147 146l-146 -146l-57 57l146 146l-146 147z" />
    <glyph glyph-name="divide.tnum" 
d="M93 296h435v-81h-435v81zM255 352v111h111v-111h-111zM255 48v111h111v-111h-111z" />
    <glyph glyph-name="minus.tnum" 
d="M93 296h435v-81h-435v81z" />
    <glyph glyph-name="aringacute.ss03" horiz-adv-x="604" 
d="M366 982h94l-108 -141h-94zM165 655q0 56 39.5 95.5t95.5 39.5t95.5 -39.5t39.5 -95.5t-39.5 -95.5t-95.5 -39.5t-95.5 39.5t-39.5 95.5zM235 655q0 -28 18.5 -46.5t46.5 -18.5t46.5 18.5t18.5 46.5t-18.5 46.5t-46.5 18.5t-46.5 -18.5t-18.5 -46.5zM438 460h86v-460h-86
v50q-57 -63 -155 -63q-109 0 -171 71t-62 172t62 172t171 71q98 0 155 -63v50zM441 230q0 78 -45.5 120.5t-109.5 42.5q-65 0 -107.5 -47.5t-42.5 -115.5t42.5 -115.5t107.5 -47.5q64 0 109.5 42.5t45.5 120.5z" />
    </font>
</defs>
</svg>
