<svg width="56" height="60" viewBox="0 0 56 60" fill="none" xmlns="http://www.w3.org/2000/svg">
<path d="M50.2189 4.2668C45.0072 -0.497123 39.1077 -0.490625 34.698 0.57835C30.3048 1.6431 25.6952 1.6431 21.302 0.57835C16.8923 -0.490625 10.9927 -0.497123 5.78076 4.2668C-4.09441 13.2933 3.85206 29.4176 6.24377 32.195C8.63548 34.9724 8.71248 38.6754 10.4098 46.2362C12.1072 53.797 14.2673 60.9718 18.5877 59.8918C22.9081 58.8118 24.0654 53.5657 25.1454 46.5449C25.2199 46.0621 25.2972 45.6091 25.3771 45.1835C25.9262 42.2644 30.0735 42.2644 30.6226 45.1835C30.7025 45.6088 30.7801 46.0621 30.8545 46.5449C31.9346 53.5657 33.0919 58.8118 37.4123 59.8918C41.7327 60.9718 43.8928 53.797 45.5901 46.2362C47.2875 38.6754 47.3645 34.9724 49.7562 32.195C52.1479 29.4176 60.0944 13.2933 50.2189 4.2668ZM20.0563 7.77362C19.9367 8.66064 19.1221 9.28383 18.2358 9.16816C17.9183 9.12884 10.8755 8.35132 8.89671 16.0401C8.70793 16.7731 8.04803 17.2602 7.32444 17.2602C7.19025 17.2602 7.05411 17.2436 6.9183 17.2085C6.04947 16.985 5.52635 16.0993 5.7499 15.2304C7.91806 6.80537 15.1442 5.47484 18.6624 5.94694C19.5517 6.06651 20.1755 6.88432 20.0563 7.77362Z" fill="url(#paint0_linear)"/>
<defs>
<linearGradient id="paint0_linear" x1="23.8956" y1="55.4795" x2="58.488" y2="-8.02049" gradientUnits="userSpaceOnUse">
<stop stop-color="#3796F3"/>
<stop offset="1" stop-color="#80BFFF"/>
</linearGradient>
</defs>
</svg>
